<?xml version="1.0" standalone="no"?>
<!DOCTYPE svg PUBLIC "-//W3C//DTD SVG 1.1//EN" "http://www.w3.org/Graphics/SVG/1.1/DTD/svg11.dtd" >
<svg>
<metadata>
Created by FontForge 20090622 at Thu Apr  4 23:47:03 2019
 By deploy user
Typeface and data copyright 1996 Microsoft Corporation. All Rights Reserved.
</metadata>
<defs>
<font id="Georgia-Italic" horiz-adv-x="1024" >
  <font-face 
    font-family="Georgia"
    font-weight="400"
    font-style="italic"
    font-stretch="normal"
    units-per-em="2048"
    panose-1="2 4 5 2 5 4 5 9 3 3"
    ascent="1638"
    descent="-410"
    x-height="979"
    cap-height="1419"
    bbox="-401 -444 2451 1869"
    underline-thickness="96"
    underline-position="-135"
    slope="-13"
    unicode-range="U+0020-U+F010"
  />
<missing-glyph horiz-adv-x="2048" 
d="M256 0v1536h1536v-1536h-1536zM384 128h1280v1280h-1280v-1280z" />
    <glyph glyph-name=".notdef" horiz-adv-x="2048" 
d="M256 0v1536h1536v-1536h-1536zM384 128h1280v1280h-1280v-1280z" />
    <glyph glyph-name=".null" horiz-adv-x="0" 
 />
    <glyph glyph-name="nonmarkingreturn" horiz-adv-x="494" 
 />
    <glyph glyph-name="space" unicode=" " horiz-adv-x="494" 
 />
    <glyph glyph-name="space" unicode="&#xa0;" horiz-adv-x="494" 
 />
    <glyph glyph-name="exclam" unicode="!" horiz-adv-x="678" 
d="M667 1356q0 -18 -6 -47.5t-22 -76.5l-115.5 -336l-156.5 -464h-78q34 231 70.5 533.5t47.5 355.5q13 61 58.5 98t100.5 37q48 0 74.5 -28t26.5 -72zM410 115q0 -56 -40.5 -95.5t-96.5 -39.5t-96.5 39.5t-40.5 95.5t40.5 96.5t96.5 40.5t96.5 -40.5t40.5 -96.5z" />
    <glyph glyph-name="quotedbl" unicode="&#x22;" horiz-adv-x="843" 
d="M908 1441q0 -39 -55.5 -167.5t-121.5 -306.5h-61q5 170 5 288t8 162q8 45 44 78.5t89 33.5q47 0 69.5 -25.5t22.5 -62.5zM532 1441q0 -39 -55.5 -167.5t-121.5 -306.5h-61q5 170 5 288t8 162q8 45 44 78.5t89 33.5q47 0 69.5 -25.5t22.5 -62.5z" />
    <glyph glyph-name="numbersign" unicode="#" horiz-adv-x="1317" 
d="M1180 745h-232l-94 -251h261l-28 -123h-279l-139 -371h-111l139 371h-217l-139 -371h-111l139 371h-214l28 123h232l95 251h-262l28 123h279l137 362h111l-137 -362h217l137 362h111l-137 -362h214zM841 747h-222l-96 -255h221z" />
    <glyph glyph-name="dollar" unicode="$" horiz-adv-x="1249" 
d="M1181 1053q0 -55 -29.5 -101t-84.5 -46q-50 0 -79.5 22.5t-29.5 61.5q0 27 20.5 68.5t32.5 71.5q-2 7 -13 23t-28 29q-18 14 -48 25t-80 15l-110 -482l57.5 -23l58.5 -24q116 -49 177 -121t61 -165q0 -177 -151 -298t-379 -128l-63 -280h-92l67 278q-164 8 -263.5 83.5
t-99.5 186.5q0 72 38 122.5t95 50.5q50 0 76.5 -25.5t26.5 -62.5q0 -36 -30.5 -87.5t-43.5 -70.5q18 -55 72 -84.5t145 -36.5l121 522l-75.5 29t-70.5 30q-90 40 -141 106.5t-51 156.5q0 175 152 286.5t352 111.5l51 227h92l-55 -227q147 -15 234.5 -82.5t87.5 -161.5z
M754 1220q-147 0 -225.5 -68t-78.5 -178q0 -67 34 -110t101 -73l29 -13t34 -14zM895 332q0 69 -37.5 119t-119.5 85q-11 5 -25 9.5t-24 8.5l-117 -500q143 0 233 72t90 206z" />
    <glyph glyph-name="percent" unicode="%" horiz-adv-x="1674" 
d="M884 1172q0 -192 -118 -325.5t-301 -133.5q-132 0 -205.5 74.5t-73.5 204.5q0 89 30 171t82 145q54 65 132.5 105t176.5 40q132 0 204.5 -76t72.5 -205zM720 1197q0 81 -30.5 135t-96.5 54q-105 0 -173 -121.5t-68 -298.5q0 -78 30 -132t98 -54q99 0 169.5 122t70.5 295z
M1559 428q0 -192 -118 -325.5t-301 -133.5q-132 0 -205.5 74.5t-73.5 204.5q0 89 30 171t82 145q54 65 132.5 105t176.5 40q132 0 204.5 -76t72.5 -205zM1395 453q0 81 -30.5 135t-96.5 54q-105 0 -173 -121.5t-68 -298.5q0 -78 30 -132t98 -54q99 0 169.5 122t70.5 295z
M1676 1424l-1458 -1424h-144l1455 1424h147z" />
    <glyph glyph-name="ampersand" unicode="&#x26;" horiz-adv-x="1455" 
d="M1540 899l-16 -66q-43 -4 -111 -20t-119 -62q-25 -23 -60 -71.5l-84 -116.5l-96.5 -129t-108.5 -128q37 -60 77 -110t74 -73q35 -24 104.5 -39.5t116.5 -17.5l-17 -66h-384l-114 181l-89.5 -77t-104.5 -70q-60 -34 -118 -51.5t-121 -17.5q-152 0 -251.5 86t-99.5 234
q0 153 105.5 271.5t324.5 231.5q-46 87 -71.5 153t-25.5 138q0 85 33 154t89 119q53 47 130 74t155 27q116 0 192 -63.5t76 -173.5q0 -124 -83.5 -217t-293.5 -193l125 -227t132 -219q52 59 94 116.5t86 130.5q28 47 43.5 86t15.5 64q0 26 -40.5 43t-115.5 33l16 66h535z
M893 1213q0 74 -38.5 115.5t-111.5 41.5q-95 0 -153 -68t-58 -163q0 -65 23 -130.5t64 -145.5q145 71 209.5 154.5t64.5 195.5zM764 236l-154 258.5t-131 236.5q-114 -61 -177 -159.5t-63 -218.5q0 -117 60.5 -185.5t170.5 -68.5q80 0 155 36t139 101z" />
    <glyph glyph-name="quotesingle" unicode="'" horiz-adv-x="441" 
d="M519 1441q0 -39 -55.5 -167.5t-121.5 -306.5h-61q5 170 5 288t8 162q8 45 44 78.5t89 33.5q47 0 69.5 -25.5t22.5 -62.5z" />
    <glyph glyph-name="parenleft" unicode="(" horiz-adv-x="768" 
d="M910 1532l-16 -81q-129 -23 -242.5 -134.5t-198.5 -301.5q-75 -166 -117 -382t-42 -412q0 -197 62.5 -323t202.5 -152l-17 -74q-207 26 -321 186t-114 431q0 498 231.5 847.5t571.5 395.5z" />
    <glyph glyph-name="parenright" unicode=")" horiz-adv-x="768" 
d="M712 915q0 -498 -231.5 -847.5t-571.5 -395.5l16 81q129 23 242.5 134.5t198.5 301.5q74 166 116.5 382t42.5 412q0 197 -62.5 323t-202.5 152l17 74q207 -26 321 -186t114 -431z" />
    <glyph glyph-name="asterisk" unicode="*" horiz-adv-x="967" 
d="M1008 1099q0 -37 -21 -54t-54 -17q-22 0 -105.5 21.5t-187.5 33.5q45 -62 84 -103.5l65 -69.5q27 -29 42 -51t15 -47q0 -27 -24 -47t-51 -20q-18 0 -34 10.5t-27 29.5q-16 29 -31.5 93t-68.5 188q-48 -119 -67 -188.5t-33 -92.5q-13 -20 -26.5 -30t-34.5 -10
q-28 0 -51.5 19t-23.5 48q0 24 14 45t43 53l66.5 71t82.5 102q-98 -10 -182.5 -32.5t-110.5 -22.5q-33 0 -54 16.5t-21 54.5q0 34 21 52.5t54 18.5q30 0 105.5 -21t187.5 -32q-39 53 -82 100.5l-67 72.5q-28 30 -42.5 51.5t-14.5 46.5q0 27 24 47t51 20q18 0 33.5 -10
t27.5 -30q14 -24 37 -107.5t63 -173.5q45 102 65.5 178.5t34.5 102.5q11 19 26.5 29.5t34.5 10.5q28 0 51.5 -19t23.5 -48q0 -41 -55.5 -96t-150.5 -175q108 12 187.5 32.5t105.5 20.5q33 0 54 -18t21 -53z" />
    <glyph glyph-name="plus" unicode="+" horiz-adv-x="1317" 
d="M1198 497h-451v-451h-127v451h-451v125h451v451h127v-451h451v-125z" />
    <glyph glyph-name="comma" unicode="," horiz-adv-x="552" 
d="M413 98q0 -85 -39 -158.5t-100 -132.5q-58 -57 -120 -97.5t-110 -63.5l-32 67q46 25 93 56.5t79 63.5q40 39 67.5 77t43.5 92h-47q-61 0 -91.5 30.5t-30.5 79.5q0 52 40 96t108 44q73 0 106 -42.5t33 -111.5z" />
    <glyph glyph-name="hyphen" unicode="-" horiz-adv-x="766" 
d="M711 620l-36 -152h-596l36 152h596z" />
    <glyph glyph-name="hyphen" unicode="&#xad;" horiz-adv-x="766" 
d="M711 620l-36 -152h-596l36 152h596z" />
    <glyph glyph-name="period" unicode="." horiz-adv-x="552" 
d="M400 115q0 -56 -40.5 -95.5t-96.5 -39.5t-96.5 39.5t-40.5 95.5t40.5 96.5t96.5 40.5t96.5 -40.5t40.5 -96.5z" />
    <glyph glyph-name="slash" unicode="/" horiz-adv-x="960" 
d="M1055 1523l-1033 -1947h-138l1031 1947h140z" />
    <glyph glyph-name="zero" unicode="0" horiz-adv-x="1257" 
d="M1205 697q0 -143 -51.5 -276t-140.5 -231q-94 -103 -214 -162.5t-274 -59.5q-200 0 -313 115t-113 288q0 151 52.5 283.5t145.5 234.5q91 100 216.5 158t265.5 58q205 0 315.5 -118.5t110.5 -289.5zM992 742q0 142 -60.5 215t-166.5 73q-110 0 -198 -67.5t-148 -188.5
q-52 -105 -79.5 -226t-27.5 -220q0 -134 58 -209.5t171 -75.5q104 0 191 61.5t153 193.5q56 111 81.5 230t25.5 214z" />
    <glyph glyph-name="one" unicode="1" horiz-adv-x="880" 
d="M716 1105l-46 -171.5t-34 -136.5l-138 -598q-2 -8 -3 -17t-1 -17q0 -26 12 -43.5t29 -25.5q20 -10 76 -19t90 -11l-16 -66h-674l16 66q31 2 95.5 8.5t90.5 13.5q27 8 53 35.5t34 64.5l164 712h-249l18 79h55q104 0 195 35.5t150 90.5h83z" />
    <glyph glyph-name="two" unicode="2" horiz-adv-x="1144" 
d="M1076 792q0 -110 -54 -185.5t-147 -128.5q-70 -40 -162.5 -70.5t-203.5 -63.5q-95 -28 -183.5 -69.5t-145.5 -100.5h797l-41 -174h-937l33 136q30 40 72 78t99 74q50 31 111.5 61t133.5 58q93 36 162.5 70.5t117.5 70.5q73 54 103.5 117.5t30.5 148.5q0 99 -54 156.5
t-140 57.5q-83 0 -141 -29t-81 -62q0 -12 1.5 -34t1.5 -53q0 -90 -35 -134.5t-112 -44.5q-55 0 -76.5 25.5t-21.5 62.5q0 59 36.5 119.5t103.5 112.5q65 51 156 82.5t197 31.5q170 0 274.5 -84t104.5 -229z" />
    <glyph glyph-name="three" unicode="3" horiz-adv-x="1130" 
d="M997 1007q37 -40 52.5 -88t15.5 -94q0 -50 -21 -111.5t-60 -109.5q-43 -53 -114 -97.5t-174 -71.5l-6 -16q48 -4 101.5 -21.5t95.5 -47.5q44 -32 72 -82.5t28 -120.5q0 -114 -52.5 -209.5t-137.5 -160.5q-89 -68 -201.5 -105t-240.5 -37q-161 0 -266 71.5t-105 176.5
q0 65 37 115t99 50q55 0 81 -26.5t26 -59.5q0 -43 -23 -88.5t-37 -75.5q5 -7 20 -22t42 -29t67.5 -24.5t93.5 -10.5q66 0 136.5 30.5t123.5 85.5q56 59 90 140.5t34 195.5q0 92 -60.5 140.5t-177.5 48.5h-134l26 111h89q154 0 244 108.5t90 269.5q0 91 -46 138.5t-137 47.5
q-70 0 -127 -26.5t-87 -59.5q0 -11 1 -34.5t1 -50.5q0 -96 -40 -141t-120 -45q-49 0 -68.5 25.5t-19.5 63.5q0 58 34 115t104 112q62 49 160 83.5t210 34.5q102 0 171.5 -27.5t109.5 -70.5z" />
    <glyph glyph-name="four" unicode="4" horiz-adv-x="1157" 
d="M1102 216l-30 -126h-210l-105 -455h-192l105 455h-643l40 164l887 845h141l-204 -883h211zM851 876l-696 -660h544z" />
    <glyph glyph-name="five" unicode="5" horiz-adv-x="1082" 
d="M1114 1073l-43 -176h-635l-137 -426q53 33 127.5 63t166.5 30q68 0 131 -17t121 -59q56 -40 90.5 -103t34.5 -157q0 -124 -51.5 -233.5t-141.5 -189.5q-91 -81 -200.5 -125.5t-235.5 -44.5q-158 0 -262.5 70t-104.5 170q0 65 38.5 112.5t96.5 47.5t83 -27.5t25 -59.5
q0 -39 -23 -87l-35 -72q24 -31 72 -54t133 -23q151 0 272 142t121 355q0 108 -63 178t-171 70q-102 0 -176.5 -38.5t-127.5 -93.5l-66 26l239 722h722z" />
    <glyph glyph-name="six" unicode="6" horiz-adv-x="1159" 
d="M1093 546q0 -116 -45.5 -222.5t-122.5 -184.5q-80 -81 -185 -126t-221 -45q-189 0 -301 119.5t-112 335.5q0 195 74.5 370t206.5 315q128 136 308 227.5t378 118.5v-94l-90 -11q-217 -57 -377 -213t-233 -368q99 75 193.5 107.5t189.5 32.5q141 0 239 -102.5t98 -259.5z
M880 518q0 128 -61 203.5t-168 75.5q-85 0 -158.5 -34.5t-137.5 -92.5q-10 -28 -26 -108.5t-16 -177.5q0 -166 58.5 -254t166.5 -88q139 0 240.5 139.5t101.5 336.5z" />
    <glyph glyph-name="seven" unicode="7" horiz-adv-x="1017" 
d="M1180 1073l-15 -65l-1020 -1373h-131l962 1275h-390q-87 0 -136.5 -2t-94.5 -19q-34 -13 -69.5 -67t-69.5 -141h-66l90 392h940z" />
    <glyph glyph-name="eight" unicode="8" horiz-adv-x="1221" 
d="M1206 1151q0 -123 -85 -229.5t-250 -176.5q131 -63 190 -142.5t59 -174.5q0 -190 -174.5 -326t-425.5 -136q-200 0 -313 94t-113 237q0 147 94 253.5t297 180.5q-99 64 -146.5 139.5t-47.5 158.5q0 174 163.5 300.5t376.5 126.5q172 0 273.5 -87t101.5 -218zM1014 1163
q0 95 -54 157t-158 62q-131 0 -222.5 -85t-91.5 -213q0 -102 77.5 -169t242.5 -134q97 54 151.5 161t54.5 221zM920 369q0 55 -23 98t-70 81t-118 74t-160 74q-126 -62 -191 -164t-65 -228q0 -116 70.5 -189.5t193.5 -73.5q163 0 263 96.5t100 231.5z" />
    <glyph glyph-name="nine" unicode="9" horiz-adv-x="1159" 
d="M1108 666q0 -197 -73.5 -375t-203.5 -316q-128 -136 -310.5 -229t-391.5 -116v97l94 9q235 66 386.5 206.5t228.5 356.5q-103 -76 -195 -103.5t-188 -27.5q-142 0 -238 101.5t-96 260.5q0 111 44 214t122 185q75 78 182.5 127.5t225.5 49.5q185 0 299 -118t114 -322z
M901 706q0 151 -62 238.5t-161 87.5q-88 0 -153 -50t-109 -125q-43 -73 -62.5 -159t-19.5 -152q0 -119 62.5 -193t165.5 -74q77 0 153 28.5t144 91.5q11 35 26.5 110t15.5 197z" />
    <glyph glyph-name="colon" unicode=":" horiz-adv-x="786" 
d="M612 853q0 -56 -40.5 -96t-96.5 -40t-96.5 40t-40.5 96t40 96.5t97 40.5t97 -40.5t40 -96.5zM447 115q0 -56 -40.5 -95.5t-96.5 -39.5t-96.5 39.5t-40.5 95.5t40.5 96.5t96.5 40.5t96.5 -40.5t40.5 -96.5z" />
    <glyph glyph-name="semicolon" unicode=";" horiz-adv-x="786" 
d="M612 853q0 -56 -40.5 -96t-96.5 -40t-96.5 40t-40.5 96t40 96.5t97 40.5t97 -40.5t40 -96.5zM462 98q0 -85 -39 -158.5t-100 -132.5q-59 -57 -120.5 -97.5t-109.5 -63.5l-32 67q46 25 92.5 56.5t79.5 63.5q40 39 67.5 77t43.5 92h-47q-61 0 -91.5 30.5t-30.5 79.5
q0 52 40 96t108 44q73 0 106 -42.5t33 -111.5z" />
    <glyph glyph-name="semicolon" unicode="&#x37e;" horiz-adv-x="786" 
d="M612 853q0 -56 -40.5 -96t-96.5 -40t-96.5 40t-40.5 96t40 96.5t97 40.5t97 -40.5t40 -96.5zM462 98q0 -85 -39 -158.5t-100 -132.5q-59 -57 -120.5 -97.5t-109.5 -63.5l-32 67q46 25 92.5 56.5t79.5 63.5q40 39 67.5 77t43.5 92h-47q-61 0 -91.5 30.5t-30.5 79.5
q0 52 40 96t108 44q73 0 106 -42.5t33 -111.5z" />
    <glyph glyph-name="less" unicode="&#x3c;" horiz-adv-x="1317" 
d="M1143 22l-925 481v113l925 481v-137l-769 -400l769 -401v-137z" />
    <glyph glyph-name="equal" unicode="=" horiz-adv-x="1317" 
d="M1188 683h-1009v125h1009v-125zM1188 311h-1009v125h1009v-125z" />
    <glyph glyph-name="greater" unicode="&#x3e;" horiz-adv-x="1317" 
d="M1149 503l-925 -481v137l769 401l-769 400v137l925 -481v-113z" />
    <glyph glyph-name="question" unicode="?" horiz-adv-x="980" 
d="M1005 1119q0 -220 -150 -360t-395 -170l-50 -212h-92l79 379q81 8 157 30t135 69q61 48 96.5 117.5t35.5 180.5q0 106 -55 165.5t-156 59.5q-38 0 -76.5 -13.5t-60.5 -27.5v-68.5t-5 -68.5q-9 -45 -47 -73.5t-99 -28.5q-42 0 -62.5 26t-20.5 62q0 46 26 90.5t80 86.5
q48 38 124 63.5t164 25.5q170 0 271 -90t101 -243zM462 115q0 -56 -40.5 -95.5t-96.5 -39.5t-96.5 39.5t-40.5 95.5t40.5 96.5t96.5 40.5t96.5 -40.5t40.5 -96.5z" />
    <glyph glyph-name="at" unicode="@" horiz-adv-x="1902" 
d="M1557 -119q-100 -87 -237.5 -140.5t-306.5 -53.5q-151 0 -297 48.5t-263 147.5q-116 99 -187 246.5t-71 347.5q0 171 64 332t183 287q115 123 284.5 198.5t369.5 75.5q173 0 300 -55.5t208 -146.5q81 -90 121.5 -207t40.5 -244q0 -236 -131.5 -408.5t-341.5 -172.5
q-85 0 -144 42.5t-66 119.5l-7 2q-48 -73 -109.5 -116.5t-124.5 -43.5q-41 0 -83.5 13.5t-75.5 44.5q-33 33 -52.5 86t-19.5 131q0 73 33.5 163.5t90.5 172.5q57 83 147.5 144t195.5 61q56 0 99.5 -31.5t53.5 -92.5h6l43 112h149l-189 -538q-9 -25 -14.5 -57.5t-5.5 -51.5
q0 -51 26 -74.5t67 -23.5q155 0 259 145.5t104 383.5q0 118 -37 218.5t-113 177.5q-73 76 -184 120t-254 44q-136 0 -265 -53t-235 -156q-103 -100 -167 -249t-64 -337q0 -181 50 -318.5t141 -230.5q89 -90 210 -135t262 -45q159 0 283 43t223 125zM1209 742q-14 81 -45 118
t-91 37q-64 0 -117.5 -51.5t-90.5 -122.5q-39 -74 -60.5 -161.5t-21.5 -161.5q0 -109 27.5 -142.5t60.5 -33.5q82 0 135.5 59.5t87.5 120.5z" />
    <glyph glyph-name="A" unicode="A" horiz-adv-x="1374" 
d="M875 576l-89 554l-340 -554h429zM722 0l15 66q31 3 72.5 8.5t64.5 12.5q31 10 46.5 21t15.5 34q0 8 -12 98l-34 253h-498q-33 -52 -70 -120.5l-57 -104.5q-18 -32 -34.5 -71.5t-16.5 -52.5q0 -33 53 -53t133 -25l-15 -66h-545l15 66q26 2 67.5 11.5t69.5 25.5
q35 20 67.5 49.5t69.5 88.5l379.5 610l363.5 588h80l189 -1229q6 -37 20 -62.5t42 -47.5q20 -14 54 -23.5t60 -10.5l-15 -66h-580z" />
    <glyph glyph-name="B" unicode="B" horiz-adv-x="1339" 
d="M1181 1363q55 -30 86 -79.5t31 -115.5q0 -91 -36 -160t-94 -116q-59 -48 -133.5 -79.5t-150.5 -46.5v-9q58 -7 120 -27.5t112 -54.5q53 -35 86.5 -90.5t33.5 -131.5q0 -113 -52.5 -199.5t-132.5 -140.5q-86 -58 -184.5 -85.5t-202.5 -27.5h-693l16 66q24 2 72 8.5
t69 15.5q35 14 53.5 38.5t26.5 59.5l237 1030q2 10 3.5 19.5t1.5 19.5q0 21 -8.5 36.5t-29.5 26.5q-29 16 -61.5 23.5t-60.5 9.5l16 66h626q71 0 132.5 -12.5t116.5 -43.5zM969 902q47 55 67.5 116.5t20.5 139.5q0 53 -19 90t-52 59q-33 21 -73 29.5t-84 8.5
q-33 0 -73.5 -1.5l-68.5 -2.5l-127 -552h125q98 0 169.5 31t114.5 82zM904 216q43 59 65 129t22 138q0 107 -72 168t-202 61q-63 0 -108 -1.5t-68 -2.5l-113 -489q-3 -14 -4.5 -26t-1.5 -23q0 -52 53 -75t135 -23q101 0 175.5 41.5t118.5 102.5z" />
    <glyph glyph-name="C" unicode="C" horiz-adv-x="1315" 
d="M631 -33q-109 0 -206 38t-169 111q-73 74 -114.5 179t-41.5 237q0 189 64 353t176 293q108 124 259.5 199t316.5 75q125 0 219.5 -29t155.5 -72l56 68h80l-108 -506h-82v40q0 82 -13 156.5t-50 134.5q-36 58 -98.5 92.5t-159.5 34.5q-123 0 -228.5 -65.5t-182.5 -174.5
q-76 -106 -122 -261t-46 -316q0 -213 104.5 -345.5t280.5 -132.5q147 0 270.5 87t201.5 233l72 -38q-126 -215 -281 -303t-354 -88z" />
    <glyph glyph-name="D" unicode="D" horiz-adv-x="1534" 
d="M1515 872q0 -203 -79 -368.5t-207 -274.5q-133 -113 -296.5 -171t-342.5 -58h-619l15 66q26 0 73.5 5t67.5 13q36 14 54.5 39.5t25.5 60.5l236 1021q3 12 5.5 26.5t2.5 23.5q0 22 -7.5 38.5t-30.5 27.5q-26 12 -64 20.5t-58 11.5l15 66h601q90 0 196 -25.5t198 -87.5
q97 -65 155.5 -173.5t58.5 -260.5zM1280 871q0 224 -120 348t-319 124q-41 0 -85 -1.5t-69 -2.5l-254 -1101q-3 -14 -5 -27t-2 -25q0 -60 50 -84.5t164 -24.5q149 0 271.5 68t203.5 181q83 117 124 255t41 290z" />
    <glyph glyph-name="E" unicode="E" horiz-adv-x="1338" 
d="M1388 1419l-79 -342h-75q-6 106 -44.5 178t-103.5 82q-30 4 -73 6t-97 2h-228l-131 -571h160q74 0 115 14.5t73 48.5q30 30 58 82.5t40 88.5h75l-128 -555h-74q0 11 1.5 26.5t1.5 33.5q0 37 -5 71t-14 50q-21 39 -60 51t-102 12h-160l-99 -433q-6 -24 -10 -52t-4 -44
q0 -55 39.5 -73t174.5 -18q168 0 228 12t89 35q57 46 133.5 147t102.5 147h72l-123 -418h-1178l15 66q31 2 82 8.5t69 13.5q35 13 53.5 39t25.5 61l238 1030q2 8 3.5 18t1.5 19q0 20 -8.5 36t-30.5 27q-24 13 -68 23t-69 12l15 66h1098z" />
    <glyph glyph-name="F" unicode="F" horiz-adv-x="1227" 
d="M1404 1419l-82 -355h-75q-4 107 -45.5 185.5t-101.5 87.5q-31 4 -72.5 6t-95.5 2h-243l-133 -577h163q58 0 106 12.5t93 52.5q23 21 51.5 68t45.5 100h76l-128 -557h-76q1 12 2.5 28t1.5 35q0 28 -4 64t-15 54q-27 41 -70 54t-102 13h-163l-114 -497q-2 -8 -3 -16.5
t-1 -16.5q0 -22 9 -38.5t31 -29.5q16 -8 63 -17t77 -11l-16 -66h-618l16 66q31 2 80 6.5t67 11.5q35 14 53 39.5t26 60.5l239 1034q2 10 3.5 19.5t1.5 19.5q0 20 -7.5 34.5t-31.5 26.5q-22 12 -65 22t-72 13l16 66h1113z" />
    <glyph glyph-name="G" unicode="G" horiz-adv-x="1485" 
d="M667 -33q-120 0 -223 38t-180 112t-120.5 180t-43.5 243q0 193 67.5 358.5t184.5 289.5q115 123 272 193.5t331 70.5q138 0 236.5 -31.5t154.5 -69.5l56 68h80l-105 -496h-82q-2 83 -14 163t-50 144q-39 65 -107 103t-190 38q-123 0 -232.5 -63.5t-192.5 -178.5
q-81 -111 -127.5 -267t-46.5 -334q0 -222 105 -350t290 -128q88 0 153 26t103 58q14 41 26.5 86.5t27.5 111.5l19 86l4.5 26t2.5 28q0 25 -6.5 41t-31.5 27q-29 15 -84.5 22.5t-85.5 9.5l15 68h623l-15 -68q-26 -3 -67.5 -9.5t-69.5 -18.5q-36 -16 -53.5 -43t-26.5 -64
l-26 -115q-23 -95 -32 -142t-16 -89l-117.5 -47t-128.5 -39q-70 -18 -134.5 -28t-142.5 -10z" />
    <glyph glyph-name="H" unicode="H" horiz-adv-x="1669" 
d="M1771 1419l-15 -66q-28 -1 -70 -9t-64 -15q-39 -13 -56 -41t-25 -60l-238 -1033q-2 -8 -3 -18t-1 -17q0 -21 9 -37t29 -29q15 -9 54.5 -18t67.5 -10l-15 -66h-589l15 66q25 2 71 6t65 12q35 13 54 38t27 62l118 512h-667l-115 -501q-2 -8 -3 -17t-1 -17q0 -20 9.5 -38
t28.5 -29q15 -9 54.5 -18t67.5 -10l-15 -66h-589l15 66q25 2 71 6t65 12q35 13 54 38t27 62l239 1034q2 8 3 16.5t1 17.5q0 22 -8.5 38t-30.5 28q-24 13 -60 23t-64 12l15 66h589l-15 -66q-28 -1 -70 -9t-64 -15q-39 -13 -56 -41t-25 -60l-102 -447h667l100 437q2 8 3 16.5
t1 16.5q0 22 -8.5 38.5t-30.5 28.5q-24 13 -60 23t-64 12l15 66h589z" />
    <glyph glyph-name="I" unicode="I" horiz-adv-x="798" 
d="M922 1419l-15 -66q-31 -1 -81 -9t-74 -15q-42 -13 -60 -40t-26 -59l-240 -1037q-2 -7 -3 -16t-1 -16q0 -23 10 -39t36 -28q15 -7 66 -16.5t76 -11.5l-15 -66h-639l15 66l80 6t74 12q39 14 59 38.5t27 59.5l239 1038q2 9 3 18t1 18q0 20 -8.5 35t-35.5 27t-73.5 22.5
t-68.5 12.5l15 66h639z" />
    <glyph glyph-name="J" unicode="J" horiz-adv-x="1060" 
d="M1209 1419l-15 -66q-29 -1 -72 -7.5t-74 -16.5q-39 -13 -55.5 -39t-25.5 -62l-190 -846q-15 -67 -56.5 -141.5t-106.5 -133.5q-69 -63 -155 -102t-201 -39q-140 0 -224 70t-84 194q0 99 49.5 173t129.5 74q60 0 85 -29t25 -68q0 -35 -17 -72t-44 -72q-24 -31 -53 -64.5
t-45 -56.5q15 -30 56 -54t122 -24q73 0 126.5 33.5t88.5 89.5t60.5 132t46.5 170l170 756q1 5 2.5 15t1.5 18q0 21 -9 38t-31 29q-26 16 -76 24.5t-74 10.5l15 66h630z" />
    <glyph glyph-name="K" unicode="K" horiz-adv-x="1422" 
d="M1597 1419l-15 -66q-5 0 -38 -3.5t-65 -10.5q-40 -9 -77.5 -24.5t-70.5 -44.5l-282 -251.5t-283 -241.5l171.5 -275l159.5 -268q28 -48 62.5 -85t66.5 -55q22 -13 62 -20t65 -8l-17 -66h-361q-80 173 -176 341t-210 333h-55l-111 -479q-2 -8 -3 -16.5t-1 -17.5
q0 -24 7 -39t32 -28q13 -7 57.5 -17t67.5 -11l-15 -66h-589l15 66q25 2 69 6t64 12q36 14 54.5 39.5t25.5 60.5l239 1034q2 9 3 18t1 18q0 22 -9 38t-29 26q-18 10 -54.5 20.5t-66.5 14.5l15 66h589l-15 -66q-28 -1 -72 -9t-66 -15q-37 -12 -55 -40.5t-26 -60.5l-116 -505
h20q143 101 282 221t227 210q54 55 82.5 92.5t28.5 61.5q0 18 -34.5 30t-100.5 15l15 66h532z" />
    <glyph glyph-name="L" unicode="L" horiz-adv-x="1236" 
d="M1211 422l-127 -422h-1109l15 66q25 2 71 7t67 13q36 14 54.5 40.5t25.5 61.5l237 1026q2 9 3.5 18.5t1.5 18.5q0 20 -8.5 36.5t-30.5 28.5q-20 12 -58.5 23t-65.5 14l15 66h599l-15 -66q-23 -1 -66.5 -8.5t-76.5 -17.5q-39 -13 -57 -42t-26 -61l-222 -963
q-8 -35 -12.5 -61.5t-4.5 -43.5q0 -55 44.5 -69t162.5 -14q66 0 150.5 11.5t117.5 41.5q51 45 128.5 139.5t115.5 156.5h71z" />
    <glyph glyph-name="M" unicode="M" horiz-adv-x="1899" 
d="M2008 1419l-15 -66q-29 -1 -74 -9t-67 -15q-39 -13 -56 -41t-25 -60l-239 -1033q-2 -8 -3 -18t-1 -16q0 -21 9 -37.5t30 -29.5q14 -9 59.5 -18t71.5 -10l-16 -66h-625l16 66q36 2 90 7.5t76 16.5q35 19 56.5 44t28.5 61l245 1057h-11l-775 -1229h-47l-178 1254h-10
l-201 -872q-12 -53 -20 -103t-8 -81q0 -33 7 -56.5t20 -38.5q18 -21 76 -38t91 -22l-16 -66h-573l16 66q47 5 94 14t87 34q40 27 68 88t57 192l170 736q5 23 7.5 41.5t2.5 36.5q0 32 -8 53.5t-21 36.5q-26 29 -70.5 41t-81.5 14l15 66h478l155 -1067l552 893q31 51 57 105
t30 69h476z" />
    <glyph glyph-name="N" unicode="N" horiz-adv-x="1571" 
d="M1759 1419l-16 -66q-27 -1 -89 -16t-90 -31q-43 -25 -70.5 -95.5t-53.5 -180.5l-241 -1044h-90l-582 1198l-178 -774q-12 -52 -20 -105t-8 -86q0 -35 7 -56.5t19 -35.5q17 -21 85 -40t90 -21l-15 -66h-582l15 66q33 3 97 19.5t85 31.5q40 27 68 87.5t58 194.5l159 688
q7 33 10 56.5t3 43.5q0 24 -5.5 45.5t-25.5 45.5q-35 40 -85.5 55.5t-90.5 19.5l16 66h407l540 -1109l163 707q12 53 20 103.5t8 86.5q0 33 -6.5 55.5t-19.5 33.5q-24 21 -81 36.5t-94 20.5l16 66h577z" />
    <glyph glyph-name="O" unicode="O" horiz-adv-x="1496" 
d="M1477 873q0 -190 -70 -357.5t-183 -286.5q-116 -122 -264.5 -192.5t-307.5 -70.5q-248 0 -400 161t-152 413q0 194 70 360.5t182 287.5q113 123 263.5 194t309.5 71q244 0 398 -157.5t154 -422.5zM1095 339q71 124 109 280t38 312q0 200 -85 319t-250 119
q-128 0 -238 -76t-192 -223q-71 -129 -106.5 -284t-35.5 -292q0 -210 86.5 -327t247.5 -117q137 0 246 82t180 207z" />
    <glyph glyph-name="P" unicode="P" horiz-adv-x="1249" 
d="M1312 1133q0 -121 -53.5 -216t-137.5 -158q-88 -66 -197 -99.5t-228 -33.5h-173l-102 -438q-2 -9 -3 -19t-1 -17q0 -22 8 -39t32 -27q15 -7 60.5 -13t81.5 -7l-15 -66h-609l15 66q25 2 71 7t67 13q36 14 54.5 40.5t25.5 61.5l239 1034q2 9 3.5 20t1.5 21q0 21 -8 38
t-30 26q-32 12 -68 18t-66 8l15 66h631q171 0 278.5 -76.5t107.5 -209.5zM992 862q41 59 58 125.5t17 124.5q0 46 -12.5 87t-42.5 74q-30 32 -77 50.5t-118 18.5h-130l-145 -634h113q116 0 200 38.5t137 115.5z" />
    <glyph glyph-name="Q" unicode="Q" horiz-adv-x="1496" 
d="M1477 873q0 -190 -70 -357.5t-183 -286.5q-76 -80 -169.5 -138.5t-193.5 -89.5q-4 -14 -5 -35t-1 -37q0 -102 55 -158t136 -56q85 0 130.5 7.5t72.5 14.5l-17 -75q-61 -19 -146.5 -33.5t-164.5 -14.5q-141 0 -218 75t-77 221q0 11 1 29t3 29q-237 8 -383.5 165
t-146.5 407q0 194 70 360.5t182 287.5q113 123 263.5 194t309.5 71q244 0 398 -157.5t154 -422.5zM1242 931q0 200 -85 319t-250 119q-128 0 -238 -76t-192 -223q-71 -129 -106.5 -284t-35.5 -292q0 -210 86.5 -327t247.5 -117q137 0 246 82t180 207q71 124 109 280t38 312z
" />
    <glyph glyph-name="R" unicode="R" horiz-adv-x="1437" 
d="M1370 66l-16 -66h-359q-85 202 -160.5 345.5l-159.5 300.5h-148l-106 -458q-2 -8 -3.5 -19t-1.5 -16q0 -23 8.5 -40t30.5 -27q14 -6 59.5 -12.5t75.5 -7.5l-16 -66h-600l16 66q25 2 71 7t66 13q36 14 55 40.5t26 61.5l239 1036q2 10 3.5 20.5t1.5 20.5q0 21 -8 37t-30 25
q-21 8 -61 16t-66 10l15 66h638q86 0 157 -17t119 -47q53 -32 83.5 -84t30.5 -123q0 -94 -35 -171.5t-95 -132.5q-63 -57 -143 -94.5t-176 -59.5l127 -239l115 -217q34 -65 61 -93.5t57 -45.5q25 -14 65 -21t64 -8zM1084 1127q0 102 -62.5 159t-175.5 57h-159l-141 -616h142
q164 0 280 114.5t116 285.5z" />
    <glyph glyph-name="S" unicode="S" horiz-adv-x="1149" 
d="M493 -29q-123 0 -215.5 30.5t-149.5 70.5l-57 -73h-80l98 486h81q5 -87 23.5 -163t60.5 -137q42 -63 109 -97.5t166 -34.5q149 0 239 82.5t90 225.5q0 77 -38 137t-114 93q-72 31 -142.5 55.5t-138.5 57.5q-90 43 -145 123.5t-55 181.5q0 96 42.5 177t112.5 140
q68 57 164.5 91t191.5 34q89 0 168.5 -21t159.5 -79l55 68h80l-101 -471h-81q-3 77 -15.5 159t-42.5 136q-33 59 -92 92.5t-157 33.5q-118 0 -198 -81.5t-80 -193.5q0 -74 29.5 -125.5t91.5 -83.5q66 -34 138.5 -58.5t129.5 -51.5q115 -54 179.5 -130t64.5 -186
q0 -106 -46 -198t-123 -154q-81 -66 -181.5 -101t-221.5 -35z" />
    <glyph glyph-name="T" unicode="T" horiz-adv-x="1267" 
d="M1455 1419l-89 -385h-69q-1 35 -9.5 89t-24.5 97q-17 46 -44.5 79t-65.5 39q-30 4 -76.5 6t-86.5 2h-63l-264 -1145q-2 -8 -3 -17.5t-1 -18.5q0 -24 9 -39.5t34 -27.5q20 -8 72.5 -19.5t85.5 -12.5l-16 -66h-670l16 66q30 2 87 8t83 15q40 15 60 41t28 62l266 1154h-53
q-30 0 -75 -1.5t-92 -6.5q-33 -4 -77 -39.5t-88 -83.5q-42 -47 -76 -95.5t-53 -85.5h-70l89 385h1236z" />
    <glyph glyph-name="U" unicode="U" horiz-adv-x="1549" 
d="M659 -34q-210 0 -328.5 89t-118.5 237q0 21 2.5 39.5t7.5 42.5l195 844q2 8 3 17t1 17q0 20 -9 37.5t-29 30.5q-22 14 -59 22t-62 11l16 66h590l-16 -66q-28 -1 -72 -9t-66 -15q-39 -13 -56 -41t-25 -60l-182 -789q-6 -26 -10.5 -58t-4.5 -62q0 -52 11 -90.5t48 -77.5
q31 -34 86.5 -55.5t139.5 -21.5q114 0 195 35.5t135 88.5q51 51 83.5 113t45.5 119q36 144 67 280.5l66 298.5q17 80 23.5 130t6.5 82q0 29 -6 46.5t-21 30.5q-29 25 -87 38.5t-88 16.5l16 66h580l-16 -66q-27 -1 -85 -12.5t-94 -32.5q-41 -24 -72.5 -105.5t-51.5 -170.5
l-63.5 -288.5t-74.5 -315.5q-35 -139 -105.5 -229.5t-158.5 -141.5q-85 -49 -176 -70t-181 -21z" />
    <glyph glyph-name="V" unicode="V" horiz-adv-x="1365" 
d="M1614 1419l-15 -66q-26 -1 -65 -11t-68 -26q-43 -24 -69.5 -56t-55.5 -76l-317.5 -498l-439.5 -704h-83l-103.5 731.5t-72.5 504.5q-5 33 -19.5 55.5t-42.5 43.5q-23 17 -54 25.5t-58 10.5l15 66h575l-15 -66q-106 -5 -149.5 -20.5t-43.5 -45.5q0 -10 1 -21.5t1 -16.5
l45 -323.5l91 -634.5l283.5 450l208.5 341q60 100 73.5 141t13.5 51q0 20 -19 34t-48 23q-29 10 -64 15t-60 7l15 66h540z" />
    <glyph glyph-name="W" unicode="W" horiz-adv-x="1998" 
d="M2232 1419l-15 -66q-25 -1 -61 -11.5t-67 -27.5q-41 -23 -69 -53t-56 -82l-279.5 -523l-362.5 -674h-89l-116 1094l-621 -1094h-88l-39 765.5l-24 470.5q-2 32 -12 54t-39 45q-21 17 -53.5 25.5t-58.5 10.5l15 66h571l-15 -66q-119 -7 -159.5 -25.5t-40.5 -44.5
q0 -20 1 -59t3 -80q3 -69 14.5 -278.5l28.5 -527.5l596 1061h92l119 -1084l218 424.5l166 333.5q44 91 61.5 138t17.5 66q0 32 -45.5 51.5t-131.5 24.5l15 66h524z" />
    <glyph glyph-name="X" unicode="X" horiz-adv-x="1455" 
d="M1614 1419l-15 -66q-26 -1 -65.5 -7t-70.5 -19q-58 -25 -88 -53l-88 -85l-210 -212.5l-208 -214.5l111.5 -248.5l124.5 -279.5q20 -45 50 -88t52 -58q20 -14 61 -17.5t68 -4.5l-15 -66h-639l15 66q59 1 129.5 13.5t70.5 49.5q0 27 -14.5 74.5t-32.5 91.5l-62.5 152
l-73.5 171l-172 -180l-172 -189q-42 -48 -64.5 -80t-22.5 -47q0 -35 47.5 -45t108.5 -11l-15 -66h-534l15 66q26 2 66.5 7.5t69.5 18.5q57 27 97.5 61.5t79.5 75.5l218.5 225l238.5 248l-103.5 232l-113.5 254q-30 67 -46 93t-55 46q-19 10 -61.5 17t-67.5 9l15 66h632
l-15 -66q-85 -3 -142 -17.5t-57 -43.5q0 -32 13.5 -71t36.5 -94l53.5 -128.5t69.5 -159.5l189.5 200t139.5 160q32 41 46 61.5t14 35.5q0 29 -47.5 42.5t-105.5 14.5l15 66h529z" />
    <glyph glyph-name="Y" unicode="Y" horiz-adv-x="1260" 
d="M1517 1419l-16 -66q-18 -1 -56 -12.5t-60 -25.5q-44 -23 -61.5 -36.5t-69.5 -68.5q-95 -100 -202 -234l-224 -280q-52 -64 -72.5 -103.5t-38.5 -113.5l-63 -276q-2 -8 -3 -18t-1 -17q0 -25 9 -42t34 -29q22 -10 73.5 -20t81.5 -11l-15 -66h-664l15 66q29 2 85 7t82 15
q40 15 59.5 41.5t27.5 63.5l72 311l6 30t3 18q0 24 -9 62.5t-22 81.5l-72.5 247t-76.5 240q-19 55 -38.5 85.5t-47.5 51.5q-20 15 -51.5 23t-58.5 10l16 66h582l-16 -66q-23 -1 -59 -3t-65 -6q-28 -4 -50.5 -15.5t-22.5 -29.5q0 -19 13 -65.5t41 -138.5l56.5 -179.5
l72.5 -226.5l260.5 321.5t154.5 200.5q31 43 37 55.5t6 21.5q0 34 -49 48t-123 17l16 66h504z" />
    <glyph glyph-name="Z" unicode="Z" horiz-adv-x="1232" 
d="M1387 1419l-8 -35l-1173 -1309h323q85 0 183.5 14t134.5 43q79 62 157 151t124 160h70l-150 -443h-1138l9 35l1173 1309h-313q-59 0 -95.5 -4t-72.5 -10q-71 -13 -177 -111.5t-174 -200.5h-70l136 401h1061z" />
    <glyph glyph-name="bracketleft" unicode="[" horiz-adv-x="768" 
d="M928 1519l-20 -86h-355l-382 -1656h355l-20 -87h-533l422 1829h533z" />
    <glyph glyph-name="backslash" unicode="\" horiz-adv-x="960" 
d="M700 -424h-130l-241 1947h132z" />
    <glyph glyph-name="bracketright" unicode="]" horiz-adv-x="768" 
d="M827 1519l-422 -1829h-533l20 87h355l382 1656h-355l20 86h533z" />
    <glyph glyph-name="asciicircum" unicode="^" horiz-adv-x="1317" 
d="M1175 796h-145l-321 524l-324 -524h-145l412 660h113z" />
    <glyph glyph-name="underscore" unicode="_" horiz-adv-x="1317" 
d="M1167 -183l-23 -96h-1327l23 96h1327z" />
    <glyph glyph-name="grave" unicode="`" 
d="M920 1142l-40 -32q-137 115 -187 154t-101 83q-31 28 -45.5 49t-14.5 54q0 35 23.5 61.5t65.5 26.5q39 0 62 -20t51 -68l78 -130z" />
    <glyph glyph-name="a" unicode="a" horiz-adv-x="1173" 
d="M696 132h-7q-22 -18 -52.5 -45.5t-71.5 -52.5q-39 -25 -85 -43.5t-100 -18.5q-145 0 -227.5 104t-82.5 284q0 124 46 241t127 210q77 89 183 143.5t218 54.5q71 0 135.5 -19t101.5 -43l183 47l12 -15l-152 -645q-8 -31 -16.5 -75.5t-8.5 -65.5q0 -57 24 -77t81 -20
q19 0 54 6t54 13l-15 -64q-90 -36 -134 -52t-107 -16q-72 0 -114 42t-46 107zM839 764q0 33 -7 63t-29 56q-20 25 -55 40t-88 15q-73 0 -142 -48t-124 -129q-52 -76 -85 -184t-33 -219q0 -61 7 -108t27 -86q19 -38 55 -59t91 -21q56 0 117.5 31.5t138.5 110.5z" />
    <glyph glyph-name="b" unicode="b" horiz-adv-x="1134" 
d="M1064 627q0 -133 -48 -254.5t-127 -209.5q-81 -90 -183 -141.5t-216 -51.5q-86 0 -151.5 14.5t-111.5 39.5q-47 26 -78 58.5t-56 72.5l258 1132l8.5 39.5t3.5 33.5q0 36 -12 55.5t-34 29.5q-21 9 -53 12t-65 7l14 61l371 23l10 -15l-152 -665h4q90 80 158.5 110.5
t133.5 30.5q152 0 239 -103.5t87 -278.5zM858 622q0 53 -9.5 106.5t-31.5 89.5q-23 38 -63 60t-99 22q-35 0 -66 -12t-64 -32q-29 -18 -56.5 -43.5l-50.5 -45.5l-133 -593q3 -20 18 -44t38 -42q28 -23 63 -35t77 -12q79 0 148.5 46.5t119.5 125.5q55 86 82 192t27 217z" />
    <glyph glyph-name="c" unicode="c" horiz-adv-x="929" 
d="M445 -28q-175 0 -276.5 102t-101.5 290q0 125 38.5 239.5t107.5 203.5t174.5 145.5t234.5 56.5q143 0 217.5 -60.5t74.5 -152.5q0 -69 -32.5 -121t-97.5 -52q-54 0 -81 27t-27 60q0 32 22 87.5l35 89.5q-11 27 -49 39.5t-79 12.5q-136 0 -234.5 -158.5t-98.5 -388.5
q0 -142 63.5 -225.5t171.5 -83.5q97 0 172.5 52t144.5 147l57 -42q-69 -109 -187.5 -188.5t-248.5 -79.5z" />
    <glyph glyph-name="d" unicode="d" horiz-adv-x="1178" 
d="M705 137h-7l-57 -49.5t-73 -53.5q-48 -30 -88.5 -46t-99.5 -16q-145 0 -227.5 104.5t-82.5 284.5q0 126 44.5 243t121.5 208q75 88 180.5 142.5t220.5 54.5q69 0 137 -18t112 -44l78 340q6 27 8.5 42t2.5 33q0 36 -14.5 55t-40.5 28q-24 9 -66 12t-76 7l14 61l405 23
l10 -15l-277 -1199q-8 -33 -16.5 -75.5t-8.5 -64.5q0 -57 24 -77.5t81 -20.5q19 0 54 6t54 13l-15 -64q-84 -38 -139 -53t-102 -15q-72 0 -114.5 37.5t-42.5 116.5zM846 774q-2 29 -15 56.5t-33 49.5q-23 25 -59.5 41.5t-86.5 16.5q-77 0 -145.5 -48t-120.5 -128
q-50 -77 -80 -185.5t-30 -217.5q0 -61 7 -108t27 -87q19 -37 54 -58.5t93 -21.5q55 0 119.5 33t143.5 115z" />
    <glyph glyph-name="e" unicode="e" horiz-adv-x="966" 
d="M926 801q0 -106 -66.5 -182t-193.5 -121q-93 -34 -188 -55t-210 -35q0 -158 58.5 -241.5t171.5 -83.5q100 0 176.5 50t150.5 149l57 -42q-80 -122 -200 -195t-249 -73q-177 0 -270.5 99t-93.5 281q0 126 39.5 240.5t115.5 209.5q74 93 181.5 150t237.5 57
q144 0 213.5 -58.5t69.5 -149.5zM742 826q0 39 -11 61.5t-28 33.5q-18 12 -38 15t-41 3q-120 0 -221.5 -132t-128.5 -329q70 10 158 28.5t146 48.5q83 43 123.5 110.5t40.5 160.5z" />
    <glyph glyph-name="f" unicode="f" horiz-adv-x="673" 
d="M495 886l-176 -826q-47 -222 -198 -363t-311 -141q-88 0 -129.5 33.5t-41.5 84.5q0 43 26 76t75 33q31 0 54.5 -14t41.5 -35q14 -17 31.5 -46l30.5 -50q77 6 131.5 104t94.5 280l184 864h-195l21 91h193l14 68q24 116 76 209t118 158q65 64 147.5 100.5t158.5 36.5
q88 0 129.5 -33.5t41.5 -84.5q0 -43 -24.5 -76t-76.5 -33q-31 0 -54 13.5t-41 35.5q-20 25 -32 47t-30 49q-69 -3 -122 -91t-96 -293l-22 -106h251l-21 -91h-249z" />
    <glyph glyph-name="g" unicode="g" horiz-adv-x="1173" 
d="M709 135l-7 2l-56.5 -45t-76.5 -51q-46 -27 -93 -44t-104 -17q-145 0 -223.5 102.5t-78.5 282.5q0 124 45.5 241t124.5 208q76 88 182 141.5t222 53.5q72 0 136 -18.5t103 -43.5l183 47l12 -15l-168 -788q-38 -179 -97.5 -302.5t-137.5 -195.5q-80 -74 -176.5 -105.5
t-218.5 -31.5q-83 0 -135.5 13t-82.5 34t-40.5 47.5t-10.5 50.5q0 45 27 75.5t74 30.5q37 0 63 -21.5t42 -46.5q17 -26 33 -62l24 -54h30q55 0 118 25t115 81q53 58 99 155.5t73 250.5zM843 774q0 28 -8.5 57.5t-31.5 54.5q-22 24 -56 38t-87 14q-77 0 -145.5 -46.5
t-123.5 -127.5q-51 -76 -83 -184t-32 -217q0 -59 8.5 -108.5t29.5 -86.5t55.5 -57.5t89.5 -20.5q70 0 139 40.5t131 103.5z" />
    <glyph glyph-name="h" unicode="h" horiz-adv-x="1152" 
d="M1094 116l-15 -64q-90 -36 -140 -52.5t-101 -16.5q-80 0 -120 41.5t-40 102.5q0 22 4 48.5t13 62.5l98 373q11 43 17.5 78t6.5 56q0 67 -32 106t-95 39q-64 0 -138.5 -41t-141.5 -115l-169 -734h-186l297 1287l8.5 39t3.5 34q0 36 -12 55.5t-34 29.5q-19 9 -52 12t-66 7
l14 61l371 23l10 -15l-160 -692h4q103 83 184 125.5t184 42.5q96 0 150 -55.5t54 -145.5q0 -18 -5.5 -64t-17.5 -91l-84 -321q-8 -32 -17 -73.5t-9 -64.5q0 -57 25 -77.5t82 -20.5q19 0 54.5 6.5t54.5 13.5z" />
    <glyph glyph-name="i" unicode="i" horiz-adv-x="609" 
d="M551 109l-15 -64q-92 -37 -147 -51.5t-94 -14.5q-80 0 -120 41.5t-40 102.5q0 23 4 48t13 63l106 425q8 35 15.5 75t7.5 68q0 56 -18.5 74.5t-75.5 18.5q-22 0 -58.5 -7t-55.5 -12l15 64q78 35 140 52t98 17q82 0 119 -39t37 -105q0 -18 -4 -49t-12 -62l-107 -425
q-10 -39 -17.5 -76.5t-7.5 -61.5q0 -57 25.5 -78t82.5 -21q19 0 54.5 5t54.5 12zM622 1387q0 -57 -37 -99.5t-92 -42.5q-51 0 -88 40.5t-37 92.5q0 55 37 96t88 41q57 0 93 -38.5t36 -89.5z" />
    <glyph glyph-name="j" unicode="j" horiz-adv-x="596" 
d="M497 865q0 -20 -4.5 -52t-10.5 -59l-69.5 -341t-78.5 -353q-53 -222 -198.5 -363t-309.5 -141q-88 0 -129.5 33.5t-41.5 84.5q0 43 26 76t75 33q31 0 54.5 -14t41.5 -35q14 -17 31.5 -46l30.5 -50q71 4 127.5 99.5t98.5 284.5l71.5 322.5t64.5 314.5q8 41 14 77.5t6 65.5
q0 56 -18.5 74.5t-75.5 18.5q-26 0 -65.5 -8.5t-57.5 -13.5l15 64q78 35 143.5 53.5t103.5 18.5q82 0 119 -39t37 -105zM631 1387q0 -57 -37 -99.5t-92 -42.5q-51 0 -88 40.5t-37 92.5q0 55 37 96t88 41q57 0 93 -38.5t36 -89.5z" />
    <glyph glyph-name="k" unicode="k" horiz-adv-x="1081" 
d="M1071 895q0 -44 -34.5 -81.5t-85.5 -37.5q-33 0 -65 9t-70 27q-55 -31 -113.5 -76.5t-127.5 -110.5l96.5 -242.5t67.5 -154.5q36 -75 79.5 -106.5t95.5 -31.5q24 0 66 7.5t65 15.5l-15 -66q-93 -38 -146 -51t-107 -13q-64 0 -109.5 35.5t-87.5 128.5q-41 89 -73 175.5
l-63 163.5l-117 -100l-86 -386h-186l297 1287q7 31 9.5 43t2.5 30q0 36 -12 55.5t-34 29.5q-21 9 -53 12t-65 7l14 61l371 23l10 -15l-244 -1041h4q113 122 205.5 211.5l193.5 182.5q72 66 114 90.5t90 24.5q51 0 82 -28.5t31 -77.5z" />
    <glyph glyph-name="l" unicode="l" horiz-adv-x="584" 
d="M600 1533l-279 -1204q-9 -38 -17 -76t-8 -62q0 -57 25.5 -78t82.5 -21q20 0 59.5 5t59.5 12l-15 -64q-90 -36 -138.5 -51t-109.5 -15q-80 0 -121.5 41.5t-41.5 102.5q0 23 4.5 48t12.5 63l243 1053q7 31 9.5 43t2.5 30q0 36 -12 55.5t-34 29.5q-21 9 -53 12t-65 7l14 61
l371 23z" />
    <glyph glyph-name="m" unicode="m" horiz-adv-x="1801" 
d="M1743 113l-15 -64q-92 -37 -147 -51.5t-94 -14.5q-80 0 -120 41.5t-40 102.5q0 22 4 48.5t13 62.5l98 373q11 43 17.5 78t6.5 56q0 67 -29 106t-92 39q-67 0 -131.5 -31.5t-145.5 -117.5l-174 -741h-186l157 668q5 22 9.5 46.5t4.5 36.5q0 65 -32.5 102t-95.5 37
q-57 0 -126 -28.5t-160 -127.5l-169 -734h-186l149 648q8 35 15.5 75t7.5 68q0 58 -19 76.5t-74 18.5q-22 0 -56.5 -8t-53.5 -13l15 64q78 35 138 52t103 17q80 0 113.5 -43.5t35.5 -118.5h6q118 93 194 133t181 40q89 0 144.5 -51.5t62.5 -129.5h4q107 89 190.5 135
t194.5 46q96 0 147.5 -55.5t51.5 -145.5q0 -18 -5.5 -64t-17.5 -91l-84 -321q-9 -32 -17 -73.5t-8 -64.5q0 -57 24 -77.5t81 -20.5q19 0 55 5t55 12z" />
    <glyph glyph-name="n" unicode="n" horiz-adv-x="1208" 
d="M1149 116l-15 -64q-90 -36 -140 -52.5t-101 -16.5q-80 0 -120 41.5t-40 102.5q0 22 4 48.5t13 62.5l98 373q11 43 17.5 78t6.5 56q0 67 -32 106t-95 39q-61 0 -137 -40t-143 -116l-169 -734h-186l149 648l14.5 69.5t9.5 73.5q0 56 -19 75t-76 19q-22 0 -56 -7.5
t-53 -12.5l15 64q78 35 138 52t103 17q79 0 113 -43t36 -119h6q110 88 190 130.5t182 42.5q96 0 150 -55.5t54 -145.5q0 -18 -5.5 -64t-17.5 -91l-84 -321q-9 -32 -17.5 -73.5t-8.5 -64.5q0 -57 25 -77.5t82 -20.5q19 0 54.5 6.5t54.5 13.5z" />
    <glyph glyph-name="o" unicode="o" horiz-adv-x="1100" 
d="M1033 616q0 -118 -40 -236t-116 -207q-77 -92 -185.5 -147.5t-251.5 -55.5q-166 0 -269.5 107t-103.5 288q0 133 44 248t118 202q75 87 185.5 140.5t239.5 53.5q178 0 278.5 -108.5t100.5 -284.5zM829 654q0 142 -50.5 213t-145.5 71q-83 0 -156.5 -51t-126.5 -166
q-41 -87 -60 -193.5t-19 -196.5q0 -143 49.5 -216.5t149.5 -73.5q89 0 158 56t112 142q43 84 66 192.5t23 222.5z" />
    <glyph glyph-name="p" unicode="p" horiz-adv-x="1184" 
d="M1114 627q0 -134 -47 -254t-125 -208q-87 -97 -188.5 -144t-208.5 -47q-86 0 -141 21t-98 52l-58 -262q-6 -25 -9.5 -47t-3.5 -35q0 -27 19.5 -43t44.5 -23q25 -8 56 -12t56 -6l-14 -63h-551l14 63q32 2 60 5t53 10q31 9 49.5 33.5t26.5 60.5l209 920q8 38 15 76.5
t7 66.5q0 56 -17.5 75t-75.5 19q-22 0 -56 -8.5l-53 -13.5l15 64q76 34 137 52.5t104 18.5q70 0 106 -35.5t45 -98.5h8q68 63 145.5 104t154.5 41q152 0 236.5 -103.5t84.5 -278.5zM802 214q51 82 78.5 186.5t27.5 221.5q0 53 -9.5 106.5t-30.5 88.5q-22 39 -60 60.5
t-100 21.5q-46 0 -101.5 -28t-135.5 -105l-128 -567q7 -57 61.5 -106.5t131.5 -49.5q79 0 148 46t118 125z" />
    <glyph glyph-name="q" unicode="q" horiz-adv-x="1137" 
d="M704 139h-7q-25 -21 -51.5 -46.5t-74.5 -55.5q-40 -27 -88 -46t-102 -19q-145 0 -228 104t-83 284q0 124 46.5 241t127.5 210q78 89 184.5 143.5t218.5 54.5q71 0 137.5 -19t103.5 -43l179 47l12 -15l-271 -1193q-6 -25 -9.5 -47t-3.5 -36q0 -27 18.5 -43t42.5 -23
q23 -8 52.5 -12t52.5 -6l-14 -63h-551l14 63q32 2 65 5t58 10q31 9 49.5 33.5t26.5 60.5zM846 764q0 32 -8 62.5t-30 56.5q-21 25 -56.5 40t-88.5 15q-73 0 -142.5 -48t-124.5 -129q-54 -80 -87 -185.5t-33 -217.5q0 -58 7.5 -108t27.5 -87q19 -37 53.5 -58.5t91.5 -21.5
q68 0 133 41.5t135 110.5z" />
    <glyph glyph-name="r" unicode="r" horiz-adv-x="945" 
d="M954 846q0 -28 -8 -61.5t-23 -55.5q-18 -27 -39.5 -41.5t-61.5 -14.5q-54 0 -81 27t-27 60q0 31 15 69.5l31 76.5q-12 0 -39.5 -6.5t-66.5 -25.5t-88.5 -57t-105.5 -101l-161 -716h-186l146 648l14.5 72t9.5 71q0 56 -19 75t-76 19q-22 0 -56 -7.5t-53 -12.5l15 64
q78 35 138 52t103 17q80 0 114 -43.5t34 -130.5h6q119 103 180.5 144t128.5 41q32 0 62 -8t51 -27q22 -21 32.5 -48.5t10.5 -79.5z" />
    <glyph glyph-name="s" unicode="s" horiz-adv-x="883" 
d="M362 -29q-148 0 -246.5 52.5t-98.5 137.5q0 40 29 75t71 35q40 0 64.5 -18.5t38.5 -43.5q15 -26 26.5 -62l19.5 -59q15 -17 41.5 -31.5t76.5 -14.5q108 0 163.5 54t55.5 146q0 68 -52 108.5t-155 74.5q-37 12 -87 36.5t-80 52.5q-36 32 -58 76t-22 104q0 128 114.5 221.5
t281.5 93.5q39 0 84 -4t99 -22q47 -16 80 -47.5t33 -81.5q0 -41 -27.5 -74.5t-72.5 -33.5q-37 0 -61 16t-40 43t-26 58t-22 61q-19 8 -34 11t-40 3q-98 0 -148.5 -52.5t-50.5 -124.5q0 -70 45.5 -105.5t150.5 -73.5q136 -49 197.5 -112t61.5 -156q0 -152 -117 -247.5
t-295 -95.5z" />
    <glyph glyph-name="t" unicode="t" horiz-adv-x="711" 
d="M303 -21q-95 0 -139 38.5t-44 110.5q0 23 3 43.5t8 46.5l155 668h-178l21 91h182l70 293h180l-68 -293h279l-21 -91h-277l-128 -551q-9 -38 -15 -73.5t-6 -60.5q0 -55 27.5 -80.5t99.5 -25.5q26 0 73 6.5t73 16.5l-17 -73q-70 -27 -132 -46.5t-146 -19.5z" />
    <glyph glyph-name="u" unicode="u" horiz-adv-x="1178" 
d="M707 140h-6l-88 -68t-83 -52q-48 -24 -87 -34.5t-102 -10.5q-96 0 -149 55.5t-53 145.5q0 24 4 57t19 98l78 317q10 44 16.5 78t6.5 65q0 56 -18.5 74.5t-75.5 18.5q-22 0 -56 -8t-53 -13l15 64q78 35 137.5 53t95.5 18q80 0 117.5 -37.5t37.5 -106.5q0 -18 -4 -49
t-12 -62l-89 -370q-10 -42 -16.5 -78.5t-6.5 -55.5q0 -67 29 -106t92 -39q64 0 131.5 33.5t135.5 101.5l175 753l174 12l12 -15l-149 -644q-10 -41 -18 -82.5t-8 -58.5q0 -57 24.5 -77.5t81.5 -20.5q19 0 54 6t54 13l-15 -64q-83 -34 -138.5 -51t-102.5 -17q-81 0 -120.5 47
t-39.5 110z" />
    <glyph glyph-name="v" unicode="v" horiz-adv-x="1102" 
d="M1039 824q0 -152 -46 -308.5t-126 -273.5q-81 -121 -193 -196.5t-246 -75.5q-131 0 -209 72.5t-78 194.5q0 23 5.5 52l7.5 39l87 320q10 39 17.5 76.5t7.5 65.5q0 56 -19.5 75t-76.5 19q-21 0 -57 -9t-54 -14l15 64q78 35 138.5 54t96.5 19q80 0 118.5 -37t38.5 -107
q0 -20 -3.5 -48.5t-12.5 -62.5l-96 -373q-10 -38 -15 -73t-5 -45q0 -52 16.5 -84.5t41.5 -50.5q24 -17 52.5 -24t58.5 -7q68 0 140.5 43t126.5 112q59 75 95 167.5t36 204.5q0 60 -16.5 92.5t-36.5 56.5q-20 25 -36.5 52.5t-16.5 77.5q0 57 38 87t80 30q59 0 92.5 -47.5
t33.5 -137.5z" />
    <glyph glyph-name="w" unicode="w" horiz-adv-x="1684" 
d="M1621 824q0 -157 -45 -311t-123 -271q-87 -130 -197 -201t-239 -71q-94 0 -173.5 52t-106.5 143l-66.5 -65t-79.5 -62t-89.5 -49t-103.5 -17q-76 0 -125.5 23.5t-79.5 61.5q-28 36 -40 81.5t-12 95.5q0 19 4.5 48t9.5 50l85 316q12 45 17.5 82t5.5 61q0 56 -18.5 74.5
t-75.5 18.5q-22 0 -56 -8t-53 -13l15 64q78 35 137.5 53t95.5 18q80 0 117.5 -37.5t37.5 -106.5q0 -18 -4 -49t-12 -62l-93 -369q-9 -37 -15 -76t-6 -58q0 -75 30 -113.5t101 -38.5q63 0 132 34.5t126 100.5l177 759l174 12l12 -15l-141 -609q-7 -30 -14.5 -73.5t-7.5 -54.5
q0 -55 17.5 -87t44.5 -47q26 -15 54 -18.5t54 -3.5q68 0 139.5 43t124.5 112q59 77 93 170.5t34 201.5q0 60 -16.5 92.5t-36.5 56.5q-20 25 -36.5 52.5t-16.5 77.5q0 57 38 87t80 30q59 0 92.5 -47.5t33.5 -137.5z" />
    <glyph glyph-name="x" unicode="x" horiz-adv-x="1026" 
d="M1069 899q-1 -58 -42.5 -85.5t-90.5 -27.5q-30 0 -68 10.5t-60 17.5q-45 -40 -104.5 -118t-112.5 -172q24 -95 43 -162.5t41 -135.5q19 -61 59.5 -97.5t106.5 -36.5q24 0 66 6.5t65 14.5l-18 -66q-96 -40 -144.5 -52t-104.5 -12q-70 0 -115.5 32t-73.5 132
q-20 73 -32.5 122.5l-24.5 98.5l-76 -117.5t-100 -133.5q-61 -74 -112 -105t-104 -31q-47 0 -77.5 27.5t-30.5 76.5q0 47 36 80.5t99 33.5q32 0 62.5 -11.5t63.5 -21.5q38 36 100.5 112t116.5 173l-41.5 156t-42.5 149q-26 81 -60 104t-87 23q-29 0 -61.5 -8t-60.5 -16
l19 66q77 32 138.5 52.5t83.5 20.5q69 0 114.5 -33.5t72.5 -129.5q31 -111 36.5 -135.5l21.5 -96.5q48 74 78 125t98 135q63 79 116.5 108.5t102.5 29.5q44 0 74.5 -28.5t29.5 -73.5z" />
    <glyph glyph-name="y" unicode="y" horiz-adv-x="1146" 
d="M717 145h-6q-92 -77 -175 -121t-189 -44q-96 0 -152 55.5t-56 145.5q0 24 4 57t19 98l78 312q11 45 17 78.5t6 64.5q0 56 -18.5 74.5t-75.5 18.5q-22 0 -56 -8t-53 -13l15 64q78 35 137.5 53t95.5 18q80 0 118.5 -36t38.5 -108q0 -18 -4 -49t-12 -62l-91 -365
q-10 -42 -17 -78.5t-7 -55.5q0 -67 32.5 -106t95.5 -39q73 0 142.5 36t130.5 99l166 748l173 12l12 -15l-172 -783q-38 -172 -97 -294t-138 -197q-83 -79 -179 -114t-219 -35q-85 0 -135 12t-79 33q-29 20 -39 45t-10 50q0 43 26 76t75 33q37 0 63 -21t42 -46q18 -27 33 -61
l24 -54h24q57 0 120.5 28t116.5 87q57 64 102.5 165t72.5 242z" />
    <glyph glyph-name="z" unicode="z" horiz-adv-x="909" 
d="M934 979l-13 -59l-714 -841q36 -1 78 -1.5t92 -0.5q39 0 82 1.5t109 4.5q40 2 65.5 28t42.5 58q15 26 43 81.5t46 97.5h60l-68 -348h-784l16 70l703 830h-131q-87 0 -137 -3t-94 -20q-33 -12 -68 -69t-66 -132h-61l59 303h740z" />
    <glyph glyph-name="braceleft" unicode="{" horiz-adv-x="881" 
d="M689 1463q61 37 149 55.5t207 18.5l-19 -77q-44 -2 -95 -10.5t-90 -28.5q-45 -23 -75.5 -67.5t-47.5 -115.5l-51 -224q-25 -108 -67 -177.5t-100 -111.5q-55 -40 -122 -63t-147 -37l-7 -31q57 -11 108.5 -29.5t84.5 -44.5q38 -30 58 -71.5t20 -112.5q0 -48 -13.5 -114.5
t-26.5 -117.5q-15 -56 -28 -117t-13 -98q0 -48 19.5 -76t49.5 -42t67 -20t82 -9l-19 -75q-202 0 -289 59.5t-87 183.5q0 51 14.5 110t33.5 128q15 54 31.5 120.5t16.5 102.5q0 83 -59 126t-202 52l30 125q69 6 134.5 20.5t107.5 42.5q47 30 79 75.5t48 119.5q13 59 22 127.5
t17 117.5q19 109 65 177t114 109z" />
    <glyph glyph-name="bar" unicode="|" horiz-adv-x="768" 
d="M475 -424h-127v1947h127v-1947z" />
    <glyph glyph-name="braceright" unicode="}" horiz-adv-x="881" 
d="M838 655l-30 -125q-173 -13 -257 -73t-112 -185q-12 -49 -21 -121t-18 -124q-20 -108 -64.5 -177t-114.5 -110q-72 -41 -160 -57t-196 -16l19 77q40 3 95.5 11.5t89.5 27.5q44 24 75.5 67.5t47.5 115.5l51 224q25 111 67.5 178.5t99.5 110.5q54 41 125.5 63t143.5 37
l7 31q-57 12 -108 29.5t-85 44.5q-38 30 -58 71.5t-20 112.5q0 53 14.5 118.5t26.5 113.5l28.5 120.5t11.5 94.5q0 47 -19 75t-50 43t-70 20.5t-79 8.5l19 75q201 0 288.5 -58.5t87.5 -184.5q0 -49 -16.5 -118t-31.5 -120q-16 -53 -32 -120.5t-16 -102.5q0 -85 59.5 -126.5
t201.5 -51.5z" />
    <glyph glyph-name="asciitilde" unicode="~" horiz-adv-x="1317" 
d="M1212 714q-14 -37 -46.5 -92.5t-72.5 -95.5q-49 -49 -103.5 -77.5t-118.5 -28.5q-72 0 -132 21.5t-110 46.5q-51 26 -100.5 47t-99.5 21q-69 0 -114.5 -50.5t-81.5 -125.5l-78 31q13 38 46.5 92t73.5 96q39 42 99.5 74t121.5 32q74 0 133.5 -21.5t110.5 -46.5l98.5 -47.5
t99.5 -20.5q71 0 117.5 52.5t78.5 123.5z" />
    <glyph glyph-name="Adieresis" unicode="&#xc4;" horiz-adv-x="1374" 
d="M875 576l-89 554l-340 -554h429zM722 0l15 66q31 3 72.5 8.5t64.5 12.5q31 10 46.5 21t15.5 34q0 8 -12 98l-34 253h-498q-33 -52 -70 -120.5l-57 -104.5q-18 -32 -34.5 -71.5t-16.5 -52.5q0 -33 53 -53t133 -25l-15 -66h-545l15 66q26 2 67.5 11.5t69.5 25.5
q35 20 67.5 49.5t69.5 88.5l379.5 610l363.5 588h80l189 -1229q6 -37 20 -62.5t42 -47.5q20 -14 54 -23.5t60 -10.5l-15 -66h-580zM1255 1730q0 -51 -34.5 -87t-83.5 -36t-83.5 36t-34.5 87t34.5 87t83.5 36t83.5 -36t34.5 -87zM805 1730q0 -51 -34.5 -87t-83.5 -36
t-83.5 36t-34.5 87t34.5 87t83.5 36t83.5 -36t34.5 -87z" />
    <glyph glyph-name="Aring" unicode="&#xc5;" horiz-adv-x="1374" 
d="M875 576l-89 554l-340 -554h429zM722 0l15 66q31 3 72.5 8.5t64.5 12.5q31 10 46.5 21t15.5 34q0 8 -12 98l-34 253h-498q-33 -52 -70 -120.5l-57 -104.5q-18 -32 -34.5 -71.5t-16.5 -52.5q0 -33 53 -53t133 -25l-15 -66h-545l15 66q26 2 67.5 11.5t69.5 25.5
q35 20 67.5 49.5t69.5 88.5l375 602.5l358 580.5q-96 6 -149 53t-53 128q0 109 86 186t214 77q100 0 161 -51.5t61 -134.5q0 -88 -61 -160.5t-168 -92.5l188 -1219q6 -37 20 -62.5t42 -47.5q20 -14 54 -23.5t60 -10.5l-15 -66h-580zM1053 1682q0 52 -25 89.5t-79 37.5
q-73 0 -116.5 -61t-43.5 -140q0 -55 25.5 -90.5t80.5 -35.5q70 0 114 57t44 143z" />
    <glyph glyph-name="Ccedilla" unicode="&#xc7;" horiz-adv-x="1315" 
d="M580 -30q-93 8 -177 45.5t-147 100.5q-73 74 -114.5 179t-41.5 237q0 189 64 353t176 293q108 124 259.5 199t316.5 75q125 0 219.5 -29t155.5 -72l56 68h80l-108 -506h-82v40q0 82 -13 156.5t-50 134.5q-36 58 -98.5 92.5t-159.5 34.5q-123 0 -228.5 -65.5
t-182.5 -174.5q-76 -106 -122 -261t-46 -316q0 -213 104.5 -345.5t280.5 -132.5q147 0 270.5 87t201.5 233l72 -38q-121 -207 -270.5 -296t-338.5 -94l-14 -67q102 0 154 -35.5t52 -91.5q0 -65 -37.5 -109.5t-97.5 -67.5q-56 -22 -131.5 -31.5t-169.5 -9.5l15 72
q42 0 94 1.5t87 10.5q41 10 65 28.5t24 57.5q0 32 -34.5 49.5t-119.5 17.5z" />
    <glyph glyph-name="Eacute" unicode="&#xc9;" horiz-adv-x="1338" 
d="M1388 1419l-79 -342h-75q-6 106 -44.5 178t-103.5 82q-30 4 -73 6t-97 2h-228l-131 -571h160q74 0 115 14.5t73 48.5q30 30 58 82.5t40 88.5h75l-128 -555h-74q0 11 1.5 26.5t1.5 33.5q0 37 -5 71t-14 50q-21 39 -60 51t-102 12h-160l-99 -433q-6 -24 -10 -52t-4 -44
q0 -55 39.5 -73t174.5 -18q168 0 228 12t89 35q57 46 133.5 147t102.5 147h72l-123 -418h-1178l15 66q31 2 82 8.5t69 13.5q35 13 53.5 39t25.5 61l238 1030q2 8 3.5 18t1.5 19q0 20 -8.5 36t-30.5 27q-24 13 -68 23t-69 12l15 66h1098zM1177 1796q0 -45 -28 -72.5
t-74 -49.5l-142 -65.5l-219 -101.5l-27 39l161 145.5l121 117.5q38 38 67 48.5t57 10.5q36 0 60 -20.5t24 -51.5z" />
    <glyph glyph-name="Ntilde" unicode="&#xd1;" horiz-adv-x="1571" 
d="M1759 1419l-16 -66q-27 -1 -89 -16t-90 -31q-43 -25 -70.5 -95.5t-53.5 -180.5l-241 -1044h-90l-582 1198l-178 -774q-12 -52 -20 -105t-8 -86q0 -35 7 -56.5t19 -35.5q17 -21 85 -40t90 -21l-15 -66h-582l15 66q33 3 97 19.5t85 31.5q40 27 68 87.5t58 194.5l159 688
q7 33 10 56.5t3 43.5q0 24 -5.5 45.5t-25.5 45.5q-35 40 -85.5 55.5t-90.5 19.5l16 66h407l540 -1109l163 707q12 53 20 103.5t8 86.5q0 33 -6.5 55.5t-19.5 33.5q-24 21 -81 36.5t-94 20.5l16 66h577zM1404 1840q-10 -38 -30 -78t-55 -79q-36 -39 -75.5 -62.5t-94.5 -23.5
q-56 0 -98.5 16.5t-74.5 34.5q-35 20 -67.5 36t-69.5 16q-52 0 -80.5 -36.5t-60.5 -99.5l-58 25q10 32 34 77t52 79q30 36 73 61.5t90 25.5q53 0 95 -16.5t76 -35.5l65.5 -36t62.5 -15q69 0 99.5 32.5t55.5 101.5z" />
    <glyph glyph-name="Odieresis" unicode="&#xd6;" horiz-adv-x="1524" 
d="M1477 873q0 -190 -70 -357.5t-183 -286.5q-116 -122 -264.5 -192.5t-307.5 -70.5q-248 0 -400 161t-152 413q0 194 70 360.5t182 287.5q113 123 263.5 194t309.5 71q244 0 398 -157.5t154 -422.5zM1095 339q71 124 109 280t38 312q0 200 -85 319t-250 119
q-128 0 -238 -76t-192 -223q-71 -129 -106.5 -284t-35.5 -292q0 -210 86.5 -327t247.5 -117q137 0 246 82t180 207zM1299 1730q0 -51 -34.5 -87t-83.5 -36t-83.5 36t-34.5 87t34.5 87t83.5 36t83.5 -36t34.5 -87zM849 1730q0 -51 -34.5 -87t-83.5 -36t-83.5 36t-34.5 87
t34.5 87t83.5 36t83.5 -36t34.5 -87z" />
    <glyph glyph-name="Udieresis" unicode="&#xdc;" horiz-adv-x="1549" 
d="M659 -34q-210 0 -328.5 89t-118.5 237q0 21 2.5 39.5t7.5 42.5l195 844q2 8 3 17t1 17q0 20 -9 37.5t-29 30.5q-22 14 -59 22t-62 11l16 66h590l-16 -66q-28 -1 -72 -9t-66 -15q-39 -13 -56 -41t-25 -60l-182 -789q-6 -26 -10.5 -58t-4.5 -62q0 -52 11 -90.5t48 -77.5
q31 -34 86.5 -55.5t139.5 -21.5q114 0 195 35.5t135 88.5q51 51 83.5 113t45.5 119q36 144 67 280.5l66 298.5q17 80 23.5 130t6.5 82q0 29 -6 46.5t-21 30.5q-29 25 -87 38.5t-88 16.5l16 66h580l-16 -66q-27 -1 -85 -12.5t-94 -32.5q-41 -24 -72.5 -105.5t-51.5 -170.5
l-63.5 -288.5t-74.5 -315.5q-35 -139 -105.5 -229.5t-158.5 -141.5q-85 -49 -176 -70t-181 -21zM1387 1730q0 -51 -34.5 -87t-83.5 -36t-83.5 36t-34.5 87t34.5 87t83.5 36t83.5 -36t34.5 -87zM937 1730q0 -51 -34.5 -87t-83.5 -36t-83.5 36t-34.5 87t34.5 87t83.5 36
t83.5 -36t34.5 -87z" />
    <glyph glyph-name="aacute" unicode="&#xe1;" horiz-adv-x="1173" 
d="M696 132h-7q-22 -18 -52.5 -45.5t-71.5 -52.5q-39 -25 -85 -43.5t-100 -18.5q-145 0 -227.5 104t-82.5 284q0 124 46 241t127 210q77 89 183 143.5t218 54.5q71 0 135.5 -19t101.5 -43l183 47l12 -15l-152 -645q-8 -31 -16.5 -75.5t-8.5 -65.5q0 -57 24 -77t81 -20
q19 0 54 6t54 13l-15 -64q-90 -36 -134 -52t-107 -16q-72 0 -114 42t-46 107zM839 764q0 33 -7 63t-29 56q-20 25 -55 40t-88 15q-73 0 -142 -48t-124 -129q-52 -76 -85 -184t-33 -219q0 -61 7 -108t27 -86q19 -38 55 -59t91 -21q56 0 117.5 31.5t138.5 110.5zM924 1466
q0 -40 -19 -64.5t-58 -54.5l-121.5 -89l-201.5 -148l-36 32q99 132 137.5 187l82.5 121q35 54 67.5 71t70.5 17q33 0 55.5 -22t22.5 -50z" />
    <glyph glyph-name="agrave" unicode="&#xe0;" horiz-adv-x="1173" 
d="M696 132h-7q-22 -18 -52.5 -45.5t-71.5 -52.5q-39 -25 -85 -43.5t-100 -18.5q-145 0 -227.5 104t-82.5 284q0 124 46 241t127 210q77 89 183 143.5t218 54.5q71 0 135.5 -19t101.5 -43l183 47l12 -15l-152 -645q-8 -31 -16.5 -75.5t-8.5 -65.5q0 -57 24 -77t81 -20
q19 0 54 6t54 13l-15 -64q-90 -36 -134 -52t-107 -16q-72 0 -114 42t-46 107zM839 764q0 33 -7 63t-29 56q-20 25 -55 40t-88 15q-73 0 -142 -48t-124 -129q-52 -76 -85 -184t-33 -219q0 -61 7 -108t27 -86q19 -38 55 -59t91 -21q56 0 117.5 31.5t138.5 110.5zM893 1142
l-40 -32q-137 115 -187 154t-101 83q-31 28 -45.5 49t-14.5 54q0 35 23.5 61.5t65.5 26.5q39 0 62 -20t51 -68l78 -130z" />
    <glyph glyph-name="acircumflex" unicode="&#xe2;" horiz-adv-x="1173" 
d="M696 132h-7q-22 -18 -52.5 -45.5t-71.5 -52.5q-39 -25 -85 -43.5t-100 -18.5q-145 0 -227.5 104t-82.5 284q0 124 46 241t127 210q77 89 183 143.5t218 54.5q71 0 135.5 -19t101.5 -43l183 47l12 -15l-152 -645q-8 -31 -16.5 -75.5t-8.5 -65.5q0 -57 24 -77t81 -20
q19 0 54 6t54 13l-15 -64q-90 -36 -134 -52t-107 -16q-72 0 -114 42t-46 107zM839 764q0 33 -7 63t-29 56q-20 25 -55 40t-88 15q-73 0 -142 -48t-124 -129q-52 -76 -85 -184t-33 -219q0 -61 7 -108t27 -86q19 -38 55 -59t91 -21q56 0 117.5 31.5t138.5 110.5zM999 1150
l-49 -32l-224 273l-330 -273l-47 32l303 347q19 23 38.5 34t58.5 11q38 0 53 -10.5t25 -30.5z" />
    <glyph glyph-name="adieresis" unicode="&#xe4;" horiz-adv-x="1173" 
d="M696 132h-7q-22 -18 -52.5 -45.5t-71.5 -52.5q-39 -25 -85 -43.5t-100 -18.5q-145 0 -227.5 104t-82.5 284q0 124 46 241t127 210q77 89 183 143.5t218 54.5q71 0 135.5 -19t101.5 -43l183 47l12 -15l-152 -645q-8 -31 -16.5 -75.5t-8.5 -65.5q0 -57 24 -77t81 -20
q19 0 54 6t54 13l-15 -64q-90 -36 -134 -52t-107 -16q-72 0 -114 42t-46 107zM839 764q0 33 -7 63t-29 56q-20 25 -55 40t-88 15q-73 0 -142 -48t-124 -129q-52 -76 -85 -184t-33 -219q0 -61 7 -108t27 -86q19 -38 55 -59t91 -21q56 0 117.5 31.5t138.5 110.5zM1043 1364
q0 -51 -34.5 -87t-83.5 -36t-83.5 36t-34.5 87t34.5 87t83.5 36t83.5 -36t34.5 -87zM613 1364q0 -51 -34.5 -87t-83.5 -36t-83.5 36t-34.5 87t34.5 87t83.5 36t83.5 -36t34.5 -87z" />
    <glyph glyph-name="atilde" unicode="&#xe3;" horiz-adv-x="1173" 
d="M696 132h-7q-22 -18 -52.5 -45.5t-71.5 -52.5q-39 -25 -85 -43.5t-100 -18.5q-145 0 -227.5 104t-82.5 284q0 124 46 241t127 210q77 89 183 143.5t218 54.5q71 0 135.5 -19t101.5 -43l183 47l12 -15l-152 -645q-8 -31 -16.5 -75.5t-8.5 -65.5q0 -57 24 -77t81 -20
q19 0 54 6t54 13l-15 -64q-90 -36 -134 -52t-107 -16q-72 0 -114 42t-46 107zM839 764q0 33 -7 63t-29 56q-20 25 -55 40t-88 15q-73 0 -142 -48t-124 -129q-52 -76 -85 -184t-33 -219q0 -61 7 -108t27 -86q19 -38 55 -59t91 -21q56 0 117.5 31.5t138.5 110.5zM1087 1472
q-10 -38 -30 -78t-55 -79q-36 -39 -75.5 -62.5t-94.5 -23.5q-56 0 -98.5 16.5t-74.5 34.5q-35 20 -67.5 36t-69.5 16q-52 0 -80.5 -36.5t-60.5 -99.5l-58 25q10 32 34 77t52 79q30 36 73 61.5t90 25.5q53 0 95 -16.5t76 -35.5l65.5 -36t62.5 -15q69 0 99.5 32.5t55.5 101.5z
" />
    <glyph glyph-name="aring" unicode="&#xe5;" horiz-adv-x="1173" 
d="M696 132h-7q-22 -18 -52.5 -45.5t-71.5 -52.5q-39 -25 -85 -43.5t-100 -18.5q-145 0 -227.5 104t-82.5 284q0 124 46 241t127 210q77 89 183 143.5t218 54.5q71 0 135.5 -19t101.5 -43l183 47l12 -15l-152 -645q-8 -31 -16.5 -75.5t-8.5 -65.5q0 -57 24 -77t81 -20
q19 0 54 6t54 13l-15 -64q-90 -36 -134 -52t-107 -16q-72 0 -114 42t-46 107zM839 764q0 33 -7 63t-29 56q-20 25 -55 40t-88 15q-73 0 -142 -48t-124 -129q-52 -76 -85 -184t-33 -219q0 -61 7 -108t27 -86q19 -38 55 -59t91 -21q56 0 117.5 31.5t138.5 110.5zM972 1373
q0 -108 -83 -183.5t-215 -75.5q-104 0 -164 50t-60 132q0 109 86 186t214 77q100 0 161 -51.5t61 -134.5zM846 1373q0 52 -26.5 89.5t-80.5 37.5q-73 0 -118 -61t-45 -140q0 -55 27 -90.5t82 -35.5q74 0 117.5 59t43.5 141z" />
    <glyph glyph-name="ccedilla" unicode="&#xe7;" horiz-adv-x="929" 
d="M401 -25q-155 12 -244.5 113t-89.5 276q0 125 38.5 239.5t107.5 203.5t174.5 145.5t234.5 56.5q143 0 217.5 -60.5t74.5 -152.5q0 -69 -32.5 -121t-97.5 -52q-54 0 -81 27t-27 60q0 32 22 87.5l35 89.5q-11 27 -49 39.5t-79 12.5q-136 0 -234.5 -158.5t-98.5 -388.5
q0 -142 63.5 -225.5t171.5 -83.5q97 0 172.5 52t144.5 147l57 -42q-64 -101 -173 -178t-229 -87l-16 -74q102 0 154 -35.5t52 -91.5q0 -65 -37.5 -109.5t-97.5 -67.5q-56 -22 -131.5 -31.5t-169.5 -9.5l15 72q42 0 94 1.5t87 10.5q41 10 65 28.5t24 57.5q0 32 -34.5 49.5
t-119.5 17.5z" />
    <glyph glyph-name="eacute" unicode="&#xe9;" horiz-adv-x="966" 
d="M926 801q0 -106 -66.5 -182t-193.5 -121q-93 -34 -188 -55t-210 -35q0 -158 58.5 -241.5t171.5 -83.5q100 0 176.5 50t150.5 149l57 -42q-80 -122 -200 -195t-249 -73q-177 0 -270.5 99t-93.5 281q0 126 39.5 240.5t115.5 209.5q74 93 181.5 150t237.5 57
q144 0 213.5 -58.5t69.5 -149.5zM742 826q0 39 -11 61.5t-28 33.5q-18 12 -38 15t-41 3q-120 0 -221.5 -132t-128.5 -329q70 10 158 28.5t146 48.5q83 43 123.5 110.5t40.5 160.5zM904 1466q0 -40 -19 -64.5t-58 -54.5l-121.5 -89l-201.5 -148l-36 32q99 132 137.5 187
l82.5 121q35 54 67.5 71t70.5 17q33 0 55.5 -22t22.5 -50z" />
    <glyph glyph-name="egrave" unicode="&#xe8;" horiz-adv-x="966" 
d="M926 801q0 -106 -66.5 -182t-193.5 -121q-93 -34 -188 -55t-210 -35q0 -158 58.5 -241.5t171.5 -83.5q100 0 176.5 50t150.5 149l57 -42q-80 -122 -200 -195t-249 -73q-177 0 -270.5 99t-93.5 281q0 126 39.5 240.5t115.5 209.5q74 93 181.5 150t237.5 57
q144 0 213.5 -58.5t69.5 -149.5zM742 826q0 39 -11 61.5t-28 33.5q-18 12 -38 15t-41 3q-120 0 -221.5 -132t-128.5 -329q70 10 158 28.5t146 48.5q83 43 123.5 110.5t40.5 160.5zM820 1142l-40 -32q-137 115 -187 154t-101 83q-31 28 -45.5 49t-14.5 54q0 35 23.5 61.5
t65.5 26.5q39 0 62 -20t51 -68l78 -130z" />
    <glyph glyph-name="ecircumflex" unicode="&#xea;" horiz-adv-x="966" 
d="M926 801q0 -106 -66.5 -182t-193.5 -121q-93 -34 -188 -55t-210 -35q0 -158 58.5 -241.5t171.5 -83.5q100 0 176.5 50t150.5 149l57 -42q-80 -122 -200 -195t-249 -73q-177 0 -270.5 99t-93.5 281q0 126 39.5 240.5t115.5 209.5q74 93 181.5 150t237.5 57
q144 0 213.5 -58.5t69.5 -149.5zM742 826q0 39 -11 61.5t-28 33.5q-18 12 -38 15t-41 3q-120 0 -221.5 -132t-128.5 -329q70 10 158 28.5t146 48.5q83 43 123.5 110.5t40.5 160.5zM961 1150l-49 -32l-224 273l-330 -273l-47 32l303 347q19 23 38.5 34t58.5 11q38 0 53 -10.5
t25 -30.5z" />
    <glyph glyph-name="edieresis" unicode="&#xeb;" horiz-adv-x="966" 
d="M926 801q0 -106 -66.5 -182t-193.5 -121q-93 -34 -188 -55t-210 -35q0 -158 58.5 -241.5t171.5 -83.5q100 0 176.5 50t150.5 149l57 -42q-80 -122 -200 -195t-249 -73q-177 0 -270.5 99t-93.5 281q0 126 39.5 240.5t115.5 209.5q74 93 181.5 150t237.5 57
q144 0 213.5 -58.5t69.5 -149.5zM742 826q0 39 -11 61.5t-28 33.5q-18 12 -38 15t-41 3q-120 0 -221.5 -132t-128.5 -329q70 10 158 28.5t146 48.5q83 43 123.5 110.5t40.5 160.5zM995 1364q0 -51 -34.5 -87t-83.5 -36t-83.5 36t-34.5 87t34.5 87t83.5 36t83.5 -36t34.5 -87
zM565 1364q0 -51 -34.5 -87t-83.5 -36t-83.5 36t-34.5 87t34.5 87t83.5 36t83.5 -36t34.5 -87z" />
    <glyph glyph-name="iacute" unicode="&#xed;" horiz-adv-x="609" 
d="M551 109l-15 -64q-92 -37 -147 -51.5t-94 -14.5q-80 0 -120 41.5t-40 102.5q0 23 4 48t13 63l106 425q8 35 15.5 75t7.5 68q0 56 -18.5 74.5t-75.5 18.5q-22 0 -58.5 -7t-55.5 -12l15 64q78 35 140 52t98 17q82 0 119 -39t37 -105q0 -18 -4 -49t-12 -62l-107 -425
q-10 -39 -17.5 -76.5t-7.5 -61.5q0 -57 25.5 -78t82.5 -21q19 0 54.5 5t54.5 12zM664 1466q0 -40 -19 -64.5t-58 -54.5l-121.5 -89l-201.5 -148l-36 32q99 132 137.5 187l82.5 121q35 54 67.5 71t70.5 17q33 0 55.5 -22t22.5 -50z" />
    <glyph glyph-name="igrave" unicode="&#xec;" horiz-adv-x="609" 
d="M551 109l-15 -64q-92 -37 -147 -51.5t-94 -14.5q-80 0 -120 41.5t-40 102.5q0 23 4 48t13 63l106 425q8 35 15.5 75t7.5 68q0 56 -18.5 74.5t-75.5 18.5q-22 0 -58.5 -7t-55.5 -12l15 64q78 35 140 52t98 17q82 0 119 -39t37 -105q0 -18 -4 -49t-12 -62l-107 -425
q-10 -39 -17.5 -76.5t-7.5 -61.5q0 -57 25.5 -78t82.5 -21q19 0 54.5 5t54.5 12zM590 1142l-40 -32q-137 115 -187 154t-101 83q-31 28 -45.5 49t-14.5 54q0 35 23.5 61.5t65.5 26.5q39 0 62 -20t51 -68l78 -130z" />
    <glyph glyph-name="icircumflex" unicode="&#xee;" horiz-adv-x="609" 
d="M551 109l-15 -64q-92 -37 -147 -51.5t-94 -14.5q-80 0 -120 41.5t-40 102.5q0 23 4 48t13 63l106 425q8 35 15.5 75t7.5 68q0 56 -18.5 74.5t-75.5 18.5q-22 0 -58.5 -7t-55.5 -12l15 64q78 35 140 52t98 17q82 0 119 -39t37 -105q0 -18 -4 -49t-12 -62l-107 -425
q-10 -39 -17.5 -76.5t-7.5 -61.5q0 -57 25.5 -78t82.5 -21q19 0 54.5 5t54.5 12zM638 1150l-51 -29l-192 270l-292 -270l-45 29l263 343q13 19 34 34t64 15q44 0 58 -16t18 -29z" />
    <glyph glyph-name="idieresis" unicode="&#xef;" horiz-adv-x="609" 
d="M551 109l-15 -64q-92 -37 -147 -51.5t-94 -14.5q-80 0 -120 41.5t-40 102.5q0 23 4 48t13 63l106 425q8 35 15.5 75t7.5 68q0 56 -18.5 74.5t-75.5 18.5q-22 0 -58.5 -7t-55.5 -12l15 64q78 35 140 52t98 17q82 0 119 -39t37 -105q0 -18 -4 -49t-12 -62l-107 -425
q-10 -39 -17.5 -76.5t-7.5 -61.5q0 -57 25.5 -78t82.5 -21q19 0 54.5 5t54.5 12zM705 1364q0 -51 -33 -87t-82 -36t-82 36t-33 87t33 87t82 36t82 -36t33 -87zM355 1364q0 -51 -33 -87t-82 -36t-82 36t-33 87t33 87t82 36t82 -36t33 -87z" />
    <glyph glyph-name="ntilde" unicode="&#xf1;" horiz-adv-x="1208" 
d="M1149 116l-15 -64q-90 -36 -140 -52.5t-101 -16.5q-80 0 -120 41.5t-40 102.5q0 22 4 48.5t13 62.5l98 373q11 43 17.5 78t6.5 56q0 67 -32 106t-95 39q-61 0 -137 -40t-143 -116l-169 -734h-186l149 648l14.5 69.5t9.5 73.5q0 56 -19 75t-76 19q-22 0 -56 -7.5
t-53 -12.5l15 64q78 35 138 52t103 17q79 0 113 -43t36 -119h6q110 88 190 130.5t182 42.5q96 0 150 -55.5t54 -145.5q0 -18 -5.5 -64t-17.5 -91l-84 -321q-9 -32 -17.5 -73.5t-8.5 -64.5q0 -57 25 -77.5t82 -20.5q19 0 54.5 6.5t54.5 13.5zM1099 1472q-10 -38 -30 -78
t-55 -79q-36 -39 -75.5 -62.5t-94.5 -23.5q-56 0 -98.5 16.5t-74.5 34.5q-35 20 -67.5 36t-69.5 16q-52 0 -80.5 -36.5t-60.5 -99.5l-58 25q10 32 34 77t52 79q30 36 73 61.5t90 25.5q53 0 95 -16.5t76 -35.5l65.5 -36t62.5 -15q69 0 99.5 32.5t55.5 101.5z" />
    <glyph glyph-name="oacute" unicode="&#xf3;" horiz-adv-x="1100" 
d="M1033 616q0 -118 -40 -236t-116 -207q-77 -92 -185.5 -147.5t-251.5 -55.5q-166 0 -269.5 107t-103.5 288q0 133 44 248t118 202q75 87 185.5 140.5t239.5 53.5q178 0 278.5 -108.5t100.5 -284.5zM829 654q0 142 -50.5 213t-145.5 71q-83 0 -156.5 -51t-126.5 -166
q-41 -87 -60 -193.5t-19 -196.5q0 -143 49.5 -216.5t149.5 -73.5q89 0 158 56t112 142q43 84 66 192.5t23 222.5zM907 1466q0 -40 -19 -64.5t-58 -54.5l-121.5 -89l-201.5 -148l-36 32q99 132 137.5 187l82.5 121q35 54 67.5 71t70.5 17q33 0 55.5 -22t22.5 -50z" />
    <glyph glyph-name="ograve" unicode="&#xf2;" horiz-adv-x="1100" 
d="M1033 616q0 -118 -40 -236t-116 -207q-77 -92 -185.5 -147.5t-251.5 -55.5q-166 0 -269.5 107t-103.5 288q0 133 44 248t118 202q75 87 185.5 140.5t239.5 53.5q178 0 278.5 -108.5t100.5 -284.5zM829 654q0 142 -50.5 213t-145.5 71q-83 0 -156.5 -51t-126.5 -166
q-41 -87 -60 -193.5t-19 -196.5q0 -143 49.5 -216.5t149.5 -73.5q89 0 158 56t112 142q43 84 66 192.5t23 222.5zM865 1142l-40 -32q-137 115 -187 154t-101 83q-31 28 -45.5 49t-14.5 54q0 35 23.5 61.5t65.5 26.5q39 0 62 -20t51 -68l78 -130z" />
    <glyph glyph-name="ocircumflex" unicode="&#xf4;" horiz-adv-x="1100" 
d="M1033 616q0 -118 -40 -236t-116 -207q-77 -92 -185.5 -147.5t-251.5 -55.5q-166 0 -269.5 107t-103.5 288q0 133 44 248t118 202q75 87 185.5 140.5t239.5 53.5q178 0 278.5 -108.5t100.5 -284.5zM829 654q0 142 -50.5 213t-145.5 71q-83 0 -156.5 -51t-126.5 -166
q-41 -87 -60 -193.5t-19 -196.5q0 -143 49.5 -216.5t149.5 -73.5q89 0 158 56t112 142q43 84 66 192.5t23 222.5zM987 1150l-49 -32l-224 273l-330 -273l-47 32l303 347q19 23 38.5 34t58.5 11q38 0 53 -10.5t25 -30.5z" />
    <glyph glyph-name="odieresis" unicode="&#xf6;" horiz-adv-x="1100" 
d="M1033 616q0 -118 -40 -236t-116 -207q-77 -92 -185.5 -147.5t-251.5 -55.5q-166 0 -269.5 107t-103.5 288q0 133 44 248t118 202q75 87 185.5 140.5t239.5 53.5q178 0 278.5 -108.5t100.5 -284.5zM829 654q0 142 -50.5 213t-145.5 71q-83 0 -156.5 -51t-126.5 -166
q-41 -87 -60 -193.5t-19 -196.5q0 -143 49.5 -216.5t149.5 -73.5q89 0 158 56t112 142q43 84 66 192.5t23 222.5zM1032 1364q0 -51 -34.5 -87t-83.5 -36t-83.5 36t-34.5 87t34.5 87t83.5 36t83.5 -36t34.5 -87zM602 1364q0 -51 -34.5 -87t-83.5 -36t-83.5 36t-34.5 87
t34.5 87t83.5 36t83.5 -36t34.5 -87z" />
    <glyph glyph-name="otilde" unicode="&#xf5;" horiz-adv-x="1100" 
d="M1033 616q0 -118 -40 -236t-116 -207q-77 -92 -185.5 -147.5t-251.5 -55.5q-166 0 -269.5 107t-103.5 288q0 133 44 248t118 202q75 87 185.5 140.5t239.5 53.5q178 0 278.5 -108.5t100.5 -284.5zM829 654q0 142 -50.5 213t-145.5 71q-83 0 -156.5 -51t-126.5 -166
q-41 -87 -60 -193.5t-19 -196.5q0 -143 49.5 -216.5t149.5 -73.5q89 0 158 56t112 142q43 84 66 192.5t23 222.5zM1065 1472q-10 -38 -30 -78t-55 -79q-36 -39 -75.5 -62.5t-94.5 -23.5q-56 0 -98.5 16.5t-74.5 34.5q-35 20 -67.5 36t-69.5 16q-52 0 -80.5 -36.5
t-60.5 -99.5l-58 25q10 32 34 77t52 79q30 36 73 61.5t90 25.5q53 0 95 -16.5t76 -35.5l65.5 -36t62.5 -15q69 0 99.5 32.5t55.5 101.5z" />
    <glyph glyph-name="uacute" unicode="&#xfa;" horiz-adv-x="1178" 
d="M707 140h-6l-88 -68t-83 -52q-48 -24 -87 -34.5t-102 -10.5q-96 0 -149 55.5t-53 145.5q0 24 4 57t19 98l78 317q10 44 16.5 78t6.5 65q0 56 -18.5 74.5t-75.5 18.5q-22 0 -56 -8t-53 -13l15 64q78 35 137.5 53t95.5 18q80 0 117.5 -37.5t37.5 -106.5q0 -18 -4 -49
t-12 -62l-89 -370q-10 -42 -16.5 -78.5t-6.5 -55.5q0 -67 29 -106t92 -39q64 0 131.5 33.5t135.5 101.5l175 753l174 12l12 -15l-149 -644q-10 -41 -18 -82.5t-8 -58.5q0 -57 24.5 -77.5t81.5 -20.5q19 0 54 6t54 13l-15 -64q-83 -34 -138.5 -51t-102.5 -17q-81 0 -120.5 47
t-39.5 110zM964 1466q0 -40 -19 -64.5t-58 -54.5l-121.5 -89l-201.5 -148l-36 32q99 132 137.5 187l82.5 121q35 54 67.5 71t70.5 17q33 0 55.5 -22t22.5 -50z" />
    <glyph glyph-name="ugrave" unicode="&#xf9;" horiz-adv-x="1178" 
d="M707 140h-6l-88 -68t-83 -52q-48 -24 -87 -34.5t-102 -10.5q-96 0 -149 55.5t-53 145.5q0 24 4 57t19 98l78 317q10 44 16.5 78t6.5 65q0 56 -18.5 74.5t-75.5 18.5q-22 0 -56 -8t-53 -13l15 64q78 35 137.5 53t95.5 18q80 0 117.5 -37.5t37.5 -106.5q0 -18 -4 -49
t-12 -62l-89 -370q-10 -42 -16.5 -78.5t-6.5 -55.5q0 -67 29 -106t92 -39q64 0 131.5 33.5t135.5 101.5l175 753l174 12l12 -15l-149 -644q-10 -41 -18 -82.5t-8 -58.5q0 -57 24.5 -77.5t81.5 -20.5q19 0 54 6t54 13l-15 -64q-83 -34 -138.5 -51t-102.5 -17q-81 0 -120.5 47
t-39.5 110zM850 1142l-40 -32q-137 115 -187 154t-101 83q-31 28 -45.5 49t-14.5 54q0 35 23.5 61.5t65.5 26.5q39 0 62 -20t51 -68l78 -130z" />
    <glyph glyph-name="ucircumflex" unicode="&#xfb;" horiz-adv-x="1178" 
d="M707 140h-6l-88 -68t-83 -52q-48 -24 -87 -34.5t-102 -10.5q-96 0 -149 55.5t-53 145.5q0 24 4 57t19 98l78 317q10 44 16.5 78t6.5 65q0 56 -18.5 74.5t-75.5 18.5q-22 0 -56 -8t-53 -13l15 64q78 35 137.5 53t95.5 18q80 0 117.5 -37.5t37.5 -106.5q0 -18 -4 -49
t-12 -62l-89 -370q-10 -42 -16.5 -78.5t-6.5 -55.5q0 -67 29 -106t92 -39q64 0 131.5 33.5t135.5 101.5l175 753l174 12l12 -15l-149 -644q-10 -41 -18 -82.5t-8 -58.5q0 -57 24.5 -77.5t81.5 -20.5q19 0 54 6t54 13l-15 -64q-83 -34 -138.5 -51t-102.5 -17q-81 0 -120.5 47
t-39.5 110zM994 1150l-49 -32l-224 273l-330 -273l-47 32l303 347q19 23 38.5 34t58.5 11q38 0 53 -10.5t25 -30.5z" />
    <glyph glyph-name="udieresis" unicode="&#xfc;" horiz-adv-x="1178" 
d="M707 140h-6l-88 -68t-83 -52q-48 -24 -87 -34.5t-102 -10.5q-96 0 -149 55.5t-53 145.5q0 24 4 57t19 98l78 317q10 44 16.5 78t6.5 65q0 56 -18.5 74.5t-75.5 18.5q-22 0 -56 -8t-53 -13l15 64q78 35 137.5 53t95.5 18q80 0 117.5 -37.5t37.5 -106.5q0 -18 -4 -49
t-12 -62l-89 -370q-10 -42 -16.5 -78.5t-6.5 -55.5q0 -67 29 -106t92 -39q64 0 131.5 33.5t135.5 101.5l175 753l174 12l12 -15l-149 -644q-10 -41 -18 -82.5t-8 -58.5q0 -57 24.5 -77.5t81.5 -20.5q19 0 54 6t54 13l-15 -64q-83 -34 -138.5 -51t-102.5 -17q-81 0 -120.5 47
t-39.5 110zM1029 1364q0 -51 -34.5 -87t-83.5 -36t-83.5 36t-34.5 87t34.5 87t83.5 36t83.5 -36t34.5 -87zM599 1364q0 -51 -34.5 -87t-83.5 -36t-83.5 36t-34.5 87t34.5 87t83.5 36t83.5 -36t34.5 -87z" />
    <glyph glyph-name="dagger" unicode="&#x2020;" horiz-adv-x="967" 
d="M987 1068q0 -34 -21 -52.5t-54 -18.5q-28 0 -108 20.5t-178 28.5l-72 -445.5t-51 -305.5q-8 -30 -23 -45t-47 -15q-24 0 -47.5 16t-23.5 57q0 16 18 74l44 149l61.5 206.5l89.5 307.5q-97 -10 -173 -29t-102 -19q-33 0 -54 18t-21 53q0 37 21 54t54 17q25 0 85.5 -17
t198.5 -36q12 80 17 180.5t11 129.5q5 24 24.5 41.5t47.5 17.5q32 0 52.5 -18t20.5 -51q0 -30 -40 -109.5t-80 -189.5q104 12 177.5 32t97.5 20q33 0 54 -16.5t21 -54.5z" />
    <glyph glyph-name="degree" unicode="&#xb0;" horiz-adv-x="859" 
d="M830 1128q0 -137 -91.5 -231t-234.5 -94q-144 0 -234.5 95t-90.5 230q0 141 93 233t232 92q143 0 234.5 -94t91.5 -231zM682 1120q0 125 -49 191.5t-130 66.5q-82 0 -129 -67t-47 -180q0 -117 47 -185t133 -68q74 0 124.5 64.5t50.5 177.5z" />
    <glyph glyph-name="cent" unicode="&#xa2;" horiz-adv-x="1137" 
d="M1043 801q0 -61 -31 -110.5t-89 -49.5q-56 0 -81 24t-25 60q0 29 23.5 76t36.5 76q-9 21 -48 41t-81 25l-197 -852q8 0 19 -1t23 -1q100 0 178 41.5t165 156.5l61 -42q-35 -50 -86.5 -102.5t-106.5 -85.5q-64 -38 -128 -58t-150 -20l-63 -278h-92l68 284
q-163 22 -246 125.5t-83 258.5q0 120 37.5 229.5t111.5 202.5q72 90 177.5 148t239.5 65l59 261h92l-63 -262q132 -9 205.5 -70t73.5 -142zM660 944q-67 -10 -127.5 -53t-111.5 -116q-47 -69 -77 -169t-30 -209q0 -103 37 -180.5t115 -110.5z" />
    <glyph glyph-name="sterling" unicode="&#xa3;" horiz-adv-x="1274" 
d="M1266 1208q0 -63 -31.5 -118t-101.5 -55q-54 0 -82 24.5t-28 63.5q0 36 22.5 84.5l40.5 84.5q-6 36 -44 62.5t-103 26.5q-35 0 -77 -11t-89 -45q-46 -34 -81 -94t-52 -148q-14 -72 -30.5 -182t-31.5 -186h397l-20 -92h-392q-24 -135 -107 -250t-219 -187l-2 -14h866
l-39 -172h-1048l33 148q76 23 130 72t92 117q36 63 60 137.5t36 148.5h-173l20 92h168q4 40 14.5 121t19.5 133q39 209 190 348t355 139q142 0 224.5 -72.5t82.5 -175.5z" />
    <glyph glyph-name="section" unicode="&#xa7;" 
d="M956 1402q29 -22 40.5 -48t11.5 -52q0 -43 -30 -82t-87 -39q-31 0 -51.5 18t-33.5 46q-14 29 -21 62.5l-14 64.5q-13 4 -35.5 7t-44.5 3q-100 0 -176 -61t-76 -144q0 -33 17 -58.5t52 -49.5q29 -20 78 -45l118 -59q112 -56 169.5 -128t57.5 -155q0 -115 -91.5 -217.5
t-232.5 -151.5q80 -41 123 -98t43 -128q0 -137 -130.5 -241t-338.5 -104q-85 0 -141.5 18t-84.5 44q-29 27 -36 56t-3 54q6 35 36 68t83 33q31 0 51 -18.5t31 -45.5q11 -25 18.5 -56.5t14.5 -67.5q14 -5 34.5 -9t47.5 -4q103 0 180.5 63.5t77.5 152.5q0 56 -44.5 99
t-192.5 112q-129 61 -188 135t-59 165q0 118 80 210.5t234 153.5q-79 46 -121.5 98t-42.5 120q0 143 133.5 237t329.5 94q82 0 134 -15t80 -37zM768 626q0 38 -16 70t-47 59q-32 28 -77.5 53.5t-110.5 55.5q-118 -45 -173 -114.5t-55 -157.5q0 -43 16 -75t48 -60
q32 -27 77.5 -53t113.5 -59q123 62 173.5 131t50.5 150z" />
    <glyph glyph-name="bullet" unicode="&#x2022;" horiz-adv-x="804" 
d="M676 599q0 -109 -77.5 -186.5t-186.5 -77.5t-186.5 77.5t-77.5 186.5t77.5 186.5t186.5 77.5t186.5 -77.5t77.5 -186.5z" />
    <glyph glyph-name="paragraph" unicode="&#xb6;" 
d="M1135 1345h-111l-360 -1561h-103l360 1561h-160l-360 -1561h-103l212 917q-133 0 -224 77t-91 218q0 178 129 300.5t333 122.5h495z" />
    <glyph glyph-name="germandbls" unicode="&#xdf;" horiz-adv-x="1110" 
d="M1130 1316q0 -95 -38 -165t-91 -114q-56 -46 -114 -70t-104 -29l-3 -9q119 -32 191 -117.5t72 -216.5q0 -125 -48.5 -237t-125.5 -192q-78 -82 -177.5 -129.5t-203.5 -47.5q-30 0 -66.5 3.5t-56.5 7.5l18 81q24 -5 48.5 -8t43.5 -3q84 0 152.5 51.5t114.5 131.5
q46 81 71 181t25 202q0 117 -56 186t-165 69h-20l20 81h36q44 0 99 20t98 60q21 19 42 47t34 59q14 33 22 71.5t8 86.5q0 74 -36 116t-104 42q-125 0 -203.5 -105.5t-121.5 -308.5l-213 -1000q-25 -113 -76.5 -205.5t-121.5 -159.5q-70 -66 -150.5 -102.5t-159.5 -36.5
q-88 0 -129.5 33.5t-41.5 84.5q0 43 26 76t75 33q31 0 54.5 -14t41.5 -35q14 -17 31.5 -46l30.5 -50q76 2 134 109t92 275l210 984q25 120 75.5 227.5t143.5 188.5q79 68 164 98t166 30q127 0 207 -61t80 -173z" />
    <glyph glyph-name="registered" unicode="&#xae;" horiz-adv-x="1929" 
d="M1876 602q0 -366 -259.5 -624.5t-625.5 -258.5t-625 258.5t-259 624.5t259 624.5t625 258.5t625.5 -258.5t259.5 -624.5zM1777 602q0 327 -229 561t-557 234t-556.5 -234t-228.5 -561t228.5 -561t556.5 -234t557 234t229 561zM1569 145h-287q-95 134 -165 223.5
l-143 180.5h-105v-262q0 -22 8.5 -40.5t33.5 -27.5q11 -4 46 -9.5t53 -6.5v-58h-439v58q18 2 49 6t46 10q22 9 31.5 26t9.5 42v642q0 24 -7 41.5t-34 26.5q-21 7 -48 12.5t-47 7.5v58h492q56 0 110 -12t98 -38q43 -26 70 -68.5t27 -102.5q0 -109 -59.5 -171t-175.5 -94
l136.5 -166.5l99.5 -123.5q28 -35 55 -52t52 -25q20 -7 48 -12.5t45 -6.5v-58zM1182 834q0 83 -50 126t-147 43h-116v-378h87q104 0 165 55t61 154z" />
    <glyph glyph-name="copyright" unicode="&#xa9;" horiz-adv-x="1929" 
d="M1876 602q0 -366 -259.5 -624.5t-625.5 -258.5t-625 258.5t-259 624.5t259 624.5t625 258.5t625.5 -258.5t259.5 -624.5zM1777 602q0 327 -229 561t-557 234t-556.5 -234t-228.5 -561t228.5 -561t556.5 -234t557 234t229 561zM1402 404q-21 -52 -55.5 -106t-80.5 -93
q-52 -44 -111 -69t-146 -25q-107 0 -197.5 33t-156.5 97q-65 63 -100.5 152t-35.5 199q0 105 38 196t108 160q67 66 164.5 105t208.5 39q58 0 122.5 -20t96.5 -44l45 66h59l5 -363h-54q-20 60 -41.5 108.5t-59.5 91.5q-35 40 -86 64t-126 24q-120 0 -196.5 -111.5
t-76.5 -305.5q0 -183 92.5 -289.5t231.5 -106.5q101 0 172 53.5t122 169.5z" />
    <glyph glyph-name="trademark" unicode="&#x2122;" horiz-adv-x="1930" 
d="M2011 733h-346v52q16 0 45.5 2.5t39.5 7.5q16 11 22 18t6 22v451h-15l-244 -531h-32l-237 541h-15v-364q0 -53 6.5 -80.5t22.5 -41.5q13 -8 44 -16.5t54 -8.5v-52h-315v50q16 3 47.5 7.5t47.5 15.5q17 13 23 36t6 86v347q0 24 -7.5 40t-21.5 28q-15 12 -37.5 17.5
t-51.5 7.5v51h278l211 -472l176 387q11 25 16.5 47.5t8.5 37.5h268v-51q-17 -1 -43.5 -5t-37.5 -8q-15 -3 -19 -14t-4 -22v-484q0 -14 4 -22.5t19 -15.5q10 -3 34.5 -7.5t46.5 -4.5v-52zM931 1221h-48q-10 33 -40.5 82.5t-59.5 55.5q-22 2 -43 3t-35 1h-49v-524
q0 -14 4.5 -23.5t20.5 -16.5q10 -3 37 -8.5t50 -5.5v-52h-353v52q20 0 49 3.5t38 6.5q15 5 20 16t5 22v530h-49q-15 0 -40 -1.5t-38 -2.5q-31 -5 -60.5 -55.5t-39.5 -82.5h-48v198h679v-198z" />
    <glyph glyph-name="acute" unicode="&#xb4;" 
d="M904 1466q0 -40 -19 -64.5t-58 -54.5l-121.5 -89l-201.5 -148l-36 32q99 132 137.5 187l82.5 121q35 54 67.5 71t70.5 17q33 0 55.5 -22t22.5 -50z" />
    <glyph glyph-name="dieresis" unicode="&#xa8;" 
d="M1045 1364q0 -51 -34.5 -87t-83.5 -36t-83.5 36t-34.5 87t34.5 87t83.5 36t83.5 -36t34.5 -87zM615 1364q0 -51 -34.5 -87t-83.5 -36t-83.5 36t-34.5 87t34.5 87t83.5 36t83.5 -36t34.5 -87z" />
    <glyph glyph-name="notequal" unicode="&#x2260;" horiz-adv-x="1317" 
d="M1188 311h-517l-90 -311h-117l90 311h-375v125h412l71 247h-483v125h517l90 311h117l-90 -311h375v-125h-412l-70 -247h482v-125z" />
    <glyph glyph-name="AE" unicode="&#xc6;" horiz-adv-x="1988" 
d="M2038 1419l-79 -342h-75q-2 35 -10.5 79t-25.5 82t-44 65t-68 34q-30 4 -73 6t-97 2h-218l-131 -571h150q74 0 115 14.5t73 48.5q30 30 58 82.5t40 88.5h75l-128 -555h-74q0 11 1.5 26.5t1.5 33.5q0 37 -5 71t-14 50q-21 39 -60 51t-102 12h-150l-99 -433
q-5 -24 -9 -52.5t-4 -43.5q0 -60 42 -75.5t161 -15.5q156 0 221 11t96 36q57 46 133.5 147t102.5 147h72l-123 -418h-1168l15 66q31 2 82 8.5t69 13.5q35 13 53.5 39t25.5 61l96 416h-474l-109 -134t-148 -201q-21 -28 -38 -66.5t-17 -53.5q0 -38 37 -58t113 -25l-15 -66
h-536l15 66q32 4 70 14.5t69 26.5q37 19 75.5 53.5t77.5 83.5l429 533.5l436 553.5q-25 11 -77 15.5t-91 6.5l16 66h1241zM1133 1336h-69l-508 -648h428z" />
    <glyph glyph-name="Oslash" unicode="&#xd8;" horiz-adv-x="1524" 
d="M1477 873q0 -190 -70 -357.5t-183 -286.5q-116 -122 -264.5 -192.5t-307.5 -70.5q-126 0 -230 44.5t-176 123.5l-170 -166l-50 51l176 171q-50 72 -76 161.5t-26 188.5q0 194 70 360.5t182 287.5q113 123 263.5 194t309.5 71q121 0 222.5 -41.5t176.5 -120.5l139 136
l54 -50l-147 -143q52 -73 79.5 -164.5t27.5 -196.5zM1202 1172q-39 96 -113.5 147t-181.5 51q-123 0 -233.5 -72t-197.5 -226q-72 -129 -107.5 -285t-35.5 -293q0 -50 3 -85.5t11 -77.5zM1096 336q71 124 109.5 280.5t38.5 314.5q0 38 -4 86t-12 80l-857 -841
q36 -97 110 -152t188 -55q137 0 246.5 81.5t180.5 205.5z" />
    <glyph glyph-name="infinity" unicode="&#x221e;" horiz-adv-x="1468" 
d="M1417 564q0 -176 -100.5 -296.5t-239.5 -120.5q-98 0 -180 60.5t-149 180.5q-56 -123 -136 -181.5t-173 -58.5q-149 0 -243.5 114.5t-94.5 300.5q0 181 101 299t239 118q97 0 178.5 -59t150.5 -182q53 119 133.5 179.5t175.5 60.5q150 0 244 -115t94 -300zM1331 561
q0 112 -66.5 178t-174.5 66q-101 0 -174 -33t-111 -98q78 -185 144.5 -267t169.5 -82q99 0 155.5 67t56.5 169zM713 453q-79 189 -146.5 269t-167.5 80q-99 0 -155.5 -67t-56.5 -167q0 -113 67 -179.5t174 -66.5q97 0 173 34t112 97z" />
    <glyph glyph-name="plusminus" unicode="&#xb1;" horiz-adv-x="1317" 
d="M1193 0h-1019v125h446v402h-446v125h446v451h127v-451h446v-125h-446v-402h446v-125z" />
    <glyph glyph-name="lessequal" unicode="&#x2264;" horiz-adv-x="1317" 
d="M1161 201l-955 391v115l955 391v-138l-774 -310l774 -311v-138zM1161 0h-955v125h955v-125z" />
    <glyph glyph-name="greaterequal" unicode="&#x2265;" horiz-adv-x="1317" 
d="M1161 592l-955 -391v138l774 311l-774 310v138l955 -391v-115zM1161 0h-955v125h955v-125z" />
    <glyph glyph-name="yen" unicode="&#xa5;" horiz-adv-x="1259" 
d="M1480 1419l-15 -66q-18 -1 -56 -12.5t-60 -25.5q-42 -22 -60.5 -36t-67.5 -67q-149 -165 -239.5 -276.5l-236.5 -290.5l-20 -87h400l-22 -92h-399l-61 -264q-2 -8 -3.5 -18.5t-1.5 -20.5q0 -21 9.5 -38t29.5 -28q16 -9 64 -19t74 -12l-15 -66h-605l15 66q25 2 76.5 7
t73.5 14q34 14 53 38.5t28 66.5l63 274h-387l22 92h387l15 68q-46 170 -83 289l-88 270q-20 58 -38.5 85t-47.5 50q-20 15 -50.5 23t-57.5 10l15 66h560l-15 -66q-100 -5 -140 -16.5t-40 -36.5q0 -10 3.5 -27t12.5 -51q18 -66 57.5 -187.5l92.5 -287.5l178 221l131 164
q70 88 88.5 116t18.5 43q0 26 -32 41t-124 21l15 66h483z" />
    <glyph glyph-name="mu1" unicode="&#xb5;" horiz-adv-x="1161" 
d="M690 140h-6l-65 -53.5t-74 -51.5q-48 -27 -90.5 -41.5t-116.5 -14.5q-60 0 -106.5 27.5t-65.5 63.5h-6l-13 -68q-13 -55 -13.5 -105.5t-0.5 -101.5q0 -34 -1 -71.5t-8 -65.5q-11 -47 -47.5 -74.5t-75.5 -27.5q-33 0 -51.5 19t-18.5 54q0 39 47 156.5t65 170.5
q17 51 30 97.5t21 82.5l194 846l177 12l12 -12l-144 -628q-13 -54 -15.5 -81.5t-2.5 -41.5q0 -68 35 -102.5t91 -34.5q73 0 150.5 45.5t114.5 90.5l174 752l176 12l12 -12l-150 -647q-7 -29 -16 -76.5t-9 -65.5q0 -57 24 -77t81 -20q19 0 54 6t54 13l-15 -64
q-83 -34 -138.5 -51t-102.5 -17q-81 0 -120.5 47t-39.5 110z" />
    <glyph glyph-name="partialdiff" unicode="&#x2202;" horiz-adv-x="1180" 
d="M753 238q42 74 73.5 169.5t42.5 161.5q-3 45 -16 83.5t-43 72.5q-29 33 -71 52t-100 19q-130 0 -230.5 -141.5t-100.5 -330.5q0 -58 8.5 -105.5t31.5 -87.5q22 -37 59.5 -60t92.5 -23q78 0 142.5 54t110.5 136zM484 1329q1 -20 5 -49.5t3 -59.5q-1 -54 -25.5 -86
t-88.5 -32q-53 0 -79.5 32.5t-26.5 75.5q0 39 24.5 81t67.5 78q45 38 115.5 62.5t159.5 24.5q125 0 213.5 -46t146.5 -124q57 -77 83.5 -177.5t26.5 -210.5q0 -137 -36 -302t-110 -298q-93 -167 -210.5 -248.5t-253.5 -81.5q-185 0 -286 115t-101 302q0 208 143.5 368
t317.5 160q123 0 202.5 -46.5t124.5 -134.5q5 44 7.5 87t2.5 100q0 86 -14.5 175t-42.5 147q-31 64 -84 100t-132 36q-54 0 -91.5 -15t-61.5 -33z" />
    <glyph glyph-name="summation" unicode="&#x2211;" horiz-adv-x="1444" 
d="M68 1419h1190l43 -401h-70q-44 109 -125 203.5t-148 108.5q-30 6 -78 8t-98 2h-434l580 -761v-27l-659 -787h797q53 0 98 25.5t79 65.5q36 42 64 94t46 96l67 -21l-118 -439h-1246v49l696 839l-684 900v45z" />
    <glyph glyph-name="product" unicode="&#x220f;" horiz-adv-x="1709" 
d="M1651 1419v-90h-205v-1543q0 -35 11.5 -59t45.5 -42q17 -9 60.5 -18t68.5 -10v-71h-589v71q24 2 69.5 6.5t62.5 11.5q30 12 44 36.5t14 63.5v1554h-687v-1543q0 -35 11.5 -59t45.5 -42q17 -9 60.5 -18t68.5 -10v-71h-589v71q24 2 69.5 6.5t62.5 11.5q30 12 44 36.5
t14 63.5v1554h-200v90h1518z" />
    <glyph glyph-name="pi1" horiz-adv-x="1211" 
d="M1305 1039q-49 -76 -103 -143t-73 -74h-219q-36 -111 -76 -298t-40 -255t21 -98t61 -30q55 0 94 46.5t63 140.5h69q-43 -175 -120 -261.5t-181 -86.5q-80 0 -121.5 49t-41.5 139q0 86 49.5 284.5t101.5 369.5h-234l-20.5 -82t-35.5 -129q-67 -234 -127 -372t-104 -194
q-32 -41 -60 -54t-62 -13q-35 0 -55.5 19t-20.5 49q0 57 39.5 96t110.5 67q66 67 129.5 238.5t116.5 374.5h-15q-79 0 -135.5 -25.5t-94.5 -67.5q-36 -40 -56.5 -91t-32.5 -91h-55q-1 86 23.5 162.5t80.5 137.5q53 58 143.5 96t204.5 38h494q36 0 74.5 2t62.5 10q26 8 51 25
t46 46z" />
    <glyph glyph-name="integral" unicode="&#x222b;" horiz-adv-x="1023" 
d="M445 955q0 161 25.5 278t85.5 188q49 58 119 93t134 35q62 0 103 -16.5t65 -38.5q27 -25 39 -52.5t12 -55.5q0 -39 -23.5 -65.5t-69.5 -26.5q-72 0 -96.5 51.5t-24.5 126.5q-6 1 -8.5 1.5t-4.5 1.5t-7 1h-13q-46 0 -76 -32t-48 -87q-18 -54 -23.5 -128.5t-5.5 -141.5
v-937q0 -152 -22.5 -270.5t-88.5 -195.5q-53 -62 -118.5 -95t-134.5 -33q-60 0 -100.5 15t-67.5 40q-25 23 -38 51.5t-13 56.5q0 35 23 63.5t70 28.5q66 0 93.5 -47t27.5 -131q5 -1 8.5 -2t5.5 -1t5.5 -0.5t13.5 -0.5q48 0 78 33.5t46 85.5q17 57 23 122.5t6 152.5v932z" />
    <glyph glyph-name="ordfeminine" unicode="&#xaa;" 
d="M663 739h-6q-15 -14 -44.5 -39t-55.5 -40q-37 -22 -69.5 -34.5t-81.5 -12.5q-122 0 -189 84.5t-67 229.5q0 106 41 200.5t105 165.5q65 72 154.5 116t184.5 44q52 0 104.5 -13.5t90.5 -36.5l146 38l18 -12l-134 -518q-8 -29 -14.5 -64t-6.5 -51q0 -47 20 -62.5t68 -15.5
q18 0 47 7t44 12l-14 -60q-75 -29 -112.5 -42t-89.5 -13q-61 0 -98.5 33t-40.5 84zM785 1254q0 27 -4 49.5t-21 44.5q-15 19 -42 30.5t-69 11.5q-58 0 -116 -38t-104 -104q-43 -62 -70.5 -148.5t-27.5 -173.5q0 -53 4 -87.5t21 -67.5q14 -28 42 -44.5t73 -16.5q61 0 116 41
t86 74z" />
    <glyph glyph-name="ordmasculine" unicode="&#xba;" 
d="M1000 1133q0 -97 -36.5 -194t-100.5 -169q-68 -77 -160 -120.5t-200 -43.5q-139 0 -229 90.5t-90 237.5q0 102 37.5 196.5t103.5 167.5q65 71 156 113t196 42q152 0 237.5 -90.5t85.5 -229.5zM818 1166q0 103 -40 160.5t-117 57.5q-73 0 -135 -49t-96 -131
q-32 -69 -48 -152.5t-16 -151.5q0 -97 39 -161t122 -64q65 0 120 44t93 116q38 73 58 158t20 173z" />
    <glyph glyph-name="Ohm" unicode="&#x2126;" horiz-adv-x="1595" 
d="M1566 366l-202 -366h-570l16 68q120 125 204.5 222.5t145.5 194.5q68 113 100.5 223.5t32.5 285.5q0 68 -16.5 137.5t-53.5 120.5q-38 53 -102 85t-155 32q-133 0 -240.5 -69t-180.5 -213q-58 -114 -84 -249.5t-26 -250.5q0 -134 36.5 -252.5t111.5 -266.5l-16 -68h-556
l-34 385h66q6 -37 15.5 -69.5t30.5 -68.5q19 -32 45.5 -52.5t64.5 -20.5h231l8 38l-90 129.5t-74 124.5q-31 61 -48 128t-17 150q0 137 56.5 265t161.5 229q102 97 245.5 156t311.5 59q243 0 396 -132.5t153 -335.5q0 -123 -35.5 -224.5t-99.5 -189.5q-63 -87 -152 -174
t-205 -185l-8 -38h213q63 0 136 65t127 149z" />
    <glyph glyph-name="ae" unicode="&#xe6;" horiz-adv-x="1565" 
d="M1525 801q0 -100 -57 -172t-203 -124q-94 -34 -188 -50.5t-210 -26.5q0 -183 56.5 -264t173.5 -81q100 0 176.5 50t150.5 149l57 -42q-80 -122 -200 -195t-249 -73q-132 0 -211 54t-117 142h-6q-62 -66 -116.5 -104t-109.5 -58q-54 -20 -99 -26t-91 -6q-108 0 -172 55
t-64 147q0 108 64 191.5t208 134.5q134 46 213.5 60l178.5 30l22 90.5t15 95.5q0 24 -7 52t-25 52t-48.5 40t-78.5 16q-50 0 -102 -19t-72 -32q0 -21 -0.5 -62t-6.5 -70q-9 -39 -44.5 -65t-93.5 -26q-41 0 -60 24.5t-19 59.5q0 54 41.5 102t102.5 83q55 32 130 54t143 22
q54 0 97 -4t83 -18q41 -14 70.5 -37t49.5 -65q66 54 153.5 89t181.5 35q144 0 213.5 -58.5t69.5 -149.5zM1341 826q0 39 -11 61.5t-28 33.5q-18 12 -38 15t-41 3q-116 0 -220 -129.5t-130 -310.5q82 7 163.5 20t140.5 44q83 43 123.5 106.5t40.5 156.5zM687 510
q-80 -7 -157 -27t-140 -56q-61 -34 -100.5 -90t-39.5 -128q0 -60 36 -91.5t93 -31.5q78 0 158 38.5t144 119.5q-3 15 -5.5 46t-2.5 62q0 46 5 88t9 70z" />
    <glyph glyph-name="oslash" unicode="&#xf8;" horiz-adv-x="1100" 
d="M1033 616q0 -118 -40 -236t-116 -207q-77 -92 -185.5 -147.5t-251.5 -55.5q-84 0 -156.5 32t-123.5 90l-138 -126l-46 45l146 134q-27 47 -41 101t-14 119q0 133 44 248t118 202q75 87 185.5 140.5t239.5 53.5q96 0 165.5 -31t118.5 -88l131 120l46 -46l-139 -126
q28 -47 42.5 -103.5t14.5 -118.5zM819 782q-18 71 -62 114t-124 43q-89 0 -161.5 -54.5t-123.5 -163.5q-44 -92 -62.5 -200.5t-18.5 -190.5q0 -13 0.5 -28t0.5 -27zM742 239q44 86 67.5 194t23.5 222q0 12 -0.5 27t-0.5 27l-552 -507q17 -73 63.5 -117.5t126.5 -44.5
q89 0 158.5 56t113.5 143z" />
    <glyph glyph-name="questiondown" unicode="&#xbf;" horiz-adv-x="980" 
d="M875 1317q0 -56 -40.5 -96.5t-96.5 -40.5t-96.5 40.5t-40.5 96.5t40.5 95.5t96.5 39.5t96.5 -39.5t40.5 -95.5zM824 246q0 -43 -27.5 -91.5t-77.5 -85.5q-55 -41 -123 -65t-166 -24q-172 0 -272 91t-100 242q0 219 149.5 358.5t395.5 171.5l50 212h92l-79 -379
q-80 -7 -155.5 -30t-136.5 -69q-60 -45 -96 -119t-36 -179q0 -107 55.5 -166t155.5 -59q41 0 80.5 14t56.5 27v68.5t5 68.5q8 44 48.5 73t97.5 29q42 0 62.5 -26t20.5 -62z" />
    <glyph glyph-name="exclamdown" unicode="&#xa1;" horiz-adv-x="678" 
d="M646 1320q0 -56 -40.5 -96.5t-96.5 -40.5t-96.5 40.5t-40.5 96.5t40.5 95.5t96.5 39.5t96.5 -39.5t40.5 -95.5zM493 1003q-40 -266 -72 -548t-46 -341q-15 -64 -57.5 -99.5t-101.5 -35.5q-48 0 -74.5 28t-26.5 72q0 21 5 44t23 80q46 143 115.5 336t156.5 464h78z" />
    <glyph glyph-name="logicalnot" unicode="&#xac;" horiz-adv-x="1317" 
d="M1188 76h-132v451h-887v125h1019v-576z" />
    <glyph glyph-name="radical" unicode="&#x221a;" horiz-adv-x="1370" 
d="M1656 1701l-1018 -1827h-66l-257 940h-191l14 89h354l203 -724l836 1522h125z" />
    <glyph glyph-name="florin" unicode="&#x192;" horiz-adv-x="1063" 
d="M1079 1260q21 -19 30 -43t9 -48q0 -43 -28.5 -74.5t-77.5 -31.5q-50 0 -89.5 46.5t-68.5 129.5q-83 -13 -142.5 -110t-99.5 -292l-25 -121h265l-21 -91h-255l-37.5 -204.5t-42.5 -201.5q-43 -175 -99.5 -286t-130.5 -180q-63 -58 -142 -90t-159 -32q-53 0 -90.5 12.5
t-59.5 32.5q-22 21 -31 44t-9 46q0 42 30 74t77 32q52 0 88.5 -46.5t66.5 -127.5q80 10 138.5 109.5t103.5 290.5q35 150 60 281.5l46 245.5h-215l21 91h205q34 168 85.5 275.5t144.5 195.5q60 57 136.5 88t166.5 31q55 0 92 -13t58 -33z" />
    <glyph glyph-name="approxequal" unicode="&#x2248;" horiz-adv-x="1317" 
d="M1191 527q-18 -50 -47 -96.5t-68 -84.5q-45 -44 -95 -71t-118 -27t-125.5 18.5t-106.5 41.5q-42 20 -96 40.5t-96 20.5q-70 0 -108.5 -44.5t-79.5 -121.5l-75 31q15 42 44 89t71 89q38 38 96 67t116 29q72 0 129 -19t106 -42l94.5 -42t95.5 -18q67 0 108.5 48t79.5 123z
M1191 909q-18 -50 -47 -96.5t-68 -84.5q-45 -44 -95 -71t-118 -27t-125.5 18.5t-106.5 41.5q-42 20 -96 40.5t-96 20.5q-70 0 -108.5 -44.5t-79.5 -121.5l-75 31q15 42 44 89t71 89q38 38 96 67t116 29q72 0 129 -19t106 -42l94.5 -42t95.5 -18q67 0 108.5 48t79.5 123z" />
    <glyph glyph-name="increment" unicode="&#x2206;" horiz-adv-x="1369" 
d="M1240 50l-12 -50h-1335l12 50l966 1389h79zM996 165l-207 1002l-684 -1002h891z" />
    <glyph glyph-name="guillemotleft" unicode="&#xab;" horiz-adv-x="1190" 
d="M1123 889l-361 -367l191 -369l-58 -33l-303 332q-6 7 -16 21.5t-10 36.5q0 25 14.5 48.5t50.5 49.5l452 329zM734 889l-361 -367l191 -369l-58 -33l-303 332q-6 7 -16 21.5t-10 36.5q0 25 14.5 48.5t50.5 49.5l452 329z" />
    <glyph glyph-name="guillemotright" unicode="&#xbb;" horiz-adv-x="1190" 
d="M1060 546q0 -25 -14.5 -48.5t-50.5 -49.5l-452 -329l-40 48l361 367l-191 369l58 33l303 -332q6 -7 16 -21.5t10 -36.5zM671 546q0 -25 -14.5 -48.5t-50.5 -49.5l-452 -329l-40 48l361 367l-191 369l58 33l303 -332q6 -7 16 -21.5t10 -36.5z" />
    <glyph glyph-name="ellipsis" unicode="&#x2026;" horiz-adv-x="1653" 
d="M1497 109q0 -53 -39 -91t-92 -38t-92 38t-39 91t38.5 92t92.5 39t92.5 -39t38.5 -92zM946 109q0 -54 -39.5 -91.5t-91.5 -37.5q-53 0 -92 38t-39 91t38.5 92t92.5 39q53 0 92 -39t39 -92zM395 109q0 -54 -39.5 -91.5t-91.5 -37.5q-53 0 -92 38t-39 91t38.5 92t92.5 39
q53 0 92 -39t39 -92z" />
    <glyph glyph-name="Agrave" unicode="&#xc0;" horiz-adv-x="1374" 
d="M875 576l-89 554l-340 -554h429zM722 0l15 66q31 3 72.5 8.5t64.5 12.5q31 10 46.5 21t15.5 34q0 8 -12 98l-34 253h-498q-33 -52 -70 -120.5l-57 -104.5q-18 -32 -34.5 -71.5t-16.5 -52.5q0 -33 53 -53t133 -25l-15 -66h-545l15 66q26 2 67.5 11.5t69.5 25.5
q35 20 67.5 49.5t69.5 88.5l379.5 610l363.5 588h80l189 -1229q6 -37 20 -62.5t42 -47.5q20 -14 54 -23.5t60 -10.5l-15 -66h-580zM1072 1546l-34 -39l-200.5 102.5l-130.5 66.5q-39 21 -61 42t-22 59q0 39 27 65t69 26q27 0 53.5 -19t55.5 -48l95.5 -100z" />
    <glyph glyph-name="Atilde" unicode="&#xc3;" horiz-adv-x="1374" 
d="M875 576l-89 554l-340 -554h429zM722 0l15 66q31 3 72.5 8.5t64.5 12.5q31 10 46.5 21t15.5 34q0 8 -12 98l-34 253h-498q-33 -52 -70 -120.5l-57 -104.5q-18 -32 -34.5 -71.5t-16.5 -52.5q0 -33 53 -53t133 -25l-15 -66h-545l15 66q26 2 67.5 11.5t69.5 25.5
q35 20 67.5 49.5t69.5 88.5l379.5 610l363.5 588h80l189 -1229q6 -37 20 -62.5t42 -47.5q20 -14 54 -23.5t60 -10.5l-15 -66h-580zM1298 1840q-10 -38 -30 -78t-55 -79q-36 -39 -75.5 -62.5t-94.5 -23.5q-56 0 -98.5 16.5t-74.5 34.5q-35 20 -67.5 36t-69.5 16
q-52 0 -80.5 -36.5t-60.5 -99.5l-58 25q10 32 34 77t52 79q30 36 73 61.5t90 25.5q53 0 95 -16.5t76 -35.5l65.5 -36t62.5 -15q69 0 99.5 32.5t55.5 101.5z" />
    <glyph glyph-name="Otilde" unicode="&#xd5;" horiz-adv-x="1496" 
d="M1477 873q0 -190 -70 -357.5t-183 -286.5q-116 -122 -264.5 -192.5t-307.5 -70.5q-248 0 -400 161t-152 413q0 194 70 360.5t182 287.5q113 123 263.5 194t309.5 71q244 0 398 -157.5t154 -422.5zM1095 339q71 124 109 280t38 312q0 200 -85 319t-250 119
q-128 0 -238 -76t-192 -223q-71 -129 -106.5 -284t-35.5 -292q0 -210 86.5 -327t247.5 -117q137 0 246 82t180 207zM1344 1840q-10 -38 -30 -78t-55 -79q-36 -39 -75.5 -62.5t-94.5 -23.5q-56 0 -98.5 16.5t-74.5 34.5q-35 20 -67.5 36t-69.5 16q-52 0 -80.5 -36.5
t-60.5 -99.5l-58 25q10 32 34 77t52 79q30 36 73 61.5t90 25.5q53 0 95 -16.5t76 -35.5l65.5 -36t62.5 -15q69 0 99.5 32.5t55.5 101.5z" />
    <glyph glyph-name="OE" unicode="&#x152;" horiz-adv-x="2044" 
d="M2093 1419l-79 -342h-75q-2 35 -10.5 79t-25.5 82t-44 65t-68 34q-30 4 -73 6t-97 2h-218l-131 -571h150q74 0 115 14.5t73 48.5q29 31 57.5 83t40.5 88h75l-128 -555h-74q0 11 1.5 26.5t1.5 33.5q0 37 -5 71t-14 50q-21 39 -60 51t-102 12h-150l-99 -433
q-5 -24 -9 -50.5t-4 -45.5q0 -60 42 -75.5t161 -15.5q168 0 228.5 12t88.5 35q57 46 133.5 147t102.5 147h72l-124 -418h-1154q-86 0 -191 25.5t-192 85.5q-102 69 -155 174t-53 244q0 190 75 357t221 294q130 113 303 176t355 63h1039zM1188 1336q-41 2 -84 3.5t-70 1.5
q-139 0 -266 -59.5t-223 -167.5t-153 -259t-57 -333q0 -201 112.5 -323t310.5 -122q25 0 63.5 1.5t77.5 3.5z" />
    <glyph glyph-name="oe" unicode="&#x153;" horiz-adv-x="1690" 
d="M1649 801q0 -109 -67.5 -184t-192.5 -119q-93 -34 -188 -55t-210 -35q0 -158 58.5 -241.5t171.5 -83.5q100 0 176.5 50t150.5 149l57 -42q-80 -122 -200 -195t-249 -73q-117 0 -194.5 45.5t-119.5 122.5q-86 -83 -182 -126.5t-220 -43.5q-166 0 -269.5 106.5
t-103.5 288.5q0 133 44 248t118 202q75 87 185.5 140.5t239.5 53.5q116 0 196.5 -49.5t126.5 -127.5q72 76 172 126.5t217 50.5q144 0 213.5 -58.5t69.5 -149.5zM1465 826q0 39 -11 61.5t-28 33.5q-18 12 -38 15t-41 3q-120 0 -221.5 -132t-128.5 -329q70 10 158 28.5
t146 48.5q83 43 123.5 110.5t40.5 160.5zM740 239q43 84 66 192.5t23 222.5q0 51 -8.5 103.5t-32.5 94.5q-22 39 -60.5 62.5t-94.5 23.5q-87 0 -159.5 -53t-123.5 -164q-41 -87 -60 -193.5t-19 -196.5q0 -143 49.5 -216.5t149.5 -73.5q89 0 158 56t112 142z" />
    <glyph glyph-name="endash" unicode="&#x2013;" horiz-adv-x="1317" 
d="M1246 620l-29 -120h-1113l29 120h1113z" />
    <glyph glyph-name="emdash" unicode="&#x2014;" horiz-adv-x="1755" 
d="M1684 620l-29 -120h-1551l29 120h1551z" />
    <glyph glyph-name="quotedblleft" unicode="&#x201c;" horiz-adv-x="790" 
d="M921 1464q-47 -24 -87.5 -48.5t-69.5 -48.5q-34 -29 -56 -62t-38 -85h43q63 0 90.5 -31t27.5 -69q0 -48 -37 -91.5t-101 -43.5q-68 0 -100.5 38t-32.5 100q0 81 35 147t88 118q52 50 108.5 83l99.5 56zM551 1464q-47 -24 -87.5 -48.5t-69.5 -48.5q-34 -29 -56 -62
t-38 -85h43q63 0 90.5 -31t27.5 -69q0 -48 -37 -91.5t-101 -43.5q-68 0 -100.5 38t-32.5 100q0 81 35 147t88 118q52 50 108.5 83l99.5 56z" />
    <glyph glyph-name="quotedblright" unicode="&#x201d;" horiz-adv-x="790" 
d="M903 1391q0 -83 -36 -150.5t-87 -114.5q-54 -51 -111.5 -85.5t-96.5 -53.5l-30 63l85 46.5t72 50.5q32 27 56 62t38 85h-43q-63 0 -90.5 31t-27.5 69q0 48 37 91.5t101 43.5q68 0 100.5 -38t32.5 -100zM533 1391q0 -83 -36 -150.5t-87 -114.5q-54 -51 -111.5 -85.5
t-96.5 -53.5l-30 63l85 46.5t72 50.5q32 27 56 62t38 85h-43q-63 0 -90.5 31t-27.5 69q0 48 37 91.5t101 43.5q68 0 100.5 -38t32.5 -100z" />
    <glyph glyph-name="quoteleft" unicode="&#x2018;" horiz-adv-x="400" 
d="M541 1464q-47 -24 -87.5 -48.5t-69.5 -48.5q-34 -29 -56 -62t-38 -85h43q63 0 90.5 -31t27.5 -69q0 -48 -37 -91.5t-101 -43.5q-68 0 -100.5 38t-32.5 100q0 81 35 147t88 118q52 50 108.5 83l99.5 56z" />
    <glyph glyph-name="quoteright" unicode="&#x2019;" horiz-adv-x="400" 
d="M523 1391q0 -83 -36 -150.5t-87 -114.5q-54 -51 -111.5 -85.5t-96.5 -53.5l-30 63l85 46.5t72 50.5q32 27 56 62t38 85h-43q-63 0 -90.5 31t-27.5 69q0 48 37 91.5t101 43.5q68 0 100.5 -38t32.5 -100z" />
    <glyph glyph-name="divide" unicode="&#xf7;" horiz-adv-x="1317" 
d="M813 966q0 -53 -38 -91t-91 -38t-91 38t-38 91t38 90t91 37t91 -37t38 -90zM1198 497h-1029v125h1029v-125zM813 153q0 -53 -38 -90t-91 -37t-91 37t-38 90t38 91t91 38t91 -38t38 -91z" />
    <glyph glyph-name="lozenge" unicode="&#x25ca;" horiz-adv-x="1150" 
d="M1110 574l-510 -574l-510 574l510 575zM953 574l-353 405l-353 -405l353 -404z" />
    <glyph glyph-name="ydieresis" unicode="&#xff;" horiz-adv-x="1146" 
d="M717 145h-6q-92 -77 -175 -121t-189 -44q-96 0 -152 55.5t-56 145.5q0 24 4 57t19 98l78 312q11 45 17 78.5t6 64.5q0 56 -18.5 74.5t-75.5 18.5q-22 0 -56 -8t-53 -13l15 64q78 35 137.5 53t95.5 18q80 0 118.5 -36t38.5 -108q0 -18 -4 -49t-12 -62l-91 -365
q-10 -42 -17 -78.5t-7 -55.5q0 -67 32.5 -106t95.5 -39q73 0 142.5 36t130.5 99l166 748l173 12l12 -15l-172 -783q-38 -172 -97 -294t-138 -197q-83 -79 -179 -114t-219 -35q-85 0 -135 12t-79 33q-29 20 -39 45t-10 50q0 43 26 76t75 33q37 0 63 -21t42 -46q18 -27 33 -61
l24 -54h24q57 0 120.5 28t116.5 87q57 64 102.5 165t72.5 242zM1034 1364q0 -51 -34.5 -87t-83.5 -36t-83.5 36t-34.5 87t34.5 87t83.5 36t83.5 -36t34.5 -87zM604 1364q0 -51 -34.5 -87t-83.5 -36t-83.5 36t-34.5 87t34.5 87t83.5 36t83.5 -36t34.5 -87z" />
    <glyph glyph-name="Ydieresis" unicode="&#x178;" horiz-adv-x="1260" 
d="M1517 1419l-16 -66q-18 -1 -56 -12.5t-60 -25.5q-44 -23 -61.5 -36.5t-69.5 -68.5q-95 -100 -202 -234l-224 -280q-52 -64 -72.5 -103.5t-38.5 -113.5l-63 -276q-2 -8 -3 -18t-1 -17q0 -25 9 -42t34 -29q22 -10 73.5 -20t81.5 -11l-15 -66h-664l15 66q29 2 85 7t82 15
q40 15 59.5 41.5t27.5 63.5l72 311l6 30t3 18q0 24 -9 62.5t-22 81.5l-72.5 247t-76.5 240q-19 55 -38.5 85.5t-47.5 51.5q-20 15 -51.5 23t-58.5 10l16 66h582l-16 -66q-23 -1 -59 -3t-65 -6q-28 -4 -50.5 -15.5t-22.5 -29.5q0 -19 13 -65.5t41 -138.5l56.5 -179.5
l72.5 -226.5l260.5 321.5t154.5 200.5q31 43 37 55.5t6 21.5q0 34 -49 48t-123 17l16 66h504zM1272 1730q0 -51 -34.5 -87t-83.5 -36t-83.5 36t-34.5 87t34.5 87t83.5 36t83.5 -36t34.5 -87zM822 1730q0 -51 -34.5 -87t-83.5 -36t-83.5 36t-34.5 87t34.5 87t83.5 36
t83.5 -36t34.5 -87z" />
    <glyph glyph-name="fraction" unicode="&#x2044;" horiz-adv-x="294" 
d="M783 1419l-1047 -1419h-135l1045 1419h137z" />
    <glyph glyph-name="fraction" unicode="&#x2215;" horiz-adv-x="294" 
d="M783 1419l-1047 -1419h-135l1045 1419h137z" />
    <glyph glyph-name="Euro" unicode="&#x20ac;" horiz-adv-x="1315" 
d="M1427 1419l-108 -506h-82v40q0 82 -13 156.5t-50 134.5q-36 58 -96.5 92.5t-157.5 34.5q-123 0 -221.5 -65.5t-175.5 -174.5q-33 -47 -63.5 -110.5t-50.5 -124.5h430l-58 -96h-401q-11 -44 -19 -89.5t-11 -84.5h325l-59 -96h-269q5 -213 100 -333.5t275 -120.5
q147 0 270.5 87t201.5 233l72 -38q-126 -215 -281 -303t-354 -88q-103 0 -202.5 36.5t-168.5 112.5q-66 73 -108 178t-42 236h-115l59 96h60q4 38 13 85t21 89h-123l58 96h100q31 73 76.5 147t98.5 135q108 124 252.5 199t309.5 75q125 0 217.5 -29t153.5 -72l56 68h80z" />
    <glyph glyph-name="guilsinglleft" unicode="&#x2039;" horiz-adv-x="850" 
d="M738 889l-361 -367l191 -369l-58 -33l-303 332q-6 7 -16 21.5t-10 36.5q0 25 14.5 48.5t50.5 49.5l452 329z" />
    <glyph glyph-name="guilsinglright" unicode="&#x203a;" horiz-adv-x="850" 
d="M675 546q0 -25 -14.5 -48.5t-50.5 -49.5l-452 -329l-40 48l361 367l-191 369l58 33l303 -332q6 -7 16 -21.5t10 -36.5z" />
    <glyph glyph-name="fi" unicode="&#xf001;" horiz-adv-x="1195" 
d="M495 886l-176 -826q-47 -216 -199 -360t-310 -144q-88 0 -129.5 33.5t-41.5 84.5q0 43 25.5 76t75.5 33q31 0 54.5 -14t41.5 -35q14 -17 31.5 -46l30.5 -50q77 6 131.5 104t94.5 280l184 864h-195l21 91h193l7 33q31 136 82 227.5t157 180.5q53 45 148.5 88t199.5 43
q133 0 193.5 -41.5t60.5 -110.5q0 -35 -24 -71.5t-70 -36.5q-44 0 -71 16t-44 43q-16 27 -26 61.5t-19 61.5h-31q-59 0 -104 -15.5t-101 -68.5q-48 -46 -86.5 -123.5t-64.5 -194.5l-20 -92h326l252 17l11 -15l-153 -646q-9 -37 -17 -75.5t-8 -62.5q0 -57 25.5 -78t82.5 -21
q19 0 54.5 5t54.5 12l-15 -64q-92 -37 -147 -51.5t-94 -14.5q-80 0 -120 41.5t-40 102.5q0 24 4 47.5t13 63.5l132 557q3 14 4 24t1 20q0 13 -3.5 23.5t-9.5 23.5h-372z" />
    <glyph glyph-name="fi" unicode="&#xfb01;" horiz-adv-x="1195" 
d="M495 886l-176 -826q-47 -216 -199 -360t-310 -144q-88 0 -129.5 33.5t-41.5 84.5q0 43 25.5 76t75.5 33q31 0 54.5 -14t41.5 -35q14 -17 31.5 -46l30.5 -50q77 6 131.5 104t94.5 280l184 864h-195l21 91h193l7 33q31 136 82 227.5t157 180.5q53 45 148.5 88t199.5 43
q133 0 193.5 -41.5t60.5 -110.5q0 -35 -24 -71.5t-70 -36.5q-44 0 -71 16t-44 43q-16 27 -26 61.5t-19 61.5h-31q-59 0 -104 -15.5t-101 -68.5q-48 -46 -86.5 -123.5t-64.5 -194.5l-20 -92h326l252 17l11 -15l-153 -646q-9 -37 -17 -75.5t-8 -62.5q0 -57 25.5 -78t82.5 -21
q19 0 54.5 5t54.5 12l-15 -64q-92 -37 -147 -51.5t-94 -14.5q-80 0 -120 41.5t-40 102.5q0 24 4 47.5t13 63.5l132 557q3 14 4 24t1 20q0 13 -3.5 23.5t-9.5 23.5h-372z" />
    <glyph glyph-name="fl" unicode="&#xf002;" horiz-adv-x="1234" 
d="M495 886l-176 -826q-47 -222 -198 -363t-311 -141q-88 0 -129.5 33.5t-41.5 84.5q0 43 26 76t75 33q31 0 54.5 -14t41.5 -35q14 -17 31.5 -46l30.5 -50q77 6 131.5 104t94.5 280l184 864h-195l21 91h192l6 28q29 134 80.5 227.5t161.5 186.5q53 45 151.5 87.5t199.5 42.5
q71 0 129.5 -10.5t94.5 -28.5l91 38l10 -15l-279 -1204q-9 -38 -17 -76t-8 -62q0 -57 25.5 -78t82.5 -21q20 0 59.5 5t59.5 12l-15 -64q-90 -36 -138.5 -51t-109.5 -15q-80 0 -121.5 41.5t-41.5 102.5q0 24 4 47.5t13 63.5l254 1100q4 16 6 27t2 19q0 45 -35.5 70.5
t-90.5 25.5q-59 0 -110.5 -19t-104.5 -72q-49 -48 -89.5 -131.5t-67.5 -206.5l-15 -70h252l-21 -91h-249z" />
    <glyph glyph-name="fl" unicode="&#xfb02;" horiz-adv-x="1234" 
d="M495 886l-176 -826q-47 -222 -198 -363t-311 -141q-88 0 -129.5 33.5t-41.5 84.5q0 43 26 76t75 33q31 0 54.5 -14t41.5 -35q14 -17 31.5 -46l30.5 -50q77 6 131.5 104t94.5 280l184 864h-195l21 91h192l6 28q29 134 80.5 227.5t161.5 186.5q53 45 151.5 87.5t199.5 42.5
q71 0 129.5 -10.5t94.5 -28.5l91 38l10 -15l-279 -1204q-9 -38 -17 -76t-8 -62q0 -57 25.5 -78t82.5 -21q20 0 59.5 5t59.5 12l-15 -64q-90 -36 -138.5 -51t-109.5 -15q-80 0 -121.5 41.5t-41.5 102.5q0 24 4 47.5t13 63.5l254 1100q4 16 6 27t2 19q0 45 -35.5 70.5
t-90.5 25.5q-59 0 -110.5 -19t-104.5 -72q-49 -48 -89.5 -131.5t-67.5 -206.5l-15 -70h252l-21 -91h-249z" />
    <glyph glyph-name="daggerdbl" unicode="&#x2021;" horiz-adv-x="967" 
d="M879 597q0 -37 -21 -54t-54 -17q-28 0 -101 20.5t-183 32.5q-13 -78 -16 -181t-10 -130q-6 -27 -25.5 -43t-46.5 -16q-32 0 -52.5 18t-20.5 51q0 28 39 108.5t79 191.5q-104 -14 -179 -33t-96 -19q-33 0 -54 16.5t-21 54.5q0 34 21 52.5t54 18.5q23 0 103 -19t183 -30
q8 54 9 100.5t8 96.5l8 32q12 48 36.5 100.5t35.5 96.5q-97 -10 -173 -29t-102 -19q-33 0 -54 18t-21 53q0 37 21 54t54 17q25 0 85.5 -17t198.5 -36q12 80 17 180.5t11 129.5q5 24 24.5 41.5t47.5 17.5q32 0 52.5 -18t20.5 -51q0 -31 -40 -110t-80 -189q104 12 177.5 32
t97.5 20q33 0 54 -16.5t21 -54.5q0 -34 -21 -52.5t-54 -18.5q-29 0 -110 20.5t-176 28.5q-9 -55 -8.5 -100t-8.5 -98l-8 -32q-17 -53 -37 -99.5t-36 -98.5q106 12 177 31t99 19q33 0 54 -18t21 -53z" />
    <glyph glyph-name="periodcentered" unicode="&#x2219;" horiz-adv-x="572" 
d="M433 559q0 -56 -40.5 -95.5t-96.5 -39.5t-96.5 39.5t-40.5 95.5t40.5 96.5t96.5 40.5t96.5 -40.5t40.5 -96.5z" />
    <glyph glyph-name="quotesinglbase" unicode="&#x201a;" horiz-adv-x="400" 
d="M271 99q0 -83 -36 -150.5t-87 -114.5q-54 -51 -111.5 -85.5t-96.5 -53.5l-30 63l85 46.5t72 50.5q32 27 56 62t38 85h-43q-63 0 -90.5 31t-27.5 69q0 48 37 91.5t101 43.5q68 0 100.5 -38t32.5 -100z" />
    <glyph glyph-name="quotedblbase" unicode="&#x201e;" horiz-adv-x="790" 
d="M651 99q0 -83 -36 -150.5t-87 -114.5q-54 -51 -111.5 -85.5t-96.5 -53.5l-30 63l85 46.5t72 50.5q32 27 56 62t38 85h-43q-63 0 -90.5 31t-27.5 69q0 48 37 91.5t101 43.5q68 0 100.5 -38t32.5 -100zM281 99q0 -83 -36 -150.5t-87 -114.5q-54 -51 -111.5 -85.5
t-96.5 -53.5l-30 63l85 46.5t72 50.5q32 27 56 62t38 85h-43q-63 0 -90.5 31t-27.5 69q0 48 37 91.5t101 43.5q68 0 100.5 -38t32.5 -100z" />
    <glyph glyph-name="perthousand" unicode="&#x2030;" horiz-adv-x="2514" 
d="M884 1172q0 -192 -118 -325.5t-301 -133.5q-132 0 -205.5 74.5t-73.5 204.5q0 89 30 171t82 145q54 65 132.5 105t176.5 40q132 0 204.5 -76t72.5 -205zM720 1197q0 81 -30.5 135t-96.5 54q-105 0 -173 -121.5t-68 -298.5q0 -78 30 -132t98 -54q99 0 169.5 122t70.5 295z
M1559 428q0 -192 -118 -325.5t-301 -133.5q-132 0 -205.5 74.5t-73.5 204.5q0 89 30 171t82 145q54 65 132.5 105t176.5 40q132 0 204.5 -76t72.5 -205zM1395 453q0 81 -30.5 135t-96.5 54q-105 0 -173 -121.5t-68 -298.5q0 -78 30 -132t98 -54q99 0 169.5 122t70.5 295z
M1676 1424l-1458 -1424h-144l1455 1424h147zM2389 428q0 -192 -118 -325.5t-301 -133.5q-132 0 -205.5 74.5t-73.5 204.5q0 89 30 171t82 145q54 65 132.5 105t176.5 40q132 0 204.5 -76t72.5 -205zM2225 453q0 81 -30.5 135t-96.5 54q-105 0 -173 -121.5t-68 -298.5
q0 -78 30 -132t98 -54q99 0 169.5 122t70.5 295z" />
    <glyph glyph-name="Acircumflex" unicode="&#xc2;" horiz-adv-x="1374" 
d="M875 576l-89 554l-340 -554h429zM722 0l15 66q31 3 72.5 8.5t64.5 12.5q31 10 46.5 21t15.5 34q0 8 -12 98l-34 253h-498q-33 -52 -70 -120.5l-57 -104.5q-18 -32 -34.5 -71.5t-16.5 -52.5q0 -33 53 -53t133 -25l-15 -66h-545l15 66q26 2 67.5 11.5t69.5 25.5
q35 20 67.5 49.5t69.5 88.5l379.5 610l363.5 588h80l189 -1229q6 -37 20 -62.5t42 -47.5q20 -14 54 -23.5t60 -10.5l-15 -66h-580zM1212 1539l-49 -32l-234 212l-320 -212l-47 32l290 284q19 18 40.5 31.5t60.5 13.5q42 0 56.5 -13.5t22.5 -27.5z" />
    <glyph glyph-name="Ecircumflex" unicode="&#xca;" horiz-adv-x="1338" 
d="M1388 1419l-79 -342h-75q-6 106 -44.5 178t-103.5 82q-30 4 -73 6t-97 2h-228l-131 -571h160q74 0 115 14.5t73 48.5q30 30 58 82.5t40 88.5h75l-128 -555h-74q0 11 1.5 26.5t1.5 33.5q0 37 -5 71t-14 50q-21 39 -60 51t-102 12h-160l-99 -433q-6 -24 -10 -52t-4 -44
q0 -55 39.5 -73t174.5 -18q168 0 228 12t89 35q57 46 133.5 147t102.5 147h72l-123 -418h-1178l15 66q31 2 82 8.5t69 13.5q35 13 53.5 39t25.5 61l238 1030q2 8 3.5 18t1.5 19q0 20 -8.5 36t-30.5 27q-24 13 -68 23t-69 12l15 66h1098zM1209 1539l-49 -32l-234 212
l-320 -212l-47 32l290 284q19 18 40.5 31.5t60.5 13.5q42 0 56.5 -13.5t22.5 -27.5z" />
    <glyph glyph-name="Aacute" unicode="&#xc1;" horiz-adv-x="1374" 
d="M875 576l-89 554l-340 -554h429zM722 0l15 66q31 3 72.5 8.5t64.5 12.5q31 10 46.5 21t15.5 34q0 8 -12 98l-34 253h-498q-33 -52 -70 -120.5l-57 -104.5q-18 -32 -34.5 -71.5t-16.5 -52.5q0 -33 53 -53t133 -25l-15 -66h-545l15 66q26 2 67.5 11.5t69.5 25.5
q35 20 67.5 49.5t69.5 88.5l379.5 610l363.5 588h80l189 -1229q6 -37 20 -62.5t42 -47.5q20 -14 54 -23.5t60 -10.5l-15 -66h-580zM1237 1796q0 -45 -28 -72.5t-74 -49.5l-142 -65.5l-219 -101.5l-27 39l161 145.5l121 117.5q38 38 67 48.5t57 10.5q36 0 60 -20.5t24 -51.5z
" />
    <glyph glyph-name="Edieresis" unicode="&#xcb;" horiz-adv-x="1338" 
d="M1388 1419l-79 -342h-75q-6 106 -44.5 178t-103.5 82q-30 4 -73 6t-97 2h-228l-131 -571h160q74 0 115 14.5t73 48.5q30 30 58 82.5t40 88.5h75l-128 -555h-74q0 11 1.5 26.5t1.5 33.5q0 37 -5 71t-14 50q-21 39 -60 51t-102 12h-160l-99 -433q-6 -24 -10 -52t-4 -44
q0 -55 39.5 -73t174.5 -18q168 0 228 12t89 35q57 46 133.5 147t102.5 147h72l-123 -418h-1178l15 66q31 2 82 8.5t69 13.5q35 13 53.5 39t25.5 61l238 1030q2 8 3.5 18t1.5 19q0 20 -8.5 36t-30.5 27q-24 13 -68 23t-69 12l15 66h1098zM1226 1730q0 -51 -34.5 -87
t-83.5 -36t-83.5 36t-34.5 87t34.5 87t83.5 36t83.5 -36t34.5 -87zM776 1730q0 -51 -34.5 -87t-83.5 -36t-83.5 36t-34.5 87t34.5 87t83.5 36t83.5 -36t34.5 -87z" />
    <glyph glyph-name="Egrave" unicode="&#xc8;" horiz-adv-x="1338" 
d="M1388 1419l-79 -342h-75q-6 106 -44.5 178t-103.5 82q-30 4 -73 6t-97 2h-228l-131 -571h160q74 0 115 14.5t73 48.5q30 30 58 82.5t40 88.5h75l-128 -555h-74q0 11 1.5 26.5t1.5 33.5q0 37 -5 71t-14 50q-21 39 -60 51t-102 12h-160l-99 -433q-6 -24 -10 -52t-4 -44
q0 -55 39.5 -73t174.5 -18q168 0 228 12t89 35q57 46 133.5 147t102.5 147h72l-123 -418h-1178l15 66q31 2 82 8.5t69 13.5q35 13 53.5 39t25.5 61l238 1030q2 8 3.5 18t1.5 19q0 20 -8.5 36t-30.5 27q-24 13 -68 23t-69 12l15 66h1098zM1032 1546l-34 -39l-200.5 102.5
l-130.5 66.5q-39 21 -61 42t-22 59q0 39 27 65t69 26q27 0 53.5 -19t55.5 -48l95.5 -100z" />
    <glyph glyph-name="Iacute" unicode="&#xcd;" horiz-adv-x="798" 
d="M922 1419l-15 -66q-31 -1 -81 -9t-74 -15q-42 -13 -60 -40t-26 -59l-240 -1037q-2 -7 -3 -16t-1 -16q0 -23 10 -39t36 -28q15 -7 66 -16.5t76 -11.5l-15 -66h-639l15 66l80 6t74 12q39 14 59 38.5t27 59.5l239 1038q2 9 3 18t1 18q0 20 -8.5 35t-35.5 27t-73.5 22.5
t-68.5 12.5l15 66h639zM917 1796q0 -45 -28 -72.5t-74 -49.5l-142 -65.5l-219 -101.5l-27 39l161 145.5l121 117.5q38 38 67 48.5t57 10.5q36 0 60 -20.5t24 -51.5z" />
    <glyph glyph-name="Icircumflex" unicode="&#xce;" horiz-adv-x="798" 
d="M922 1419l-15 -66q-31 -1 -81 -9t-74 -15q-42 -13 -60 -40t-26 -59l-240 -1037q-2 -7 -3 -16t-1 -16q0 -23 10 -39t36 -28q15 -7 66 -16.5t76 -11.5l-15 -66h-639l15 66l80 6t74 12q39 14 59 38.5t27 59.5l239 1038q2 9 3 18t1 18q0 20 -8.5 35t-35.5 27t-73.5 22.5
t-68.5 12.5l15 66h639zM945 1539l-49 -32l-234 212l-320 -212l-47 32l290 284q19 18 40.5 31.5t60.5 13.5q42 0 56.5 -13.5t22.5 -27.5z" />
    <glyph glyph-name="Idieresis" unicode="&#xcf;" horiz-adv-x="798" 
d="M922 1419l-15 -66q-31 -1 -81 -9t-74 -15q-42 -13 -60 -40t-26 -59l-240 -1037q-2 -7 -3 -16t-1 -16q0 -23 10 -39t36 -28q15 -7 66 -16.5t76 -11.5l-15 -66h-639l15 66l80 6t74 12q39 14 59 38.5t27 59.5l239 1038q2 9 3 18t1 18q0 20 -8.5 35t-35.5 27t-73.5 22.5
t-68.5 12.5l15 66h639zM978 1730q0 -51 -34.5 -87t-83.5 -36t-83.5 36t-34.5 87t34.5 87t83.5 36t83.5 -36t34.5 -87zM548 1730q0 -51 -34.5 -87t-83.5 -36t-83.5 36t-34.5 87t34.5 87t83.5 36t83.5 -36t34.5 -87z" />
    <glyph glyph-name="Igrave" unicode="&#xcc;" horiz-adv-x="798" 
d="M922 1419l-15 -66q-31 -1 -81 -9t-74 -15q-42 -13 -60 -40t-26 -59l-240 -1037q-2 -7 -3 -16t-1 -16q0 -23 10 -39t36 -28q15 -7 66 -16.5t76 -11.5l-15 -66h-639l15 66l80 6t74 12q39 14 59 38.5t27 59.5l239 1038q2 9 3 18t1 18q0 20 -8.5 35t-35.5 27t-73.5 22.5
t-68.5 12.5l15 66h639zM842 1546l-34 -39l-200.5 102.5l-130.5 66.5q-39 21 -61 42t-22 59q0 39 27 65t69 26q27 0 53.5 -19t55.5 -48l95.5 -100z" />
    <glyph glyph-name="Oacute" unicode="&#xd3;" horiz-adv-x="1524" 
d="M1477 873q0 -190 -70 -357.5t-183 -286.5q-116 -122 -264.5 -192.5t-307.5 -70.5q-248 0 -400 161t-152 413q0 194 70 360.5t182 287.5q113 123 263.5 194t309.5 71q244 0 398 -157.5t154 -422.5zM1095 339q71 124 109 280t38 312q0 200 -85 319t-250 119
q-128 0 -238 -76t-192 -223q-71 -129 -106.5 -284t-35.5 -292q0 -210 86.5 -327t247.5 -117q137 0 246 82t180 207zM1197 1796q0 -45 -28 -72.5t-74 -49.5l-142 -65.5l-219 -101.5l-27 39l161 145.5l121 117.5q38 38 67 48.5t57 10.5q36 0 60 -20.5t24 -51.5z" />
    <glyph glyph-name="Ocircumflex" unicode="&#xd4;" horiz-adv-x="1524" 
d="M1477 873q0 -190 -70 -357.5t-183 -286.5q-116 -122 -264.5 -192.5t-307.5 -70.5q-248 0 -400 161t-152 413q0 194 70 360.5t182 287.5q113 123 263.5 194t309.5 71q244 0 398 -157.5t154 -422.5zM1095 339q71 124 109 280t38 312q0 200 -85 319t-250 119
q-128 0 -238 -76t-192 -223q-71 -129 -106.5 -284t-35.5 -292q0 -210 86.5 -327t247.5 -117q137 0 246 82t180 207zM1249 1539l-49 -32l-234 212l-320 -212l-47 32l290 284q19 18 40.5 31.5t60.5 13.5q42 0 56.5 -13.5t22.5 -27.5z" />
    <glyph glyph-name="Ograve" unicode="&#xd2;" horiz-adv-x="1524" 
d="M1477 873q0 -190 -70 -357.5t-183 -286.5q-116 -122 -264.5 -192.5t-307.5 -70.5q-248 0 -400 161t-152 413q0 194 70 360.5t182 287.5q113 123 263.5 194t309.5 71q244 0 398 -157.5t154 -422.5zM1095 339q71 124 109 280t38 312q0 200 -85 319t-250 119
q-128 0 -238 -76t-192 -223q-71 -129 -106.5 -284t-35.5 -292q0 -210 86.5 -327t247.5 -117q137 0 246 82t180 207zM1142 1546l-34 -39l-200.5 102.5l-130.5 66.5q-39 21 -61 42t-22 59q0 39 27 65t69 26q27 0 53.5 -19t55.5 -48l95.5 -100z" />
    <glyph glyph-name="Uacute" unicode="&#xda;" horiz-adv-x="1549" 
d="M659 -34q-210 0 -328.5 89t-118.5 237q0 21 2.5 39.5t7.5 42.5l195 844q2 8 3 17t1 17q0 20 -9 37.5t-29 30.5q-22 14 -59 22t-62 11l16 66h590l-16 -66q-28 -1 -72 -9t-66 -15q-39 -13 -56 -41t-25 -60l-182 -789q-6 -26 -10.5 -58t-4.5 -62q0 -52 11 -90.5t48 -77.5
q31 -34 86.5 -55.5t139.5 -21.5q114 0 195 35.5t135 88.5q51 51 83.5 113t45.5 119q36 144 67 280.5l66 298.5q17 80 23.5 130t6.5 82q0 29 -6 46.5t-21 30.5q-29 25 -87 38.5t-88 16.5l16 66h580l-16 -66q-27 -1 -85 -12.5t-94 -32.5q-41 -24 -72.5 -105.5t-51.5 -170.5
l-63.5 -288.5t-74.5 -315.5q-35 -139 -105.5 -229.5t-158.5 -141.5q-85 -49 -176 -70t-181 -21zM1297 1796q0 -45 -28 -72.5t-74 -49.5l-142 -65.5l-219 -101.5l-27 39l161 145.5l121 117.5q38 38 67 48.5t57 10.5q36 0 60 -20.5t24 -51.5z" />
    <glyph glyph-name="Ucircumflex" unicode="&#xdb;" horiz-adv-x="1549" 
d="M659 -34q-210 0 -328.5 89t-118.5 237q0 21 2.5 39.5t7.5 42.5l195 844q2 8 3 17t1 17q0 20 -9 37.5t-29 30.5q-22 14 -59 22t-62 11l16 66h590l-16 -66q-28 -1 -72 -9t-66 -15q-39 -13 -56 -41t-25 -60l-182 -789q-6 -26 -10.5 -58t-4.5 -62q0 -52 11 -90.5t48 -77.5
q31 -34 86.5 -55.5t139.5 -21.5q114 0 195 35.5t135 88.5q51 51 83.5 113t45.5 119q36 144 67 280.5l66 298.5q17 80 23.5 130t6.5 82q0 29 -6 46.5t-21 30.5q-29 25 -87 38.5t-88 16.5l16 66h580l-16 -66q-27 -1 -85 -12.5t-94 -32.5q-41 -24 -72.5 -105.5t-51.5 -170.5
l-63.5 -288.5t-74.5 -315.5q-35 -139 -105.5 -229.5t-158.5 -141.5q-85 -49 -176 -70t-181 -21zM1338 1539l-49 -32l-234 212l-320 -212l-47 32l290 284q19 18 40.5 31.5t60.5 13.5q42 0 56.5 -13.5t22.5 -27.5z" />
    <glyph glyph-name="Ugrave" unicode="&#xd9;" horiz-adv-x="1549" 
d="M659 -34q-210 0 -328.5 89t-118.5 237q0 21 2.5 39.5t7.5 42.5l195 844q2 8 3 17t1 17q0 20 -9 37.5t-29 30.5q-22 14 -59 22t-62 11l16 66h590l-16 -66q-28 -1 -72 -9t-66 -15q-39 -13 -56 -41t-25 -60l-182 -789q-6 -26 -10.5 -58t-4.5 -62q0 -52 11 -90.5t48 -77.5
q31 -34 86.5 -55.5t139.5 -21.5q114 0 195 35.5t135 88.5q51 51 83.5 113t45.5 119q36 144 67 280.5l66 298.5q17 80 23.5 130t6.5 82q0 29 -6 46.5t-21 30.5q-29 25 -87 38.5t-88 16.5l16 66h580l-16 -66q-27 -1 -85 -12.5t-94 -32.5q-41 -24 -72.5 -105.5t-51.5 -170.5
l-63.5 -288.5t-74.5 -315.5q-35 -139 -105.5 -229.5t-158.5 -141.5q-85 -49 -176 -70t-181 -21zM1181 1546l-34 -39l-200.5 102.5l-130.5 66.5q-39 21 -61 42t-22 59q0 39 27 65t69 26q27 0 53.5 -19t55.5 -48l95.5 -100z" />
    <glyph glyph-name="dotlessi" unicode="&#x131;" horiz-adv-x="609" 
d="M551 109l-15 -64q-92 -37 -147 -51.5t-94 -14.5q-80 0 -120 41.5t-40 102.5q0 23 4 48t13 63l106 425q8 35 15.5 75t7.5 68q0 56 -18.5 74.5t-75.5 18.5q-22 0 -58.5 -7t-55.5 -12l15 64q78 35 140 52t98 17q82 0 119 -39t37 -105q0 -18 -4 -49t-12 -62l-107 -425
q-10 -39 -17.5 -76.5t-7.5 -61.5q0 -57 25.5 -78t82.5 -21q19 0 54.5 5t54.5 12z" />
    <glyph glyph-name="circumflex" unicode="&#x2c6;" 
d="M1009 1150l-49 -32l-224 273l-330 -273l-47 32l303 347q19 23 38.5 34t58.5 11q38 0 53 -10.5t25 -30.5z" />
    <glyph glyph-name="tilde" unicode="&#x2dc;" 
d="M1096 1472q-10 -38 -30 -78t-55 -79q-36 -39 -75.5 -62.5t-94.5 -23.5q-56 0 -98.5 16.5t-74.5 34.5q-35 20 -67.5 36t-69.5 16q-52 0 -80.5 -36.5t-60.5 -99.5l-58 25q10 32 34 77t52 79q30 36 73 61.5t90 25.5q53 0 95 -16.5t76 -35.5l65.5 -36t62.5 -15
q69 0 99.5 32.5t55.5 101.5z" />
    <glyph glyph-name="macron" unicode="&#x2c9;" 
d="M1069 1419l-28 -123h-686l28 123h686z" />
    <glyph glyph-name="breve" unicode="&#x2d8;" 
d="M1027 1495q-60 -182 -151.5 -275t-226.5 -93q-127 0 -188 86t-61 250q0 7 0.5 15.5t0.5 16.5l52 12q7 -52 17.5 -91t35.5 -72q24 -32 61 -49.5t104 -17.5q108 0 176 56.5t122 173.5z" />
    <glyph glyph-name="dotaccent" unicode="&#x2d9;" 
d="M840 1387q0 -57 -37.5 -98.5t-92.5 -41.5q-51 0 -88.5 39t-37.5 92q0 55 37.5 95t88.5 40q57 0 93.5 -37.5t36.5 -88.5z" />
    <glyph glyph-name="ring" unicode="&#x2da;" horiz-adv-x="1173" 
d="M972 1373q0 -108 -83 -183.5t-215 -75.5q-104 0 -164 50t-60 132q0 109 86 186t214 77q100 0 161 -51.5t61 -134.5zM846 1373q0 52 -26.5 89.5t-80.5 37.5q-73 0 -118 -61t-45 -140q0 -55 27 -90.5t82 -35.5q74 0 117.5 59t43.5 141z" />
    <glyph glyph-name="cedilla" unicode="&#xb8;" 
d="M669 -226q0 -65 -37.5 -109.5t-97.5 -67.5q-56 -22 -131.5 -31.5t-169.5 -9.5l15 72q42 0 94 1.5t87 10.5q41 10 65 28.5t24 57.5q0 32 -34.5 49.5t-119.5 17.5l46 224h78l-25 -116q102 0 154 -35.5t52 -91.5z" />
    <glyph glyph-name="hungarumlaut" unicode="&#x2dd;" 
d="M1107 1466q0 -37 -19 -64t-54 -55l-128.5 -102l-171.5 -135l-33 28l123.5 176.5l86.5 131.5q33 52 58.5 72t61.5 20q33 0 54.5 -22.5t21.5 -49.5zM734 1467q0 -39 -16 -64t-52 -56l-107 -89l-179 -148l-35 28l119.5 180t77.5 128q30 52 56 72t62 20q32 0 53 -22t21 -49z
" />
    <glyph glyph-name="ogonek" unicode="&#x2db;" 
d="M664 -372l-13 -72h-115q-116 0 -176 42t-60 116q0 82 72.5 165.5t217.5 159.5h61q-64 -44 -100 -86t-57 -80t-27 -74.5t-6 -55.5q0 -55 42 -85t161 -30z" />
    <glyph glyph-name="caron" unicode="&#x2c7;" 
d="M1037 1510l-303 -347q-24 -27 -36 -36t-61 -9q-38 0 -52.5 10t-25.5 31l-172 351l49 32l224 -273l330 273z" />
    <glyph glyph-name="Lslash" unicode="&#x141;" horiz-adv-x="1236" 
d="M1211 422l-127 -422h-1109l15 66q25 2 71 7t67 13q36 14 54.5 40.5t25.5 61.5l101 438l-171 -73l-16 90l211 87l112 484q2 9 3.5 18.5t1.5 18.5q0 20 -8.5 36.5t-30.5 28.5q-20 12 -58.5 23t-65.5 14l15 66h599l-15 -66q-23 -1 -66.5 -8.5t-76.5 -17.5q-39 -13 -57 -42
t-26 -61l-94 -405l285 121l16 -91l-324 -132l-105 -456q-8 -35 -12.5 -61.5t-4.5 -43.5q0 -55 44.5 -69t162.5 -14q66 0 150.5 11.5t117.5 41.5q51 45 128.5 139.5t115.5 156.5h71z" />
    <glyph glyph-name="lslash" unicode="&#x142;" horiz-adv-x="584" 
d="M405 693l-84 -364l-17 -75t-8 -63q0 -57 25.5 -78t82.5 -21q20 0 59.5 5t59.5 12l-15 -64q-90 -36 -138.5 -51t-109.5 -15q-80 0 -121.5 41.5t-41.5 102.5q0 23 4.5 48t12.5 63l88 380l-133 -57l-15 83l170 71l133 576q7 31 9.5 43t2.5 30q0 36 -12 55.5t-34 29.5
q-21 9 -53 12t-65 7l14 61l371 23l10 -15l-172 -743l154 66l15 -83z" />
    <glyph glyph-name="Scaron" unicode="&#x160;" horiz-adv-x="1149" 
d="M493 -29q-123 0 -215.5 30.5t-149.5 70.5l-57 -73h-80l98 486h81q5 -87 23.5 -163t60.5 -137q42 -63 109 -97.5t166 -34.5q149 0 239 82.5t90 225.5q0 77 -38 137t-114 93q-72 31 -142.5 55.5t-138.5 57.5q-90 43 -145 123.5t-55 181.5q0 96 42.5 177t112.5 140
q68 57 164.5 91t191.5 34q89 0 168.5 -21t159.5 -79l55 68h80l-101 -471h-81q-3 77 -15.5 159t-42.5 136q-33 59 -92 92.5t-157 33.5q-118 0 -198 -81.5t-80 -193.5q0 -74 29.5 -125.5t91.5 -83.5q66 -34 138.5 -58.5t129.5 -51.5q115 -54 179.5 -130t64.5 -186
q0 -106 -46 -198t-123 -154q-81 -66 -181.5 -101t-221.5 -35zM1139 1837l-290 -284q-24 -23 -38 -34t-63 -11q-41 0 -55 13t-24 28l-180 288l49 32l234 -212l320 212z" />
    <glyph glyph-name="scaron" unicode="&#x161;" horiz-adv-x="883" 
d="M362 -29q-148 0 -246.5 52.5t-98.5 137.5q0 40 29 75t71 35q40 0 64.5 -18.5t38.5 -43.5q15 -26 26.5 -62l19.5 -59q15 -17 41.5 -31.5t76.5 -14.5q108 0 163.5 54t55.5 146q0 68 -52 108.5t-155 74.5q-37 12 -87 36.5t-80 52.5q-36 32 -58 76t-22 104q0 128 114.5 221.5
t281.5 93.5q39 0 84 -4t99 -22q47 -16 80 -47.5t33 -81.5q0 -41 -27.5 -74.5t-72.5 -33.5q-37 0 -61 16t-40 43t-26 58t-22 61q-19 8 -34 11t-40 3q-98 0 -148.5 -52.5t-50.5 -124.5q0 -70 45.5 -105.5t150.5 -73.5q136 -49 197.5 -112t61.5 -156q0 -152 -117 -247.5
t-295 -95.5zM942 1510l-303 -347q-24 -27 -36 -36t-61 -9q-38 0 -52.5 10t-25.5 31l-172 351l49 32l224 -273l330 273z" />
    <glyph glyph-name="Zcaron" unicode="&#x17d;" horiz-adv-x="1232" 
d="M1387 1419l-8 -35l-1173 -1309h323q85 0 183.5 14t134.5 43q79 62 157 151t124 160h70l-150 -443h-1138l9 35l1173 1309h-313q-59 0 -95.5 -4t-72.5 -10q-71 -13 -177 -111.5t-174 -200.5h-70l136 401h1061zM1190 1837l-290 -284q-24 -23 -38 -34t-63 -11q-41 0 -55 13
t-24 28l-180 288l49 32l234 -212l320 212z" />
    <glyph glyph-name="zcaron" unicode="&#x17e;" horiz-adv-x="909" 
d="M934 979l-13 -59l-714 -841q36 -1 78 -1.5t92 -0.5q39 0 82 1.5t109 4.5q40 2 65.5 28t42.5 58q15 26 43 81.5t46 97.5h60l-68 -348h-784l16 70l703 830h-131q-87 0 -137 -3t-94 -20q-33 -12 -68 -69t-66 -132h-61l59 303h740zM923 1510l-303 -347q-24 -27 -36 -36
t-61 -9q-38 0 -52.5 10t-25.5 31l-172 351l49 32l224 -273l330 273z" />
    <glyph glyph-name="brokenbar" unicode="&#xa6;" horiz-adv-x="768" 
d="M475 723h-127v800h127v-800zM475 -424h-127v810h127v-810z" />
    <glyph glyph-name="Eth" unicode="&#xd0;" horiz-adv-x="1534" 
d="M1515 872q0 -203 -79 -368.5t-207 -274.5q-133 -113 -296.5 -171t-342.5 -58h-619l15 66q26 0 73.5 5t67.5 13q36 14 54 39.5t26 60.5l120 519h-186l22 94h186l94 408q3 12 5.5 26.5t2.5 23.5q0 22 -7.5 38.5t-30.5 27.5q-26 12 -64 20.5t-58 11.5l15 66h601
q90 0 196 -25.5t198 -87.5q97 -65 155.5 -173.5t58.5 -260.5zM1280 871q0 224 -120 348t-319 124q-41 0 -85 -1.5t-69 -2.5l-125 -542h303l-22 -94h-303l-107 -465q-3 -14 -5 -27t-2 -25q0 -60 50 -84.5t164 -24.5q149 0 271.5 68t203.5 181q83 117 124 255t41 290z" />
    <glyph glyph-name="eth" unicode="&#xf0;" horiz-adv-x="1119" 
d="M1120 1453l-216 -110q73 -101 121.5 -227t48.5 -284q0 -159 -39.5 -315t-117.5 -276q-89 -135 -206 -203t-259 -68q-166 0 -275 109.5t-109 290.5q0 130 43.5 241t120.5 196q77 83 179.5 129t214.5 46q92 0 160.5 -45t89.5 -94l9 2q1 12 1 27.5v26.5q0 106 -32 209
t-68 175l-261 -141l-41 75l262 137q-28 45 -62.5 81.5t-71.5 64.5l59 56q45 -25 100.5 -71.5t80.5 -76.5l225 120zM745 248q47 89 71.5 196t24.5 203q0 114 -54 187.5t-155 73.5q-88 0 -161.5 -52.5t-124.5 -164.5q-42 -94 -57.5 -199t-15.5 -175q0 -131 49.5 -203.5
t153.5 -72.5q87 0 156 60t113 147z" />
    <glyph glyph-name="Yacute" unicode="&#xdd;" horiz-adv-x="1260" 
d="M1517 1419l-16 -66q-18 -1 -56 -12.5t-60 -25.5q-44 -23 -61.5 -36.5t-69.5 -68.5q-95 -100 -202 -234l-224 -280q-52 -64 -72.5 -103.5t-38.5 -113.5l-63 -276q-2 -8 -3 -18t-1 -17q0 -25 9 -42t34 -29q22 -10 73.5 -20t81.5 -11l-15 -66h-664l15 66q29 2 85 7t82 15
q40 15 59.5 41.5t27.5 63.5l72 311l6 30t3 18q0 24 -9 62.5t-22 81.5l-72.5 247t-76.5 240q-19 55 -38.5 85.5t-47.5 51.5q-20 15 -51.5 23t-58.5 10l16 66h582l-16 -66q-23 -1 -59 -3t-65 -6q-28 -4 -50.5 -15.5t-22.5 -29.5q0 -19 13 -65.5t41 -138.5l56.5 -179.5
l72.5 -226.5l260.5 321.5t154.5 200.5q31 43 37 55.5t6 21.5q0 34 -49 48t-123 17l16 66h504zM1193 1796q0 -45 -28 -72.5t-74 -49.5l-142 -65.5l-219 -101.5l-27 39l161 145.5l121 117.5q38 38 67 48.5t57 10.5q36 0 60 -20.5t24 -51.5z" />
    <glyph glyph-name="yacute" unicode="&#xfd;" horiz-adv-x="1146" 
d="M717 145h-6q-92 -77 -175 -121t-189 -44q-96 0 -152 55.5t-56 145.5q0 24 4 57t19 98l78 312q11 45 17 78.5t6 64.5q0 56 -18.5 74.5t-75.5 18.5q-22 0 -56 -8t-53 -13l15 64q78 35 137.5 53t95.5 18q80 0 118.5 -36t38.5 -108q0 -18 -4 -49t-12 -62l-91 -365
q-10 -42 -17 -78.5t-7 -55.5q0 -67 32.5 -106t95.5 -39q73 0 142.5 36t130.5 99l166 748l173 12l12 -15l-172 -783q-38 -172 -97 -294t-138 -197q-83 -79 -179 -114t-219 -35q-85 0 -135 12t-79 33q-29 20 -39 45t-10 50q0 43 26 76t75 33q37 0 63 -21t42 -46q18 -27 33 -61
l24 -54h24q57 0 120.5 28t116.5 87q57 64 102.5 165t72.5 242zM948 1466q0 -40 -19 -64.5t-58 -54.5l-121.5 -89l-201.5 -148l-36 32q99 132 137.5 187l82.5 121q35 54 67.5 71t70.5 17q33 0 55.5 -22t22.5 -50z" />
    <glyph glyph-name="Thorn" unicode="&#xde;" horiz-adv-x="1258" 
d="M1249 831q0 -124 -54.5 -220t-141.5 -159q-91 -65 -196.5 -97t-219.5 -32h-186l-31 -135q-2 -9 -3 -19.5t-1 -17.5q0 -22 7.5 -38.5t31.5 -26.5q15 -7 57.5 -13t82.5 -7l-15 -66h-606l15 66q25 2 71 7t67 13q36 14 54 39t26 63l238 1032q2 8 3.5 18t1.5 19q0 21 -7.5 35
t-31.5 26t-60.5 21.5t-66.5 13.5l15 66h597l-15 -66q-24 -1 -65.5 -7.5t-74.5 -16.5q-39 -13 -55 -38t-25 -61l-23 -98h241q169 0 269.5 -82t100.5 -219zM907 537q49 59 73 132t24 154q0 47 -12.5 88.5t-43.5 73.5q-30 32 -78.5 50.5t-116.5 18.5h-133l-149 -648h123
q106 0 185.5 36.5t127.5 94.5z" />
    <glyph glyph-name="thorn" unicode="&#xfe;" horiz-adv-x="1132" 
d="M1062 627q0 -134 -47 -254t-125 -208q-87 -97 -188.5 -144t-208.5 -47q-86 0 -141 21t-98 52l-58 -262q-6 -25 -9.5 -47t-3.5 -35q0 -27 19.5 -43t44.5 -23q25 -8 56 -12t56 -6l-14 -63h-551l14 63q32 2 60 5t53 10q31 9 49.5 33.5t26.5 60.5l354 1559l9 42.5t3 30.5
q0 36 -12 55.5t-34 29.5q-21 9 -53 12t-65 7l14 61l371 23l10 -15l-153 -665h5q63 61 140.5 101t154.5 40q152 0 236.5 -103.5t84.5 -278.5zM856 622q0 53 -9.5 106.5t-30.5 88.5q-22 39 -60 60.5t-100 21.5q-46 0 -101.5 -28t-135.5 -105l-128 -567q7 -57 61.5 -106.5
t131.5 -49.5q79 0 148 46t118 125q51 82 78.5 186.5t27.5 221.5z" />
    <glyph glyph-name="minus" unicode="&#x2212;" horiz-adv-x="1317" 
d="M1193 497h-1019v125h1019v-125z" />
    <glyph glyph-name="multiply" unicode="&#xd7;" horiz-adv-x="1317" 
d="M1133 199l-89 -89l-361 363l-362 -364l-88 89l364 362l-364 361l89 88l361 -362l362 363l88 -88l-364 -362z" />
    <glyph glyph-name="onesuperior" unicode="&#xb9;" 
d="M823 1445l-33.5 -123.5t-28.5 -113.5l-130 -564q-1 -4 -1.5 -9t-0.5 -9q0 -18 6 -29.5t23 -20.5q17 -8 61 -14t75 -6l-16 -66h-545l16 66q30 1 80 4.5t71 10.5q23 8 38.5 22.5t21.5 42.5l147 636h-197l17 73h52q80 0 149.5 27.5t121.5 72.5h73z" />
    <glyph glyph-name="twosuperior" unicode="&#xb2;" 
d="M987 1225q0 -80 -30 -144.5t-77 -109.5q-48 -46 -106 -81t-128 -66q-71 -31 -173 -85.5t-173 -109.5h624l-32 -139h-753l26 111q65 80 168 143.5l195 118.5q43 26 100.5 69t88.5 81q39 47 61 98t22 124q0 70 -41 109t-109 39q-51 0 -95.5 -18.5t-68.5 -47.5
q0 -9 1.5 -25.5t1.5 -38.5q0 -67 -30 -101t-100 -34q-39 0 -56 22.5t-17 52.5q0 42 29.5 86.5t82.5 84.5q51 39 124.5 64t159.5 25q135 0 220 -60.5t85 -167.5z" />
    <glyph glyph-name="threesuperior" unicode="&#xb3;" 
d="M970 1254q0 -31 -13.5 -70.5t-41.5 -71.5q-32 -36 -77.5 -66t-125.5 -50l-2 -9q38 -4 78 -17.5t70 -34.5q31 -22 50.5 -56.5t19.5 -81.5q0 -148 -137.5 -245t-343.5 -97q-137 0 -216.5 54t-79.5 123q0 38 28.5 80.5t78.5 42.5q48 0 72 -19.5t24 -50.5q0 -25 -14.5 -55
t-27.5 -49q20 -23 58 -40.5t95 -17.5q114 0 193.5 80t79.5 204q0 60 -41.5 94t-136.5 34h-110l24 90h74q115 0 174 68t59 170q0 50 -31.5 85.5t-103.5 35.5q-49 0 -90.5 -18.5t-65.5 -43.5q0 -8 1.5 -19.5t1.5 -26.5q0 -63 -25.5 -97.5t-100.5 -34.5q-38 0 -55 20t-17 49
q0 40 26 79.5t80 78.5q50 35 124 58.5t165 23.5q84 0 140 -20t87 -51q30 -30 41.5 -63.5t11.5 -64.5z" />
    <glyph glyph-name="onehalf" unicode="&#xbd;" horiz-adv-x="2150" 
d="M734 1445l-33.5 -123.5t-28.5 -113.5l-130 -564q-1 -4 -1.5 -9t-0.5 -9q0 -18 6 -29.5t23 -20.5q17 -8 61 -14t75 -6l-16 -66h-545l16 66q30 1 80 4.5t71 10.5q23 8 38.5 22.5t21.5 42.5l147 636h-197l17 73h52q80 0 149.5 27.5t121.5 72.5h73zM2041 735
q0 -80 -30 -144.5t-77 -109.5q-48 -46 -106 -81t-128 -66q-71 -31 -173 -85.5t-173 -109.5h624l-32 -139h-753l26 111q65 80 168 143.5l195 118.5q43 26 100.5 69t88.5 81q39 47 61 98t22 124q0 70 -41 109t-109 39q-51 0 -95.5 -18.5t-68.5 -47.5q0 -9 1.5 -25.5t1.5 -38.5
q0 -67 -30 -101t-100 -34q-39 0 -56 22.5t-17 52.5q0 42 29.5 86.5t82.5 84.5q51 39 124.5 64t159.5 25q135 0 220 -60.5t85 -167.5zM1641 1419l-1047 -1419h-135l1045 1419h137z" />
    <glyph glyph-name="onequarter" unicode="&#xbc;" horiz-adv-x="2150" 
d="M734 1445l-33.5 -123.5t-28.5 -113.5l-130 -564q-1 -4 -1.5 -9t-0.5 -9q0 -18 6 -29.5t23 -20.5q17 -8 61 -14t75 -6l-16 -66h-545l16 66q30 1 80 4.5t71 10.5q23 8 38.5 22.5t21.5 42.5l147 636h-197l17 73h52q80 0 149.5 27.5t121.5 72.5h73zM1948 319l-25 -104h-159
l-53 -235h-166l53 235h-495l29 123l687 623h118l-148 -642h159zM1726 767l-493 -448h390zM1651 1419l-1047 -1419h-135l1045 1419h137z" />
    <glyph glyph-name="threequarters" unicode="&#xbe;" horiz-adv-x="2150" 
d="M970 1254q0 -31 -13.5 -70.5t-41.5 -71.5q-32 -36 -77.5 -66t-125.5 -50l-2 -9q38 -4 78 -17.5t70 -34.5q31 -22 50.5 -56.5t19.5 -81.5q0 -148 -137.5 -245t-343.5 -97q-137 0 -216.5 54t-79.5 123q0 38 28.5 80.5t78.5 42.5q48 0 72 -19.5t24 -50.5q0 -25 -14.5 -55
t-27.5 -49q20 -23 58 -40.5t95 -17.5q114 0 193.5 80t79.5 204q0 60 -41.5 94t-136.5 34h-110l24 90h74q115 0 174 68t59 170q0 50 -31.5 85.5t-103.5 35.5q-49 0 -90.5 -18.5t-65.5 -43.5q0 -8 1.5 -19.5t1.5 -26.5q0 -63 -25.5 -97.5t-100.5 -34.5q-38 0 -55 20t-17 49
q0 40 26 79.5t80 78.5q50 35 124 58.5t165 23.5q84 0 140 -20t87 -51q30 -30 41.5 -63.5t11.5 -64.5zM2038 319l-25 -104h-159l-53 -235h-166l53 235h-495l29 123l687 623h118l-148 -642h159zM1816 767l-493 -448h390zM1802 1419l-1047 -1419h-135l1045 1419h137z" />
    <glyph glyph-name="franc" unicode="&#x20a3;" horiz-adv-x="1227" 
d="M1374 1419l-84 -355h-75q-3 103 -43.5 183t-103.5 90q-31 4 -72.5 6t-95.5 2h-227l-127 -547h149q77 0 121 15.5t80 48.5q25 22 46 56t41 84h75l-113 -487h-75v22q0 27 -4 63.5t-15 54.5q-26 40 -68.5 53.5t-106.5 13.5h-148l-60 -263h263l-22 -92h-262l-40 -172
q-2 -8 -3 -16.5t-1 -16.5q0 -22 9 -38.5t31 -29.5q15 -8 66.5 -17t79.5 -11l-16 -66h-618l16 66q31 2 80 6.5t67 11.5q35 14 53 39.5t26 60.5l42 183h-193l22 92h192l176 759q2 10 3.5 19.5t1.5 19.5q0 20 -7.5 34.5t-31.5 26.5q-22 12 -65 22t-72 13l16 66h1093z" />
    <glyph glyph-name="Gbreve" unicode="&#x11e;" horiz-adv-x="1485" 
d="M667 -33q-120 0 -223 38t-180 112t-120.5 180t-43.5 243q0 193 67.5 358.5t184.5 289.5q115 123 272 193.5t331 70.5q138 0 236.5 -31.5t154.5 -69.5l56 68h80l-105 -496h-82q-2 83 -14 163t-50 144q-39 65 -107 103t-190 38q-123 0 -232.5 -63.5t-192.5 -178.5
q-81 -111 -127.5 -267t-46.5 -334q0 -222 105 -350t290 -128q88 0 153 26t103 58q14 41 26.5 86.5t27.5 111.5l19 86l4.5 26t2.5 28q0 25 -6.5 41t-31.5 27q-29 15 -84.5 22.5t-85.5 9.5l15 68h623l-15 -68q-26 -3 -67.5 -9.5t-69.5 -18.5q-36 -16 -53.5 -43t-26.5 -64
l-26 -115q-23 -95 -32 -142t-16 -89l-117.5 -47t-128.5 -39q-70 -18 -134.5 -28t-142.5 -10zM1327 1851q-58 -161 -150.5 -241t-227.5 -80q-128 0 -193 75t-65 221v12.5v12.5l56 16q15 -101 67 -146t162 -45q121 0 185.5 52t111.5 139z" />
    <glyph glyph-name="gbreve" unicode="&#x11f;" horiz-adv-x="1173" 
d="M709 135l-7 2l-56.5 -45t-76.5 -51q-46 -27 -93 -44t-104 -17q-145 0 -223.5 102.5t-78.5 282.5q0 124 45.5 241t124.5 208q76 88 182 141.5t222 53.5q72 0 136 -18.5t103 -43.5l183 47l12 -15l-168 -788q-38 -179 -97.5 -302.5t-137.5 -195.5q-80 -74 -176.5 -105.5
t-218.5 -31.5q-83 0 -135.5 13t-82.5 34t-40.5 47.5t-10.5 50.5q0 45 27 75.5t74 30.5q37 0 63 -21.5t42 -46.5q17 -26 33 -62l24 -54h30q55 0 118 25t115 81q53 58 99 155.5t73 250.5zM843 774q0 28 -8.5 57.5t-31.5 54.5q-22 24 -56 38t-87 14q-77 0 -145.5 -46.5
t-123.5 -127.5q-51 -76 -83 -184t-32 -217q0 -59 8.5 -108.5t29.5 -86.5t55.5 -57.5t89.5 -20.5q70 0 139 40.5t131 103.5zM1029 1495q-60 -182 -151.5 -275t-226.5 -93q-127 0 -188 86t-61 250q0 7 0.5 15.5t0.5 16.5l52 12q7 -52 17.5 -91t35.5 -72q24 -32 61 -49.5
t104 -17.5q108 0 176 56.5t122 173.5z" />
    <glyph glyph-name="Idotaccent" unicode="&#x130;" horiz-adv-x="798" 
d="M922 1419l-15 -66q-31 -1 -81 -9t-74 -15q-42 -13 -60 -40t-26 -59l-240 -1037q-2 -7 -3 -16t-1 -16q0 -23 10 -39t36 -28q15 -7 66 -16.5t76 -11.5l-15 -66h-639l15 66l80 6t74 12q39 14 59 38.5t27 59.5l239 1038q2 9 3 18t1 18q0 20 -8.5 35t-35.5 27t-73.5 22.5
t-68.5 12.5l15 66h639zM766 1738q0 -57 -37.5 -98.5t-92.5 -41.5q-51 0 -88.5 39t-37.5 92q0 55 37.5 95t88.5 40q57 0 93.5 -37.5t36.5 -88.5z" />
    <glyph glyph-name="Scedilla" unicode="&#x15e;" horiz-adv-x="1149" 
d="M464 -29q-118 6 -200 35t-136 66l-57 -73h-80l98 486h81q5 -87 23.5 -163t60.5 -137q42 -63 109 -97.5t166 -34.5q149 0 239 82.5t90 225.5q0 77 -38 137t-114 93q-72 31 -142.5 55.5t-138.5 57.5q-90 43 -145 123.5t-55 181.5q0 96 42.5 177t112.5 140q68 57 164.5 91
t191.5 34q89 0 168.5 -21t159.5 -79l55 68h80l-101 -471h-81q-3 77 -15.5 159t-42.5 136q-33 59 -92 92.5t-157 33.5q-118 0 -198 -81.5t-80 -193.5q0 -74 29.5 -125.5t91.5 -83.5q66 -34 138.5 -58.5t129.5 -51.5q115 -54 179.5 -130t64.5 -186q0 -106 -46 -198t-123 -154
q-72 -59 -161.5 -93.5t-193.5 -40.5l-15 -72q102 0 154 -35.5t52 -91.5q0 -65 -37.5 -109.5t-97.5 -67.5q-56 -22 -131.5 -31.5t-169.5 -9.5l15 72q42 0 94 1.5t87 10.5q41 10 65 28.5t24 57.5q0 32 -34.5 49.5t-119.5 17.5z" />
    <glyph glyph-name="scedilla" unicode="&#x15f;" horiz-adv-x="883" 
d="M339 -29q-142 5 -232 57t-90 133q0 40 29 75t71 35q40 0 64.5 -18.5t38.5 -43.5q15 -26 26.5 -62l19.5 -59q15 -17 41.5 -31.5t76.5 -14.5q108 0 163.5 54t55.5 146q0 68 -52 108.5t-155 74.5q-37 12 -87 36.5t-80 52.5q-36 32 -58 76t-22 104q0 128 114.5 221.5
t281.5 93.5q39 0 84 -4t99 -22q47 -16 80 -47.5t33 -81.5q0 -41 -27.5 -74.5t-72.5 -33.5q-37 0 -61 16t-40 43t-26 58t-22 61q-19 8 -34 11t-40 3q-98 0 -148.5 -52.5t-50.5 -124.5q0 -70 45.5 -105.5t150.5 -73.5q136 -49 197.5 -112t61.5 -156q0 -139 -100.5 -232
t-256.5 -108l-16 -73q102 0 154 -35.5t52 -91.5q0 -65 -37.5 -109.5t-97.5 -67.5q-56 -22 -131.5 -31.5t-169.5 -9.5l15 72q42 0 94 1.5t87 10.5q41 10 65 28.5t24 57.5q0 32 -34.5 49.5t-119.5 17.5z" />
    <glyph glyph-name="Cacute" unicode="&#x106;" horiz-adv-x="1315" 
d="M631 -33q-109 0 -206 38t-169 111q-73 74 -114.5 179t-41.5 237q0 189 64 353t176 293q108 124 259.5 199t316.5 75q125 0 219.5 -29t155.5 -72l56 68h80l-108 -506h-82v40q0 82 -13 156.5t-50 134.5q-36 58 -98.5 92.5t-159.5 34.5q-123 0 -228.5 -65.5t-182.5 -174.5
q-76 -106 -122 -261t-46 -316q0 -213 104.5 -345.5t280.5 -132.5q147 0 270.5 87t201.5 233l72 -38q-126 -215 -281 -303t-354 -88zM1203 1796q0 -45 -28 -72.5t-74 -49.5l-142 -65.5l-219 -101.5l-27 39l161 145.5l121 117.5q38 38 67 48.5t57 10.5q36 0 60 -20.5t24 -51.5
z" />
    <glyph glyph-name="cacute" unicode="&#x107;" horiz-adv-x="929" 
d="M445 -28q-175 0 -276.5 102t-101.5 290q0 125 38.5 239.5t107.5 203.5t174.5 145.5t234.5 56.5q143 0 217.5 -60.5t74.5 -152.5q0 -69 -32.5 -121t-97.5 -52q-54 0 -81 27t-27 60q0 32 22 87.5l35 89.5q-11 27 -49 39.5t-79 12.5q-136 0 -234.5 -158.5t-98.5 -388.5
q0 -142 63.5 -225.5t171.5 -83.5q97 0 172.5 52t144.5 147l57 -42q-69 -109 -187.5 -188.5t-248.5 -79.5zM878 1466q0 -40 -19 -64.5t-58 -54.5l-121.5 -89l-201.5 -148l-36 32q99 132 137.5 187l82.5 121q35 54 67.5 71t70.5 17q33 0 55.5 -22t22.5 -50z" />
    <glyph glyph-name="Ccaron" unicode="&#x10c;" horiz-adv-x="1315" 
d="M631 -33q-109 0 -206 38t-169 111q-73 74 -114.5 179t-41.5 237q0 189 64 353t176 293q108 124 259.5 199t316.5 75q125 0 219.5 -29t155.5 -72l56 68h80l-108 -506h-82v40q0 82 -13 156.5t-50 134.5q-36 58 -98.5 92.5t-159.5 34.5q-123 0 -228.5 -65.5t-182.5 -174.5
q-76 -106 -122 -261t-46 -316q0 -213 104.5 -345.5t280.5 -132.5q147 0 270.5 87t201.5 233l72 -38q-126 -215 -281 -303t-354 -88zM1308 1837l-290 -284q-24 -23 -38 -34t-63 -11q-41 0 -55 13t-24 28l-180 288l49 32l234 -212l320 212z" />
    <glyph glyph-name="ccaron" unicode="&#x10d;" horiz-adv-x="929" 
d="M445 -28q-175 0 -276.5 102t-101.5 290q0 125 38.5 239.5t107.5 203.5t174.5 145.5t234.5 56.5q143 0 217.5 -60.5t74.5 -152.5q0 -69 -32.5 -121t-97.5 -52q-54 0 -81 27t-27 60q0 32 22 87.5l35 89.5q-11 27 -49 39.5t-79 12.5q-136 0 -234.5 -158.5t-98.5 -388.5
q0 -142 63.5 -225.5t171.5 -83.5q97 0 172.5 52t144.5 147l57 -42q-69 -109 -187.5 -188.5t-248.5 -79.5zM1013 1510l-303 -347q-24 -27 -36 -36t-61 -9q-38 0 -52.5 10t-25.5 31l-172 351l49 32l224 -273l330 273z" />
    <glyph glyph-name="dcroat" unicode="&#x111;" horiz-adv-x="1178" 
d="M705 137h-7l-57 -49.5t-73 -53.5q-48 -30 -88.5 -46t-99.5 -16q-145 0 -227.5 104.5t-82.5 284.5q0 126 44.5 243t121.5 208q75 88 180.5 142.5t220.5 54.5q69 0 137 -18t112 -44l52 225h-357l20 81h355l8 34q6 27 8.5 42t2.5 33q0 36 -14.5 55t-40.5 28q-24 9 -66 12
t-76 7l14 61l405 23l10 -15l-65 -280h224l-20 -81h-223l-193 -838q-8 -33 -16.5 -75.5t-8.5 -64.5q0 -57 24 -77.5t81 -20.5q19 0 54 6t54 13l-15 -64q-84 -38 -139 -53t-102 -15q-72 0 -114.5 37.5t-42.5 116.5zM846 774q-2 29 -15 56.5t-33 49.5q-23 25 -59.5 41.5
t-86.5 16.5q-77 0 -145.5 -48t-120.5 -128q-50 -77 -80 -185.5t-30 -217.5q0 -61 7 -108t27 -87q19 -37 54 -58.5t93 -21.5q55 0 119.5 33t143.5 115z" />
    <glyph glyph-name="overscore" unicode="&#xaf;" horiz-adv-x="1221" 
d="M1562 1701l-23 -96h-1327l23 96h1327z" />
    <glyph glyph-name="middot" unicode="&#xb7;" horiz-adv-x="572" 
d="M433 559q0 -56 -40.5 -95.5t-96.5 -39.5t-96.5 39.5t-40.5 95.5t40.5 96.5t96.5 40.5t96.5 -40.5t40.5 -96.5z" />
    <glyph glyph-name="Abreve" unicode="&#x102;" horiz-adv-x="1374" 
d="M875 576l-89 554l-340 -554h429zM722 0l15 66q31 3 72.5 8.5t64.5 12.5q31 10 46.5 21t15.5 34q0 8 -12 98l-34 253h-498q-33 -52 -70 -120.5l-57 -104.5q-18 -32 -34.5 -71.5t-16.5 -52.5q0 -33 53 -53t133 -25l-15 -66h-545l15 66q26 2 67.5 11.5t69.5 25.5
q35 20 67.5 49.5t69.5 88.5l379.5 610l363.5 588h80l189 -1229q6 -37 20 -62.5t42 -47.5q20 -14 54 -23.5t60 -10.5l-15 -66h-580zM1289 1851q-58 -161 -150.5 -241t-227.5 -80q-128 0 -193 75t-65 221v12.5v12.5l56 16q15 -101 67 -146t162 -45q121 0 185.5 52t111.5 139z
" />
    <glyph glyph-name="abreve" unicode="&#x103;" horiz-adv-x="1173" 
d="M696 132h-7q-22 -18 -52.5 -45.5t-71.5 -52.5q-39 -25 -85 -43.5t-100 -18.5q-145 0 -227.5 104t-82.5 284q0 124 46 241t127 210q77 89 183 143.5t218 54.5q71 0 135.5 -19t101.5 -43l183 47l12 -15l-152 -645q-8 -31 -16.5 -75.5t-8.5 -65.5q0 -57 24 -77t81 -20
q19 0 54 6t54 13l-15 -64q-90 -36 -134 -52t-107 -16q-72 0 -114 42t-46 107zM839 764q0 33 -7 63t-29 56q-20 25 -55 40t-88 15q-73 0 -142 -48t-124 -129q-52 -76 -85 -184t-33 -219q0 -61 7 -108t27 -86q19 -38 55 -59t91 -21q56 0 117.5 31.5t138.5 110.5zM1027 1495
q-60 -182 -151.5 -275t-226.5 -93q-127 0 -188 86t-61 250q0 7 0.5 15.5t0.5 16.5l52 12q7 -52 17.5 -91t35.5 -72q24 -32 61 -49.5t104 -17.5q108 0 176 56.5t122 173.5z" />
    <glyph glyph-name="Aogonek" unicode="&#x104;" horiz-adv-x="1374" 
d="M875 576l-89 554l-340 -554h429zM722 0l15 66q31 3 72.5 8.5t64.5 12.5q31 10 46.5 21t15.5 34q0 8 -12 98l-34 253h-498q-33 -52 -70 -120.5l-57 -104.5q-18 -32 -34.5 -71.5t-16.5 -52.5q0 -33 53 -53t133 -25l-15 -66h-545l15 66q26 2 67.5 11.5t69.5 25.5
q35 20 67.5 49.5t69.5 88.5l379.5 610l363.5 588h80l189 -1229q6 -37 20 -62.5t42 -47.5q20 -14 54 -23.5t60 -10.5l-15 -66h-164q-54 -44 -96.5 -112.5t-42.5 -144.5q0 -55 42 -85t161 -30l-13 -72h-115q-116 0 -176 42t-60 116q0 72 53.5 143.5t167.5 142.5h-337z" />
    <glyph glyph-name="aogonek" unicode="&#x105;" horiz-adv-x="1173" 
d="M696 132h-7q-22 -18 -52.5 -45.5t-71.5 -52.5q-39 -25 -85 -43.5t-100 -18.5q-145 0 -227.5 104t-82.5 284q0 124 46 241t127 210q77 89 183 143.5t218 54.5q71 0 135.5 -19t101.5 -43l183 47l12 -15l-152 -645q-8 -31 -16.5 -75.5t-8.5 -65.5q0 -57 24 -77t81 -20
q19 0 54 6t54 13l-15 -64q-90 -36 -134 -52t-107 -16h-5.5h-5.5q-41 -35 -80.5 -99.5t-39.5 -140.5q0 -55 42 -85t161 -30l-13 -72h-115q-116 0 -176 42t-60 116q0 72 52 142t165 142q-44 21 -63 55t-22 79zM839 764q0 33 -7 63t-29 56q-20 25 -55 40t-88 15q-73 0 -142 -48
t-124 -129q-52 -76 -85 -184t-33 -219q0 -61 7 -108t27 -86q19 -38 55 -59t91 -21q56 0 117.5 31.5t138.5 110.5z" />
    <glyph glyph-name="Dcaron" unicode="&#x10e;" horiz-adv-x="1534" 
d="M1515 872q0 -203 -79 -368.5t-207 -274.5q-133 -113 -296.5 -171t-342.5 -58h-619l15 66q26 0 73.5 5t67.5 13q36 14 54.5 39.5t25.5 60.5l236 1021q3 12 5.5 26.5t2.5 23.5q0 22 -7.5 38.5t-30.5 27.5q-26 12 -64 20.5t-58 11.5l15 66h601q90 0 196 -25.5t198 -87.5
q97 -65 155.5 -173.5t58.5 -260.5zM1280 871q0 224 -120 348t-319 124q-41 0 -85 -1.5t-69 -2.5l-254 -1101q-3 -14 -5 -27t-2 -25q0 -60 50 -84.5t164 -24.5q149 0 271.5 68t203.5 181q83 117 124 255t41 290zM1258 1837l-290 -284q-24 -23 -38 -34t-63 -11q-41 0 -55 13
t-24 28l-180 288l49 32l234 -212l320 212z" />
    <glyph glyph-name="dcaron" unicode="&#x10f;" horiz-adv-x="1406" 
d="M705 137h-7l-57 -49.5t-73 -53.5q-48 -30 -88.5 -46t-99.5 -16q-145 0 -227.5 104.5t-82.5 284.5q0 126 44.5 243t121.5 208q75 88 180.5 142.5t220.5 54.5q69 0 137 -18t112 -44l78 340q6 27 8.5 42t2.5 33q0 36 -14.5 55t-40.5 28q-24 9 -66 12t-76 7l14 61l405 23
l10 -15l-277 -1199q-8 -33 -16.5 -75.5t-8.5 -64.5q0 -57 24 -77.5t81 -20.5q19 0 54 6t54 13l-15 -64q-84 -38 -139 -53t-102 -15q-72 0 -114.5 37.5t-42.5 116.5zM846 774q-2 29 -15 56.5t-33 49.5q-23 25 -59.5 41.5t-86.5 16.5q-77 0 -145.5 -48t-120.5 -128
q-50 -77 -80 -185.5t-30 -217.5q0 -61 7 -108t27 -87q19 -37 54 -58.5t93 -21.5q55 0 119.5 33t143.5 115zM1583 1404q0 -83 -36 -150.5t-87 -114.5q-54 -51 -111.5 -85.5t-96.5 -53.5l-30 63l85 46.5t72 50.5q32 27 56 62t38 85h-43q-63 0 -90.5 31t-27.5 69q0 48 37 91.5
t101 43.5q68 0 100.5 -38t32.5 -100z" />
    <glyph glyph-name="Dcroat" unicode="&#x110;" horiz-adv-x="1534" 
d="M1515 872q0 -203 -79 -368.5t-207 -274.5q-133 -113 -296.5 -171t-342.5 -58h-619l15 66q26 0 73.5 5t67.5 13q36 14 54 39.5t26 60.5l120 519h-186l22 94h186l94 408q3 12 5.5 26.5t2.5 23.5q0 22 -7.5 38.5t-30.5 27.5q-26 12 -64 20.5t-58 11.5l15 66h601
q90 0 196 -25.5t198 -87.5q97 -65 155.5 -173.5t58.5 -260.5zM1280 871q0 224 -120 348t-319 124q-41 0 -85 -1.5t-69 -2.5l-125 -542h303l-22 -94h-303l-107 -465q-3 -14 -5 -27t-2 -25q0 -60 50 -84.5t164 -24.5q149 0 271.5 68t203.5 181q83 117 124 255t41 290z" />
    <glyph glyph-name="Eogonek" unicode="&#x118;" horiz-adv-x="1338" 
d="M1388 1419l-79 -342h-75q-6 106 -44.5 178t-103.5 82q-30 4 -73 6t-97 2h-228l-131 -571h160q74 0 115 14.5t73 48.5q30 30 58 82.5t40 88.5h75l-128 -555h-74q0 11 1.5 26.5t1.5 33.5q0 37 -5 71t-14 50q-21 39 -60 51t-102 12h-160l-99 -433q-6 -24 -10 -52t-4 -44
q0 -55 39.5 -73t174.5 -18q168 0 228 12t89 35q57 46 133.5 147t102.5 147h72l-123 -418h-178q-54 -44 -96.5 -112.5t-42.5 -144.5q0 -55 42 -85t161 -30l-13 -72h-115q-116 0 -176 42t-60 116q0 72 53.5 143.5t167.5 142.5h-921l15 66q31 2 82 8.5t69 13.5q35 13 53.5 39
t25.5 61l238 1030q2 8 3.5 18t1.5 19q0 20 -8.5 36t-30.5 27q-24 13 -68 23t-69 12l15 66h1098z" />
    <glyph glyph-name="eogonek" unicode="&#x119;" horiz-adv-x="966" 
d="M926 801q0 -106 -66.5 -182t-193.5 -121q-93 -34 -188 -55t-210 -35q0 -158 58.5 -241.5t171.5 -83.5q100 0 176.5 50t150.5 149l57 -42q-47 -71 -107.5 -126t-125.5 -88q-77 -58 -124.5 -129t-47.5 -154q0 -55 42 -85t161 -30l-13 -72h-115q-116 0 -176 42t-60 116
q0 72 53 141.5t133 121.5q-17 -2 -34.5 -3.5t-34.5 -1.5q-177 0 -270.5 99t-93.5 281q0 126 39.5 240.5t115.5 209.5q74 93 181.5 150t237.5 57q144 0 213.5 -58.5t69.5 -149.5zM742 826q0 39 -11 61.5t-28 33.5q-18 12 -38 15t-41 3q-120 0 -221.5 -132t-128.5 -329
q70 10 158 28.5t146 48.5q83 43 123.5 110.5t40.5 160.5z" />
    <glyph glyph-name="Ecaron" unicode="&#x11a;" horiz-adv-x="1338" 
d="M1388 1419l-79 -342h-75q-6 106 -44.5 178t-103.5 82q-30 4 -73 6t-97 2h-228l-131 -571h160q74 0 115 14.5t73 48.5q30 30 58 82.5t40 88.5h75l-128 -555h-74q0 11 1.5 26.5t1.5 33.5q0 37 -5 71t-14 50q-21 39 -60 51t-102 12h-160l-99 -433q-6 -24 -10 -52t-4 -44
q0 -55 39.5 -73t174.5 -18q168 0 228 12t89 35q57 46 133.5 147t102.5 147h72l-123 -418h-1178l15 66q31 2 82 8.5t69 13.5q35 13 53.5 39t25.5 61l238 1030q2 8 3.5 18t1.5 19q0 20 -8.5 36t-30.5 27q-24 13 -68 23t-69 12l15 66h1098zM1240 1837l-290 -284
q-24 -23 -38 -34t-63 -11q-41 0 -55 13t-24 28l-180 288l49 32l234 -212l320 212z" />
    <glyph glyph-name="ecaron" unicode="&#x11b;" horiz-adv-x="966" 
d="M926 801q0 -106 -66.5 -182t-193.5 -121q-93 -34 -188 -55t-210 -35q0 -158 58.5 -241.5t171.5 -83.5q100 0 176.5 50t150.5 149l57 -42q-80 -122 -200 -195t-249 -73q-177 0 -270.5 99t-93.5 281q0 126 39.5 240.5t115.5 209.5q74 93 181.5 150t237.5 57
q144 0 213.5 -58.5t69.5 -149.5zM742 826q0 39 -11 61.5t-28 33.5q-18 12 -38 15t-41 3q-120 0 -221.5 -132t-128.5 -329q70 10 158 28.5t146 48.5q83 43 123.5 110.5t40.5 160.5zM1020 1510l-303 -347q-24 -27 -36 -36t-61 -9q-38 0 -52.5 10t-25.5 31l-172 351l49 32
l224 -273l330 273z" />
    <glyph glyph-name="Lacute" unicode="&#x139;" horiz-adv-x="1236" 
d="M1211 422l-127 -422h-1109l15 66q25 2 71 7t67 13q36 14 54.5 40.5t25.5 61.5l237 1026q2 9 3.5 18.5t1.5 18.5q0 20 -8.5 36.5t-30.5 28.5q-20 12 -58.5 23t-65.5 14l15 66h599l-15 -66q-23 -1 -66.5 -8.5t-76.5 -17.5q-39 -13 -57 -42t-26 -61l-222 -963
q-8 -35 -12.5 -61.5t-4.5 -43.5q0 -55 44.5 -69t162.5 -14q66 0 150.5 11.5t117.5 41.5q51 45 128.5 139.5t115.5 156.5h71zM1063 1796q0 -45 -28 -72.5t-74 -49.5l-142 -65.5l-219 -101.5l-27 39l161 145.5l121 117.5q38 38 67 48.5t57 10.5q36 0 60 -20.5t24 -51.5z" />
    <glyph glyph-name="lacute" unicode="&#x13a;" horiz-adv-x="584" 
d="M570 1404l-249 -1075q-9 -38 -17 -76t-8 -62q0 -57 25.5 -78t82.5 -21q20 0 59.5 5t59.5 12l-15 -64q-90 -36 -138.5 -51t-109.5 -15q-80 0 -121.5 41.5t-41.5 102.5q0 23 4.5 48t12.5 63l213 924l8 36.5t4 36.5q0 36 -12 55.5t-34 29.5q-19 9 -52 12t-66 7l14 61l371 23
zM785 1796q0 -45 -28 -72.5t-74 -49.5l-142 -65.5l-219 -101.5l-27 39l161 145.5l121 117.5q38 38 67 48.5t57 10.5q36 0 60 -20.5t24 -51.5z" />
    <glyph glyph-name="Lcaron" unicode="&#x13d;" horiz-adv-x="1236" 
d="M1211 422l-127 -422h-1109l15 66q25 2 71 7t67 13q36 14 54.5 40.5t25.5 61.5l237 1026q2 9 3.5 18.5t1.5 18.5q0 20 -8.5 36.5t-30.5 28.5q-20 12 -58.5 23t-65.5 14l15 66h599l-15 -66q-23 -1 -66.5 -8.5t-76.5 -17.5q-39 -13 -57 -42t-26 -61l-222 -963
q-8 -35 -12.5 -61.5t-4.5 -43.5q0 -55 44.5 -69t162.5 -14q66 0 150.5 11.5t117.5 41.5q51 45 128.5 139.5t115.5 156.5h71zM1312 1295q0 -83 -36 -150.5t-87 -114.5q-54 -51 -111.5 -85.5t-96.5 -53.5l-30 63l85 46.5t72 50.5q32 27 56 62t38 85h-43q-63 0 -90.5 31
t-27.5 69q0 48 37 91.5t101 43.5q68 0 100.5 -38t32.5 -100z" />
    <glyph glyph-name="lcaron" unicode="&#x13e;" horiz-adv-x="798" 
d="M600 1533l-279 -1204q-9 -38 -17 -76t-8 -62q0 -57 25.5 -78t82.5 -21q20 0 59.5 5t59.5 12l-15 -64q-90 -36 -138.5 -51t-109.5 -15q-80 0 -121.5 41.5t-41.5 102.5q0 23 4.5 48t12.5 63l243 1053q7 31 9.5 43t2.5 30q0 36 -12 55.5t-34 29.5q-21 9 -53 12t-65 7l14 61
l371 23zM975 1404q0 -83 -36 -150.5t-87 -114.5q-54 -51 -111.5 -85.5t-96.5 -53.5l-30 63l85 46.5t72 50.5q32 27 56 62t38 85h-43q-63 0 -90.5 31t-27.5 69q0 48 37 91.5t101 43.5q68 0 100.5 -38t32.5 -100z" />
    <glyph glyph-name="Ldot" unicode="&#x13f;" horiz-adv-x="1236" 
d="M1211 422l-127 -422h-1109l15 66q25 2 71 7t67 13q36 14 54.5 40.5t25.5 61.5l237 1026q2 9 3.5 18.5t1.5 18.5q0 20 -8.5 36.5t-30.5 28.5q-20 12 -58.5 23t-65.5 14l15 66h599l-15 -66q-23 -1 -66.5 -8.5t-76.5 -17.5q-39 -13 -57 -42t-26 -61l-222 -963
q-8 -35 -12.5 -61.5t-4.5 -43.5q0 -55 44.5 -69t162.5 -14q66 0 150.5 11.5t117.5 41.5q51 45 128.5 139.5t115.5 156.5h71zM1198 724q0 -56 -40.5 -95.5t-96.5 -39.5t-96.5 39.5t-40.5 95.5t40.5 96.5t96.5 40.5t96.5 -40.5t40.5 -96.5z" />
    <glyph glyph-name="ldot" unicode="&#x140;" horiz-adv-x="862" 
d="M600 1533l-279 -1204q-9 -38 -17 -76t-8 -62q0 -57 25.5 -78t82.5 -21q20 0 59.5 5t59.5 12l-15 -64q-90 -36 -138.5 -51t-109.5 -15q-80 0 -121.5 41.5t-41.5 102.5q0 23 4.5 48t12.5 63l243 1053q7 31 9.5 43t2.5 30q0 36 -12 55.5t-34 29.5q-21 9 -53 12t-65 7l14 61
l371 23zM875 672q0 -55 -40 -94t-95 -39t-95 39t-40 94t40 95t95 40t95 -40t40 -95z" />
    <glyph glyph-name="Nacute" unicode="&#x143;" horiz-adv-x="1571" 
d="M1759 1419l-16 -66q-27 -1 -89 -16t-90 -31q-43 -25 -70.5 -95.5t-53.5 -180.5l-241 -1044h-90l-582 1198l-178 -774q-12 -52 -20 -105t-8 -86q0 -35 7 -56.5t19 -35.5q17 -21 85 -40t90 -21l-15 -66h-582l15 66q33 3 97 19.5t85 31.5q40 27 68 87.5t58 194.5l159 688
q7 33 10 56.5t3 43.5q0 24 -5.5 45.5t-25.5 45.5q-35 40 -85.5 55.5t-90.5 19.5l16 66h407l540 -1109l163 707q12 53 20 103.5t8 86.5q0 33 -6.5 55.5t-19.5 33.5q-24 21 -81 36.5t-94 20.5l16 66h577zM1330 1796q0 -45 -28 -72.5t-74 -49.5l-142 -65.5l-219 -101.5l-27 39
l161 145.5l121 117.5q38 38 67 48.5t57 10.5q36 0 60 -20.5t24 -51.5z" />
    <glyph glyph-name="nacute" unicode="&#x144;" horiz-adv-x="1208" 
d="M1149 116l-15 -64q-90 -36 -140 -52.5t-101 -16.5q-80 0 -120 41.5t-40 102.5q0 22 4 48.5t13 62.5l98 373q11 43 17.5 78t6.5 56q0 67 -32 106t-95 39q-61 0 -137 -40t-143 -116l-169 -734h-186l149 648l14.5 69.5t9.5 73.5q0 56 -19 75t-76 19q-22 0 -56 -7.5
t-53 -12.5l15 64q78 35 138 52t103 17q79 0 113 -43t36 -119h6q110 88 190 130.5t182 42.5q96 0 150 -55.5t54 -145.5q0 -18 -5.5 -64t-17.5 -91l-84 -321q-9 -32 -17.5 -73.5t-8.5 -64.5q0 -57 25 -77.5t82 -20.5q19 0 54.5 6.5t54.5 13.5zM988 1466q0 -40 -19 -64.5
t-58 -54.5l-121.5 -89l-201.5 -148l-36 32q99 132 137.5 187l82.5 121q35 54 67.5 71t70.5 17q33 0 55.5 -22t22.5 -50z" />
    <glyph glyph-name="Ncaron" unicode="&#x147;" horiz-adv-x="1571" 
d="M1759 1419l-16 -66q-27 -1 -89 -16t-90 -31q-43 -25 -70.5 -95.5t-53.5 -180.5l-241 -1044h-90l-582 1198l-178 -774q-12 -52 -20 -105t-8 -86q0 -35 7 -56.5t19 -35.5q17 -21 85 -40t90 -21l-15 -66h-582l15 66q33 3 97 19.5t85 31.5q40 27 68 87.5t58 194.5l159 688
q7 33 10 56.5t3 43.5q0 24 -5.5 45.5t-25.5 45.5q-35 40 -85.5 55.5t-90.5 19.5l16 66h407l540 -1109l163 707q12 53 20 103.5t8 86.5q0 33 -6.5 55.5t-19.5 33.5q-24 21 -81 36.5t-94 20.5l16 66h577zM1342 1837l-290 -284q-24 -23 -38 -34t-63 -11q-41 0 -55 13t-24 28
l-180 288l49 32l234 -212l320 212z" />
    <glyph glyph-name="ncaron" unicode="&#x148;" horiz-adv-x="1208" 
d="M1149 116l-15 -64q-90 -36 -140 -52.5t-101 -16.5q-80 0 -120 41.5t-40 102.5q0 22 4 48.5t13 62.5l98 373q11 43 17.5 78t6.5 56q0 67 -32 106t-95 39q-61 0 -137 -40t-143 -116l-169 -734h-186l149 648l14.5 69.5t9.5 73.5q0 56 -19 75t-76 19q-22 0 -56 -7.5
t-53 -12.5l15 64q78 35 138 52t103 17q79 0 113 -43t36 -119h6q110 88 190 130.5t182 42.5q96 0 150 -55.5t54 -145.5q0 -18 -5.5 -64t-17.5 -91l-84 -321q-9 -32 -17.5 -73.5t-8.5 -64.5q0 -57 25 -77.5t82 -20.5q19 0 54.5 6.5t54.5 13.5zM1058 1510l-303 -347
q-24 -27 -36 -36t-61 -9q-38 0 -52.5 10t-25.5 31l-172 351l49 32l224 -273l330 273z" />
    <glyph glyph-name="Ohungarumlaut" unicode="&#x150;" horiz-adv-x="1496" 
d="M1477 873q0 -190 -70 -357.5t-183 -286.5q-116 -122 -264.5 -192.5t-307.5 -70.5q-248 0 -400 161t-152 413q0 194 70 360.5t182 287.5q113 123 263.5 194t309.5 71q244 0 398 -157.5t154 -422.5zM1095 339q71 124 109 280t38 312q0 200 -85 319t-250 119
q-128 0 -238 -76t-192 -223q-71 -129 -106.5 -284t-35.5 -292q0 -210 86.5 -327t247.5 -117q137 0 246 82t180 207zM986 1678l-116 -56.5t-206 -114.5l-25 36l147 146.5l98 102.5q35 36 64 55.5t55 19.5q38 0 57.5 -22.5t19.5 -53.5q0 -40 -26 -66.5t-68 -46.5zM1375 1678
l-118.5 -56.5t-208.5 -114.5l-25 36l149.5 146.5l100.5 102.5q35 36 64 55.5t55 19.5q38 0 57.5 -22.5t19.5 -53.5q0 -40 -26 -66.5t-68 -46.5z" />
    <glyph glyph-name="ohungarumlaut" unicode="&#x151;" horiz-adv-x="1100" 
d="M1033 616q0 -118 -40 -236t-116 -207q-77 -92 -185.5 -147.5t-251.5 -55.5q-166 0 -269.5 107t-103.5 288q0 133 44 248t118 202q75 87 185.5 140.5t239.5 53.5q178 0 278.5 -108.5t100.5 -284.5zM829 654q0 142 -50.5 213t-145.5 71q-83 0 -156.5 -51t-126.5 -166
q-41 -87 -60 -193.5t-19 -196.5q0 -143 49.5 -216.5t149.5 -73.5q89 0 158 56t112 142q43 84 66 192.5t23 222.5zM1127 1466q0 -37 -19 -64t-54 -55l-128.5 -102l-171.5 -135l-33 28l123.5 176.5l86.5 131.5q33 52 58.5 72t61.5 20q33 0 54.5 -22.5t21.5 -49.5zM754 1467
q0 -39 -16 -64t-52 -56l-107 -89l-179 -148l-35 28l119.5 180t77.5 128q30 52 56 72t62 20q32 0 53 -22t21 -49z" />
    <glyph glyph-name="Racute" unicode="&#x154;" horiz-adv-x="1437" 
d="M1370 66l-16 -66h-359q-85 202 -160.5 345.5l-159.5 300.5h-148l-106 -458q-2 -8 -3.5 -19t-1.5 -16q0 -23 8.5 -40t30.5 -27q14 -6 59.5 -12.5t75.5 -7.5l-16 -66h-600l16 66q25 2 71 7t66 13q36 14 55 40.5t26 61.5l239 1036q2 10 3.5 20.5t1.5 20.5q0 21 -8 37t-30 25
q-21 8 -61 16t-66 10l15 66h638q86 0 157 -17t119 -47q53 -32 83.5 -84t30.5 -123q0 -94 -35 -171.5t-95 -132.5q-63 -57 -143 -94.5t-176 -59.5l127 -239l115 -217q34 -65 61 -93.5t57 -45.5q25 -14 65 -21t64 -8zM1084 1127q0 102 -62.5 159t-175.5 57h-159l-141 -616h142
q164 0 280 114.5t116 285.5zM1183 1796q0 -45 -28 -72.5t-74 -49.5l-142 -65.5l-219 -101.5l-27 39l161 145.5l121 117.5q38 38 67 48.5t57 10.5q36 0 60 -20.5t24 -51.5z" />
    <glyph glyph-name="racute" unicode="&#x155;" horiz-adv-x="945" 
d="M954 846q0 -28 -8 -61.5t-23 -55.5q-18 -27 -39.5 -41.5t-61.5 -14.5q-54 0 -81 27t-27 60q0 31 15 69.5l31 76.5q-12 0 -39.5 -6.5t-66.5 -25.5t-88.5 -57t-105.5 -101l-161 -716h-186l146 648l14.5 72t9.5 71q0 56 -19 75t-76 19q-22 0 -56 -7.5t-53 -12.5l15 64
q78 35 138 52t103 17q80 0 114 -43.5t34 -130.5h6q119 103 180.5 144t128.5 41q32 0 62 -8t51 -27q22 -21 32.5 -48.5t10.5 -79.5zM868 1466q0 -40 -19 -64.5t-58 -54.5l-121.5 -89l-201.5 -148l-36 32q99 132 137.5 187l82.5 121q35 54 67.5 71t70.5 17q33 0 55.5 -22
t22.5 -50z" />
    <glyph glyph-name="Rcaron" unicode="&#x158;" horiz-adv-x="1437" 
d="M1370 66l-16 -66h-359q-85 202 -160.5 345.5l-159.5 300.5h-148l-106 -458q-2 -8 -3.5 -19t-1.5 -16q0 -23 8.5 -40t30.5 -27q14 -6 59.5 -12.5t75.5 -7.5l-16 -66h-600l16 66q25 2 71 7t66 13q36 14 55 40.5t26 61.5l239 1036q2 10 3.5 20.5t1.5 20.5q0 21 -8 37t-30 25
q-21 8 -61 16t-66 10l15 66h638q86 0 157 -17t119 -47q53 -32 83.5 -84t30.5 -123q0 -94 -35 -171.5t-95 -132.5q-63 -57 -143 -94.5t-176 -59.5l127 -239l115 -217q34 -65 61 -93.5t57 -45.5q25 -14 65 -21t64 -8zM1084 1127q0 102 -62.5 159t-175.5 57h-159l-141 -616h142
q164 0 280 114.5t116 285.5zM1204 1837l-290 -284q-24 -23 -38 -34t-63 -11q-41 0 -55 13t-24 28l-180 288l49 32l234 -212l320 212z" />
    <glyph glyph-name="rcaron" unicode="&#x159;" horiz-adv-x="945" 
d="M954 846q0 -28 -8 -61.5t-23 -55.5q-18 -27 -39.5 -41.5t-61.5 -14.5q-54 0 -81 27t-27 60q0 31 15 69.5l31 76.5q-12 0 -39.5 -6.5t-66.5 -25.5t-88.5 -57t-105.5 -101l-161 -716h-186l146 648l14.5 72t9.5 71q0 56 -19 75t-76 19q-22 0 -56 -7.5t-53 -12.5l15 64
q78 35 138 52t103 17q80 0 114 -43.5t34 -130.5h6q119 103 180.5 144t128.5 41q32 0 62 -8t51 -27q22 -21 32.5 -48.5t10.5 -79.5zM919 1510l-303 -347q-24 -27 -36 -36t-61 -9q-38 0 -52.5 10t-25.5 31l-172 351l49 32l224 -273l330 273z" />
    <glyph glyph-name="Sacute" unicode="&#x15a;" horiz-adv-x="1149" 
d="M493 -29q-123 0 -215.5 30.5t-149.5 70.5l-57 -73h-80l98 486h81q5 -87 23.5 -163t60.5 -137q42 -63 109 -97.5t166 -34.5q149 0 239 82.5t90 225.5q0 77 -38 137t-114 93q-72 31 -142.5 55.5t-138.5 57.5q-90 43 -145 123.5t-55 181.5q0 96 42.5 177t112.5 140
q68 57 164.5 91t191.5 34q89 0 168.5 -21t159.5 -79l55 68h80l-101 -471h-81q-3 77 -15.5 159t-42.5 136q-33 59 -92 92.5t-157 33.5q-118 0 -198 -81.5t-80 -193.5q0 -74 29.5 -125.5t91.5 -83.5q66 -34 138.5 -58.5t129.5 -51.5q115 -54 179.5 -130t64.5 -186
q0 -106 -46 -198t-123 -154q-81 -66 -181.5 -101t-221.5 -35zM1073 1796q0 -45 -28 -72.5t-74 -49.5l-142 -65.5l-219 -101.5l-27 39l161 145.5l121 117.5q38 38 67 48.5t57 10.5q36 0 60 -20.5t24 -51.5z" />
    <glyph glyph-name="sacute" unicode="&#x15b;" horiz-adv-x="883" 
d="M362 -29q-148 0 -246.5 52.5t-98.5 137.5q0 40 29 75t71 35q40 0 64.5 -18.5t38.5 -43.5q15 -26 26.5 -62l19.5 -59q15 -17 41.5 -31.5t76.5 -14.5q108 0 163.5 54t55.5 146q0 68 -52 108.5t-155 74.5q-37 12 -87 36.5t-80 52.5q-36 32 -58 76t-22 104q0 128 114.5 221.5
t281.5 93.5q39 0 84 -4t99 -22q47 -16 80 -47.5t33 -81.5q0 -41 -27.5 -74.5t-72.5 -33.5q-37 0 -61 16t-40 43t-26 58t-22 61q-19 8 -34 11t-40 3q-98 0 -148.5 -52.5t-50.5 -124.5q0 -70 45.5 -105.5t150.5 -73.5q136 -49 197.5 -112t61.5 -156q0 -152 -117 -247.5
t-295 -95.5zM828 1466q0 -40 -19 -64.5t-58 -54.5l-121.5 -89l-201.5 -148l-36 32q99 132 137.5 187l82.5 121q35 54 67.5 71t70.5 17q33 0 55.5 -22t22.5 -50z" />
    <glyph glyph-name="Tcommaaccent" unicode="&#x162;" horiz-adv-x="1267" 
d="M1455 1419l-89 -385h-69q-1 35 -9.5 89t-24.5 97q-17 46 -44.5 79t-65.5 39q-30 4 -76.5 6t-86.5 2h-63l-264 -1145q-2 -8 -3 -17.5t-1 -18.5q0 -24 9 -39.5t34 -27.5q20 -8 72.5 -19.5t85.5 -12.5l-16 -66h-670l16 66q30 2 87 8t83 15q40 15 60 41t28 62l266 1154h-53
q-30 0 -75 -1.5t-92 -6.5q-33 -4 -77 -39.5t-88 -83.5q-42 -47 -76 -95.5t-53 -85.5h-70l89 385h1236zM339 -444l9 57q98 6 141.5 40.5t55.5 87.5h-54q-59 0 -84.5 22t-25.5 55q0 42 35.5 79t95.5 37q58 0 93 -35.5t35 -94.5q0 -120 -84.5 -184t-216.5 -64z" />
    <glyph glyph-name="tcommaaccent" unicode="&#x163;" horiz-adv-x="711" 
d="M303 -21q-95 0 -139 38.5t-44 110.5q0 23 3 43.5t8 46.5l155 668h-178l21 91h182l70 293h180l-68 -293h279l-21 -91h-277l-128 -551q-9 -38 -15 -73.5t-6 -60.5q0 -55 27.5 -80.5t99.5 -25.5q26 0 73 6.5t73 16.5l-17 -73q-70 -27 -132 -46.5t-146 -19.5zM152 -444l9 57
q98 6 141.5 40.5t55.5 87.5h-54q-59 0 -84.5 22t-25.5 55q0 42 35.5 79t95.5 37q58 0 93 -35.5t35 -94.5q0 -120 -84.5 -184t-216.5 -64z" />
    <glyph glyph-name="Tcaron" unicode="&#x164;" horiz-adv-x="1267" 
d="M1455 1419l-89 -385h-69q-1 35 -9.5 89t-24.5 97q-17 46 -44.5 79t-65.5 39q-30 4 -76.5 6t-86.5 2h-63l-264 -1145q-2 -8 -3 -17.5t-1 -18.5q0 -24 9 -39.5t34 -27.5q20 -8 72.5 -19.5t85.5 -12.5l-16 -66h-670l16 66q30 2 87 8t83 15q40 15 60 41t28 62l266 1154h-53
q-30 0 -75 -1.5t-92 -6.5q-33 -4 -77 -39.5t-88 -83.5q-42 -47 -76 -95.5t-53 -85.5h-70l89 385h1236zM1231 1837l-290 -284q-24 -23 -38 -34t-63 -11q-41 0 -55 13t-24 28l-180 288l49 32l234 -212l320 212z" />
    <glyph glyph-name="tcaron" unicode="&#x165;" horiz-adv-x="711" 
d="M303 -21q-95 0 -139 38.5t-44 110.5q0 23 3 43.5t8 46.5l155 668h-178l21 91h182l70 293h180l-68 -293h279l-21 -91h-277l-128 -551q-9 -38 -15 -73.5t-6 -60.5q0 -55 27.5 -80.5t99.5 -25.5q26 0 73 6.5t73 16.5l-17 -73q-70 -27 -132 -46.5t-146 -19.5zM887 1195
q-44 -38 -100 -69t-106 -52l-23 59l78 39t64 41q32 26 52 55.5t33 69.5h-38q-60 0 -88.5 26.5t-28.5 63.5q0 24 8.5 44.5t28.5 42.5q17 19 44 31t57 12q67 0 100 -35.5t33 -91.5q0 -75 -31.5 -133.5t-82.5 -102.5z" />
    <glyph glyph-name="Uring" unicode="&#x16e;" horiz-adv-x="1549" 
d="M659 -34q-210 0 -328.5 89t-118.5 237q0 21 2.5 39.5t7.5 42.5l195 844q2 8 3 17t1 17q0 20 -9 37.5t-29 30.5q-22 14 -59 22t-62 11l16 66h590l-16 -66q-28 -1 -72 -9t-66 -15q-39 -13 -56 -41t-25 -60l-182 -789q-6 -26 -10.5 -58t-4.5 -62q0 -52 11 -90.5t48 -77.5
q31 -34 86.5 -55.5t139.5 -21.5q114 0 195 35.5t135 88.5q51 51 83.5 113t45.5 119q36 144 67 280.5l66 298.5q17 80 23.5 130t6.5 82q0 29 -6 46.5t-21 30.5q-29 25 -87 38.5t-88 16.5l16 66h580l-16 -66q-27 -1 -85 -12.5t-94 -32.5q-41 -24 -72.5 -105.5t-51.5 -170.5
l-63.5 -288.5t-74.5 -315.5q-35 -139 -105.5 -229.5t-158.5 -141.5q-85 -49 -176 -70t-181 -21zM1308 1678q0 -108 -83 -183.5t-215 -75.5q-104 0 -164 50t-60 132q0 109 86 186t214 77q100 0 161 -51.5t61 -134.5zM1182 1678q0 52 -26.5 89.5t-80.5 37.5q-73 0 -118 -61
t-45 -140q0 -55 27 -90.5t82 -35.5q74 0 117.5 59t43.5 141z" />
    <glyph glyph-name="uring" unicode="&#x16f;" horiz-adv-x="1178" 
d="M707 140h-6l-88 -68t-83 -52q-48 -24 -87 -34.5t-102 -10.5q-96 0 -149 55.5t-53 145.5q0 24 4 57t19 98l78 317q10 44 16.5 78t6.5 65q0 56 -18.5 74.5t-75.5 18.5q-22 0 -56 -8t-53 -13l15 64q78 35 137.5 53t95.5 18q80 0 117.5 -37.5t37.5 -106.5q0 -18 -4 -49
t-12 -62l-89 -370q-10 -42 -16.5 -78.5t-6.5 -55.5q0 -67 29 -106t92 -39q64 0 131.5 33.5t135.5 101.5l175 753l174 12l12 -15l-149 -644q-10 -41 -18 -82.5t-8 -58.5q0 -57 24.5 -77.5t81.5 -20.5q19 0 54 6t54 13l-15 -64q-83 -34 -138.5 -51t-102.5 -17q-81 0 -120.5 47
t-39.5 110zM964 1373q0 -108 -83 -183.5t-215 -75.5q-104 0 -164 50t-60 132q0 109 86 186t214 77q100 0 161 -51.5t61 -134.5zM838 1373q0 52 -26.5 89.5t-80.5 37.5q-73 0 -118 -61t-45 -140q0 -55 27 -90.5t82 -35.5q74 0 117.5 59t43.5 141z" />
    <glyph glyph-name="Uhungarumlaut" unicode="&#x170;" horiz-adv-x="1549" 
d="M659 -34q-210 0 -328.5 89t-118.5 237q0 21 2.5 39.5t7.5 42.5l195 844q2 8 3 17t1 17q0 20 -9 37.5t-29 30.5q-22 14 -59 22t-62 11l16 66h590l-16 -66q-28 -1 -72 -9t-66 -15q-39 -13 -56 -41t-25 -60l-182 -789q-6 -26 -10.5 -58t-4.5 -62q0 -52 11 -90.5t48 -77.5
q31 -34 86.5 -55.5t139.5 -21.5q114 0 195 35.5t135 88.5q51 51 83.5 113t45.5 119q36 144 67 280.5l66 298.5q17 80 23.5 130t6.5 82q0 29 -6 46.5t-21 30.5q-29 25 -87 38.5t-88 16.5l16 66h580l-16 -66q-27 -1 -85 -12.5t-94 -32.5q-41 -24 -72.5 -105.5t-51.5 -170.5
l-63.5 -288.5t-74.5 -315.5q-35 -139 -105.5 -229.5t-158.5 -141.5q-85 -49 -176 -70t-181 -21zM1026 1678l-116 -56.5t-206 -114.5l-25 36l147 146.5l98 102.5q35 36 64 55.5t55 19.5q38 0 57.5 -22.5t19.5 -53.5q0 -40 -26 -66.5t-68 -46.5zM1415 1678l-118.5 -56.5
t-208.5 -114.5l-25 36l149.5 146.5l100.5 102.5q35 36 64 55.5t55 19.5q38 0 57.5 -22.5t19.5 -53.5q0 -40 -26 -66.5t-68 -46.5z" />
    <glyph glyph-name="uhungarumlaut" unicode="&#x171;" horiz-adv-x="1178" 
d="M707 140h-6l-88 -68t-83 -52q-48 -24 -87 -34.5t-102 -10.5q-96 0 -149 55.5t-53 145.5q0 24 4 57t19 98l78 317q10 44 16.5 78t6.5 65q0 56 -18.5 74.5t-75.5 18.5q-22 0 -56 -8t-53 -13l15 64q78 35 137.5 53t95.5 18q80 0 117.5 -37.5t37.5 -106.5q0 -18 -4 -49
t-12 -62l-89 -370q-10 -42 -16.5 -78.5t-6.5 -55.5q0 -67 29 -106t92 -39q64 0 131.5 33.5t135.5 101.5l175 753l174 12l12 -15l-149 -644q-10 -41 -18 -82.5t-8 -58.5q0 -57 24.5 -77.5t81.5 -20.5q19 0 54 6t54 13l-15 -64q-83 -34 -138.5 -51t-102.5 -17q-81 0 -120.5 47
t-39.5 110zM1152 1466q0 -37 -19 -64t-54 -55l-128.5 -102l-171.5 -135l-33 28l123.5 176.5l86.5 131.5q33 52 58.5 72t61.5 20q33 0 54.5 -22.5t21.5 -49.5zM779 1467q0 -39 -16 -64t-52 -56l-107 -89l-179 -148l-35 28l119.5 180t77.5 128q30 52 56 72t62 20q32 0 53 -22
t21 -49z" />
    <glyph glyph-name="Zacute" unicode="&#x179;" horiz-adv-x="1232" 
d="M1387 1419l-8 -35l-1173 -1309h323q85 0 183.5 14t134.5 43q79 62 157 151t124 160h70l-150 -443h-1138l9 35l1173 1309h-313q-59 0 -95.5 -4t-72.5 -10q-71 -13 -177 -111.5t-174 -200.5h-70l136 401h1061zM1161 1796q0 -45 -28 -72.5t-74 -49.5l-142 -65.5l-219 -101.5
l-27 39l161 145.5l121 117.5q38 38 67 48.5t57 10.5q36 0 60 -20.5t24 -51.5z" />
    <glyph glyph-name="zacute" unicode="&#x17a;" horiz-adv-x="909" 
d="M934 979l-13 -59l-714 -841q36 -1 78 -1.5t92 -0.5q39 0 82 1.5t109 4.5q40 2 65.5 28t42.5 58q15 26 43 81.5t46 97.5h60l-68 -348h-784l16 70l703 830h-131q-87 0 -137 -3t-94 -20q-33 -12 -68 -69t-66 -132h-61l59 303h740zM868 1466q0 -40 -19 -64.5t-58 -54.5
l-121.5 -89l-201.5 -148l-36 32q99 132 137.5 187l82.5 121q35 54 67.5 71t70.5 17q33 0 55.5 -22t22.5 -50z" />
    <glyph glyph-name="Zdotaccent" unicode="&#x17b;" horiz-adv-x="1232" 
d="M1387 1419l-8 -35l-1173 -1309h323q85 0 183.5 14t134.5 43q79 62 157 151t124 160h70l-150 -443h-1138l9 35l1173 1309h-313q-59 0 -95.5 -4t-72.5 -10q-71 -13 -177 -111.5t-174 -200.5h-70l136 401h1061zM974 1738q0 -57 -37.5 -98.5t-92.5 -41.5q-51 0 -88.5 39
t-37.5 92q0 55 37.5 95t88.5 40q57 0 93.5 -37.5t36.5 -88.5z" />
    <glyph glyph-name="zdotaccent" unicode="&#x17c;" horiz-adv-x="909" 
d="M934 979l-13 -59l-714 -841q36 -1 78 -1.5t92 -0.5q39 0 82 1.5t109 4.5q40 2 65.5 28t42.5 58q15 26 43 81.5t46 97.5h60l-68 -348h-784l16 70l703 830h-131q-87 0 -137 -3t-94 -20q-33 -12 -68 -69t-66 -132h-61l59 303h740zM704 1387q0 -57 -37.5 -98.5t-92.5 -41.5
q-51 0 -88.5 39t-37.5 92q0 55 37.5 95t88.5 40q57 0 93.5 -37.5t36.5 -88.5z" />
    <glyph glyph-name="Gamma" unicode="&#x393;" horiz-adv-x="1195" 
d="M1383 1419l-91 -392h-75q-8 132 -47 216t-103 93q-33 5 -81 7t-95 2h-204l-264 -1149q-2 -8 -3 -16.5t-1 -16.5q0 -21 10.5 -37.5t33.5 -29.5q17 -9 75.5 -19t75.5 -11l-15 -66h-637l15 66q26 2 76.5 7t71.5 13q37 13 56 39t27 63l237 1030q2 8 3.5 17.5t1.5 18.5
q0 23 -8.5 38t-32.5 27t-68.5 22t-66.5 12l16 66h1093z" />
    <glyph glyph-name="Theta" unicode="&#x398;" horiz-adv-x="1496" 
d="M1477 873q0 -190 -70 -357.5t-183 -286.5q-116 -122 -264.5 -192.5t-307.5 -70.5q-248 0 -400 161t-152 413q0 194 70 360.5t182 287.5q113 123 263.5 194t309.5 71q244 0 398 -157.5t154 -422.5zM1096 339q71 124 109.5 280t38.5 312q0 200 -86 319t-251 119
q-128 0 -238.5 -76t-192.5 -223q-72 -129 -107.5 -284t-35.5 -292q0 -210 87.5 -327t248.5 -117q137 0 246.5 82t180.5 207zM1015 483h-64q0 34 -2 67.5t-11 53.5q-8 18 -42.5 24.5t-124.5 6.5q-94 0 -129.5 -6.5t-51.5 -24.5q-23 -25 -37 -52t-32 -69h-64l105 451h64
q0 -46 1.5 -70.5t11.5 -48.5q7 -18 38.5 -24.5t128.5 -6.5q89 0 128 6.5t53 24.5q22 25 36.5 50t32.5 69h64z" />
    <glyph glyph-name="Phi" unicode="&#x3a6;" horiz-adv-x="1570" 
d="M1554 801q0 -110 -40 -216t-125 -186q-88 -84 -215.5 -132t-319.5 -48h-39q-7 -28 -12 -51t-5 -33q0 -20 9.5 -35.5t32.5 -25.5q16 -7 58.5 -12.5t82.5 -6.5l-15 -65h-601l15 65q24 2 70.5 6.5t66.5 12.5q36 14 54.5 37t25.5 58l12 50q-242 0 -376.5 108.5t-134.5 302.5
q0 115 39 216.5t126 185.5q83 80 218.5 129.5t316.5 49.5h40q6 26 8.5 38.5t2.5 27.5q0 23 -9.5 36t-30.5 24q-24 12 -63.5 20.5t-64.5 10.5l15 65h592l-15 -65q-30 -1 -69 -5.5t-70 -14.5q-39 -13 -56 -38t-25 -57l-9 -42q249 0 379.5 -110t130.5 -300zM1227 478
q48 76 73 167.5t25 181.5q0 52 -11 105.5t-45 100.5q-33 45 -91 74.5t-151 29.5l-194 -843h66q114 0 196 52.5t132 131.5zM819 1137h-66q-114 0 -194 -51.5t-134 -132.5q-49 -76 -73.5 -169.5t-24.5 -179.5q0 -59 9.5 -106.5t46.5 -99.5q34 -47 93 -75.5t149 -28.5z" />
    <glyph glyph-name="alpha" unicode="&#x3b1;" horiz-adv-x="1225" 
d="M792 201q-68 -102 -166 -165.5t-216 -63.5q-162 0 -250.5 105.5t-88.5 290.5q0 126 44 241t121 205q73 87 179 141t217 54q121 0 200.5 -60.5t97.5 -164.5l70 198l172 12l12 -15q-22 -67 -76.5 -202.5l-124.5 -306.5q-13 -61 -17.5 -118.5t-4.5 -92.5q0 -93 25 -127.5
t82 -34.5q19 0 53.5 5.5t53.5 12.5l-15 -64q-82 -37 -130.5 -52.5t-105.5 -15.5q-71 0 -101.5 34t-30.5 125v59zM847 631q0 54 -11 110t-35 99q-24 44 -64.5 71t-98.5 27q-81 0 -147.5 -55t-113.5 -138q-45 -78 -72.5 -180.5t-27.5 -199.5q0 -132 56 -207.5t153 -75.5
q122 0 212 116.5t141 324.5q5 35 6.5 59.5t1.5 48.5z" />
    <glyph glyph-name="delta" unicode="&#x3b4;" horiz-adv-x="1103" 
d="M1036 607q0 -121 -42.5 -238.5t-118.5 -203.5q-80 -92 -186.5 -143.5t-229.5 -51.5q-185 0 -288.5 110.5t-103.5 281.5q0 120 38.5 217.5t109.5 179.5q67 78 162 131t198 72l1 6q-151 73 -206.5 132t-55.5 157q0 116 127 204.5t348 88.5q156 0 245 -51.5t89 -138.5
q0 -55 -31 -106.5t-97 -51.5q-54 0 -78 22.5t-24 53.5t17.5 74.5t34.5 81.5q-15 13 -61.5 29.5t-107.5 16.5q-109 0 -185 -61.5t-76 -148.5q0 -41 14 -72.5t47 -60.5q29 -26 82.5 -60.5l115.5 -73.5q149 -94 205.5 -189t56.5 -207zM741 231q47 88 69 180.5t22 187.5
q0 100 -40.5 176t-136.5 131q-93 -7 -164.5 -61.5t-120.5 -134.5q-48 -80 -73 -180.5t-25 -197.5q0 -67 11.5 -117t36.5 -90q26 -41 61.5 -62.5t91.5 -21.5q87 0 155 53.5t113 136.5z" />
    <glyph glyph-name="epsilon" unicode="&#x3b5;" horiz-adv-x="949" 
d="M916 816q0 -59 -30 -108t-93 -49q-53 0 -80 24.5t-27 63.5q0 22 18.5 67.5l31.5 79.5q-17 16 -60.5 30.5t-90.5 14.5q-106 0 -169.5 -68.5t-63.5 -161.5q0 -72 46 -111t140 -39h84l-18 -89h-108q-79 0 -124 -19.5t-76 -52.5q-29 -30 -41.5 -70t-12.5 -76q0 -83 61.5 -132
t159.5 -49q103 0 196.5 55t172.5 171l58 -45q-92 -142 -208 -211.5t-271 -69.5q-174 0 -273 68.5t-99 195.5q0 75 32 126t83 87q45 32 105.5 49t104.5 20l1 10q-110 21 -161.5 71.5t-51.5 124.5q0 42 20 88t74 94q50 44 138 74t213 30q156 0 237.5 -54.5t81.5 -138.5z" />
    <glyph glyph-name="sigma" unicode="&#x3c3;" horiz-adv-x="1166" 
d="M1033 616q0 -118 -40 -236t-116 -207q-77 -92 -185.5 -147.5t-251.5 -55.5q-166 0 -269.5 107t-103.5 288q0 133 44 248t118 202q75 87 185.5 140.5t239.5 53.5q60 0 118 -10.5t92 -18.5h383l-28 -117h-277l-1 -5q41 -46 66.5 -112t25.5 -130zM829 654q0 142 -50.5 208
t-145.5 66q-94 0 -168 -60t-116 -151q-40 -86 -59 -191t-19 -195q0 -143 49.5 -216.5t149.5 -73.5q89 0 158 56t112 142q43 84 66 192.5t23 222.5z" />
    <glyph glyph-name="tau" unicode="&#x3c4;" horiz-adv-x="920" 
d="M764 118l-17 -73q-52 -20 -127.5 -43t-139.5 -23q-95 0 -140 38.5t-45 110.5q0 23 3 43.5t8 46.5l149 645h-88q-49 0 -88.5 -18t-67.5 -49q-27 -29 -43.5 -67t-27.5 -73h-63q5 35 8.5 55.5t12.5 62.5q18 82 98.5 144t177.5 62h636l-28 -117h-339l-122 -528
q-9 -38 -15 -73.5t-6 -60.5q0 -58 25 -82t93 -24q26 0 73 6.5t73 16.5z" />
    <glyph glyph-name="phi" unicode="&#x3c6;" horiz-adv-x="1450" 
d="M1381 630q0 -147 -60 -269.5t-156 -205.5q-97 -84 -219.5 -132t-248.5 -52l-89 -415h-187l90 415q-215 9 -329.5 125t-114.5 291q0 232 140.5 393.5t381.5 217.5v-77q-141 -43 -230.5 -193t-89.5 -360q0 -144 69 -232.5t189 -91.5l155 710q17 77 53 125t79 76
q42 28 99 41t105 13q66 0 130 -23t115 -68q53 -47 85.5 -116.5t32.5 -171.5zM1179 677q0 122 -47 190.5t-123 68.5q-48 0 -81 -27t-49 -102l-166 -763q116 8 204.5 67t144.5 145q58 89 87.5 197.5t29.5 223.5z" />
    <glyph glyph-name="underscoredbl" unicode="&#x2017;" horiz-adv-x="1317" 
d="M1128 -347l-23 -96h-1327l23 96h1327zM1182 -122l-23 -96h-1327l23 96h1327z" />
    <glyph glyph-name="exclamdbl" unicode="&#x203c;" horiz-adv-x="1179" 
d="M667 1356q0 -18 -6 -47.5t-22 -76.5l-115.5 -336l-156.5 -464h-78q34 231 70.5 533.5t47.5 355.5q13 61 58.5 98t100.5 37q48 0 74.5 -28t26.5 -72zM410 115q0 -56 -40.5 -95.5t-96.5 -39.5t-96.5 39.5t-40.5 95.5t40.5 96.5t96.5 40.5t96.5 -40.5t40.5 -96.5zM1167 1356
q0 -18 -6 -47.5t-22 -76.5l-115.5 -336l-156.5 -464h-78q34 231 70.5 533.5t47.5 355.5q13 61 58.5 98t100.5 37q48 0 74.5 -28t26.5 -72zM910 115q0 -56 -40.5 -95.5t-96.5 -39.5t-96.5 39.5t-40.5 95.5t40.5 96.5t96.5 40.5t96.5 -40.5t40.5 -96.5z" />
    <glyph glyph-name="nsuperior" unicode="&#x207f;" 
d="M1052 736l-14 -62q-79 -30 -121.5 -44t-85.5 -14q-71 0 -105 35t-34 86q0 18 3 37t11 52l83 305q11 39 16 63.5t5 42.5q0 52 -26 81.5t-76 29.5t-110 -29.5t-120 -92.5l-145 -595h-162l128 529q4 21 12 56t8 58q0 42 -15 56t-60 14q-19 0 -48 -5.5t-50 -10.5l15 60
q61 26 116 41t90 15q68 0 95 -35t31 -98q93 71 160.5 106.5t152.5 35.5q84 0 130 -46t46 -120q0 -15 -4.5 -52t-14.5 -73l-71 -262q-9 -31 -15.5 -60t-6.5 -50q0 -43 20 -58t65 -15q15 0 45 5.5t52 13.5z" />
    <glyph glyph-name="peseta" unicode="&#x20a7;" horiz-adv-x="2467" 
d="M932 868q41 59 59 130t18 131q0 41 -12 81.5t-39 68.5q-27 29 -73 46t-111 17h-91l-143 -624h55q128 0 210.5 43.5t126.5 106.5zM1565 28q-58 -22 -103 -35.5t-112 -13.5q-96 0 -139 38t-43 111q0 24 3 43.5t9 46.5l150 650h-180q-97 -121 -231 -176.5t-289 -55.5h-110
l-103 -448q-2 -9 -3 -19t-1 -17q0 -22 8 -39t32 -27q15 -7 58 -13t84 -7l-15 -66h-604l15 66q25 2 71 7t67 13q36 14 54.5 40.5t25.5 61.5l239 1034q2 9 3.5 20t1.5 21q0 21 -8 38t-30 26q-32 12 -68.5 18t-65.5 8l15 66h584q168 0 269 -73.5t101 -202.5q0 -47 -11.5 -96
t-29.5 -87h148l66 289h181l-66 -289h254l-22 -92h-252l-123 -533q-11 -45 -19.5 -85.5t-8.5 -68.5q0 -45 23 -67t89 -22q14 0 46.5 3t55.5 7zM2294 967q45 -15 78 -45.5t33 -80.5q0 -40 -27 -73t-71 -33q-37 0 -60.5 16t-39.5 42q-15 26 -25 57t-21 60q-18 7 -33.5 10
t-38.5 3q-96 0 -144.5 -51.5t-48.5 -122.5q0 -69 45 -103.5t145 -70.5q134 -48 193.5 -111t59.5 -153q0 -150 -117.5 -243t-285.5 -93q-54 0 -116 10t-113 35q-51 24 -80 57.5t-29 83.5q0 39 27.5 73.5t70.5 34.5q38 0 61.5 -17t38.5 -44q14 -24 25 -56.5l21 -62.5
q14 -16 40 -30.5t75 -14.5q106 0 159.5 53.5t53.5 142.5q0 67 -49.5 105t-151.5 73q-43 15 -86.5 35.5t-77.5 51.5q-35 32 -56.5 75.5t-21.5 102.5q0 128 113.5 219t274.5 91q38 0 82 -4t97 -22z" />
    <glyph glyph-name="IJ" unicode="&#x132;" horiz-adv-x="1798" 
d="M922 1419l-15 -66q-31 -1 -81 -9t-74 -15q-42 -13 -60 -40t-26 -59l-240 -1037q-2 -7 -3 -16t-1 -16q0 -23 10 -39t36 -28q15 -7 66 -16.5t76 -11.5l-15 -66h-639l15 66l80 6t74 12q39 14 59 38.5t27 59.5l239 1038q2 9 3 18t1 18q0 20 -8.5 35t-35.5 27t-73.5 22.5
t-68.5 12.5l15 66h639zM1947 1419l-15 -66q-29 -1 -72 -7.5t-74 -16.5q-39 -13 -55.5 -39t-25.5 -62l-190 -846q-15 -67 -56 -141.5t-106 -133.5q-69 -63 -150.5 -102t-201.5 -39q-137 0 -220 70t-83 194q0 99 49.5 173t129.5 74q60 0 85 -29t25 -68q0 -35 -17 -72t-44 -72
q-24 -31 -53 -64.5t-45 -56.5q15 -30 55.5 -54t117.5 -24q73 0 124.5 33.5t86.5 89.5t60 132t46 170l170 756q1 5 2.5 15t1.5 18q0 21 -9 38t-31 29q-26 16 -76 24.5t-74 10.5l15 66h630z" />
    <glyph glyph-name="ij" unicode="&#x133;" horiz-adv-x="1180" 
d="M551 109l-15 -64q-92 -37 -147 -51.5t-94 -14.5q-80 0 -120 41.5t-40 102.5q0 23 4 48t13 63l106 425q8 35 15.5 75t7.5 68q0 56 -18.5 74.5t-75.5 18.5q-22 0 -58.5 -7t-55.5 -12l15 64q78 35 140 52t98 17q82 0 119 -39t37 -105q0 -18 -4 -49t-12 -62l-107 -425
q-10 -39 -17.5 -76.5t-7.5 -61.5q0 -57 25.5 -78t82.5 -21q19 0 54.5 5t54.5 12zM622 1387q0 -57 -37 -99.5t-92 -42.5q-51 0 -88 40.5t-37 92.5q0 55 37 96t88 41q57 0 93 -38.5t36 -89.5zM1081 865q0 -20 -4.5 -52t-10.5 -59l-69.5 -341t-78.5 -353q-53 -222 -198.5 -363
t-309.5 -141q-88 0 -129.5 33.5t-41.5 84.5q0 43 26 76t75 33q31 0 54.5 -14t41.5 -35q14 -17 31.5 -46l30.5 -50q71 4 127.5 99.5t98.5 284.5l71.5 322.5t64.5 314.5q8 41 14 77.5t6 65.5q0 56 -18.5 74.5t-75.5 18.5q-26 0 -65.5 -8.5t-57.5 -13.5l15 64q78 35 143.5 53.5
t103.5 18.5q82 0 119 -39t37 -105zM1215 1387q0 -57 -37 -99.5t-92 -42.5q-51 0 -88 40.5t-37 92.5q0 55 37 96t88 41q57 0 93 -38.5t36 -89.5z" />
    <glyph glyph-name="napostrophe" unicode="&#x149;" horiz-adv-x="1288" 
d="M1229 116l-15 -64q-90 -36 -140 -52.5t-101 -16.5q-80 0 -120 41.5t-40 102.5q0 22 4 48.5t13 62.5l98 373q11 43 17.5 78t6.5 56q0 67 -32 106t-95 39q-61 0 -137 -40t-143 -116l-169 -734h-186l149 648l14.5 69.5t9.5 73.5q0 56 -19 75t-76 19q-22 0 -56 -7.5
t-53 -12.5l15 64q78 35 138 52t103 17q79 0 113 -43t36 -119h6q110 88 190 130.5t182 42.5q96 0 150 -55.5t54 -145.5q0 -18 -5.5 -64t-17.5 -91l-84 -321q-9 -32 -17.5 -73.5t-8.5 -64.5q0 -57 25 -77.5t82 -20.5q19 0 54.5 6.5t54.5 13.5zM413 1391q0 -83 -36 -150.5
t-87 -114.5q-54 -51 -111.5 -85.5t-96.5 -53.5l-30 63l85 46.5t72 50.5q32 27 56 62t38 85h-43q-63 0 -90.5 31t-27.5 69q0 48 37 91.5t101 43.5q68 0 100.5 -38t32.5 -100z" />
    <glyph glyph-name="minute" unicode="&#x2032;" horiz-adv-x="658" 
d="M603 1239l-118 -158l-181 -244h-72l93 253l74 209q30 87 70.5 122t97.5 35q51 0 72 -29.5t21 -61.5q0 -28 -15.5 -60.5t-41.5 -65.5z" />
    <glyph glyph-name="second" unicode="&#x2033;" horiz-adv-x="1059" 
d="M603 1239l-118 -158l-181 -244h-72l93 253l74 209q30 87 70.5 122t97.5 35q51 0 72 -29.5t21 -61.5q0 -28 -15.5 -60.5t-41.5 -65.5zM1002 1239l-118 -158l-181 -244h-72l93 253l74 209q30 87 70.5 122t97.5 35q51 0 72 -29.5t21 -61.5q0 -28 -15.5 -60.5t-41.5 -65.5z
" />
    <glyph glyph-name="afii61248" unicode="&#x2105;" horiz-adv-x="1674" 
d="M812 904q-82 -101 -165 -147t-176 -46q-136 0 -213 73.5t-77 206.5q0 88 31.5 168.5t90.5 148.5q57 66 139.5 105.5t176.5 39.5q111 0 166.5 -44t55.5 -107q0 -54 -28.5 -92.5t-82.5 -38.5q-42 0 -63 19t-21 44q0 32 19 67t27 54q-7 15 -33.5 23.5t-55.5 8.5
q-49 0 -91.5 -27t-80.5 -80q-35 -50 -56.5 -120.5t-21.5 -151.5q0 -90 45.5 -146.5t127.5 -56.5q66 0 121 36.5t109 102.5zM1559 428q0 -192 -118 -325.5t-301 -133.5q-132 0 -205.5 74.5t-73.5 204.5q0 89 30 171t82 145q54 65 132.5 105t176.5 40q132 0 204.5 -76
t72.5 -205zM1395 453q0 81 -30.5 135t-96.5 54q-105 0 -173 -121.5t-68 -298.5q0 -78 30 -132t98 -54q99 0 169.5 122t70.5 295zM1676 1424l-1458 -1424h-144l1455 1424h147z" />
    <glyph glyph-name="afii61289" unicode="&#x2113;" horiz-adv-x="662" 
d="M609 1255q0 -139 -64 -273t-224 -282v-488q0 -85 27 -109.5t58 -24.5q41 0 75.5 16t77.5 60l36 -55q-61 -65 -124 -95t-134 -30q-90 0 -146 60.5t-56 165.5v339l-64 -57l-71 77l135 119v558q0 151 76.5 231.5t186.5 80.5q103 0 157 -77.5t54 -215.5zM497 1242
q0 107 -26 154.5t-63 47.5q-35 0 -61 -40.5t-26 -126.5v-436q90 92 133 188.5t43 212.5z" />
    <glyph glyph-name="H22073" unicode="&#x25a1;" horiz-adv-x="1237" 
d="M146 944h944v-944h-944v944zM222 868v-792h792v792h-792z" />
    <glyph glyph-name="H18543" unicode="&#x25aa;" horiz-adv-x="726" 
d="M594 908v-463h-463v463h463z" />
    <glyph glyph-name="H18551" unicode="&#x25ab;" horiz-adv-x="726" 
d="M594 908v-463h-463v463h463zM518 832h-311v-311h311v311z" />
    <glyph glyph-name="H18533" unicode="&#x25cf;" horiz-adv-x="1237" 
d="M177 576q0 183 129 312t312 129q182 0 311 -129t129 -312q0 -182 -129 -311t-311 -129q-183 0 -312 129t-129 311z" />
    <glyph glyph-name="openbullet" unicode="&#x25e6;" horiz-adv-x="726" 
d="M363 928q104 0 177.5 -73.5t73.5 -177.5t-73.5 -177.5t-177.5 -73.5t-177.5 73.5t-73.5 177.5t73 177.5t178 73.5zM363 852q-73 0 -124 -51.5t-51 -123.5q0 -73 51.5 -124t123.5 -51t123.5 51t51.5 124q0 72 -51 123.5t-124 51.5z" />
    <glyph glyph-name="Amacron" unicode="&#x100;" horiz-adv-x="1374" 
d="M875 576l-89 554l-340 -554h429zM722 0l15 66q31 3 72.5 8.5t64.5 12.5q31 10 46.5 21t15.5 34q0 8 -12 98l-34 253h-498q-33 -52 -70 -120.5l-57 -104.5q-18 -32 -34.5 -71.5t-16.5 -52.5q0 -33 53 -53t133 -25l-15 -66h-545l15 66q26 2 67.5 11.5t69.5 25.5
q35 20 67.5 49.5t69.5 88.5l379.5 610l363.5 588h80l189 -1229q6 -37 20 -62.5t42 -47.5q20 -14 54 -23.5t60 -10.5l-15 -66h-580zM1278 1783l-28 -123h-686l28 123h686z" />
    <glyph glyph-name="amacron" unicode="&#x101;" horiz-adv-x="1173" 
d="M696 132h-7q-22 -18 -52.5 -45.5t-71.5 -52.5q-39 -25 -85 -43.5t-100 -18.5q-145 0 -227.5 104t-82.5 284q0 124 46 241t127 210q77 89 183 143.5t218 54.5q71 0 135.5 -19t101.5 -43l183 47l12 -15l-152 -645q-8 -31 -16.5 -75.5t-8.5 -65.5q0 -57 24 -77t81 -20
q19 0 54 6t54 13l-15 -64q-90 -36 -134 -52t-107 -16q-72 0 -114 42t-46 107zM839 764q0 33 -7 63t-29 56q-20 25 -55 40t-88 15q-73 0 -142 -48t-124 -129q-52 -76 -85 -184t-33 -219q0 -61 7 -108t27 -86q19 -38 55 -59t91 -21q56 0 117.5 31.5t138.5 110.5zM1070 1419
l-28 -123h-686l28 123h686z" />
    <glyph glyph-name="Ccircumflex" unicode="&#x108;" horiz-adv-x="1315" 
d="M631 -33q-109 0 -206 38t-169 111q-73 74 -114.5 179t-41.5 237q0 189 64 353t176 293q108 124 259.5 199t316.5 75q125 0 219.5 -29t155.5 -72l56 68h80l-108 -506h-82v40q0 82 -13 156.5t-50 134.5q-36 58 -98.5 92.5t-159.5 34.5q-123 0 -228.5 -65.5t-182.5 -174.5
q-76 -106 -122 -261t-46 -316q0 -213 104.5 -345.5t280.5 -132.5q147 0 270.5 87t201.5 233l72 -38q-126 -215 -281 -303t-354 -88zM1234 1539l-49 -32l-234 212l-320 -212l-47 32l290 284q19 18 40.5 31.5t60.5 13.5q42 0 56.5 -13.5t22.5 -27.5z" />
    <glyph glyph-name="ccircumflex" unicode="&#x109;" horiz-adv-x="929" 
d="M445 -28q-175 0 -276.5 102t-101.5 290q0 125 38.5 239.5t107.5 203.5t174.5 145.5t234.5 56.5q143 0 217.5 -60.5t74.5 -152.5q0 -69 -32.5 -121t-97.5 -52q-54 0 -81 27t-27 60q0 32 22 87.5l35 89.5q-11 27 -49 39.5t-79 12.5q-136 0 -234.5 -158.5t-98.5 -388.5
q0 -142 63.5 -225.5t171.5 -83.5q97 0 172.5 52t144.5 147l57 -42q-69 -109 -187.5 -188.5t-248.5 -79.5zM912 1150l-49 -32l-224 273l-330 -273l-47 32l303 347q19 23 38.5 34t58.5 11q38 0 53 -10.5t25 -30.5z" />
    <glyph glyph-name="Cdotaccent" unicode="&#x10a;" horiz-adv-x="1315" 
d="M631 -33q-109 0 -206 38t-169 111q-73 74 -114.5 179t-41.5 237q0 189 64 353t176 293q108 124 259.5 199t316.5 75q125 0 219.5 -29t155.5 -72l56 68h80l-108 -506h-82v40q0 82 -13 156.5t-50 134.5q-36 58 -98.5 92.5t-159.5 34.5q-123 0 -228.5 -65.5t-182.5 -174.5
q-76 -106 -122 -261t-46 -316q0 -213 104.5 -345.5t280.5 -132.5q147 0 270.5 87t201.5 233l72 -38q-126 -215 -281 -303t-354 -88zM1046 1738q0 -57 -37.5 -98.5t-92.5 -41.5q-51 0 -88.5 39t-37.5 92q0 55 37.5 95t88.5 40q57 0 93.5 -37.5t36.5 -88.5z" />
    <glyph glyph-name="cdotaccent" unicode="&#x10b;" horiz-adv-x="929" 
d="M445 -28q-175 0 -276.5 102t-101.5 290q0 125 38.5 239.5t107.5 203.5t174.5 145.5t234.5 56.5q143 0 217.5 -60.5t74.5 -152.5q0 -69 -32.5 -121t-97.5 -52q-54 0 -81 27t-27 60q0 32 22 87.5l35 89.5q-11 27 -49 39.5t-79 12.5q-136 0 -234.5 -158.5t-98.5 -388.5
q0 -142 63.5 -225.5t171.5 -83.5q97 0 172.5 52t144.5 147l57 -42q-69 -109 -187.5 -188.5t-248.5 -79.5zM780 1387q0 -57 -37.5 -98.5t-92.5 -41.5q-51 0 -88.5 39t-37.5 92q0 55 37.5 95t88.5 40q57 0 93.5 -37.5t36.5 -88.5z" />
    <glyph glyph-name="Emacron" unicode="&#x112;" horiz-adv-x="1338" 
d="M1388 1419l-79 -342h-75q-6 106 -44.5 178t-103.5 82q-30 4 -73 6t-97 2h-228l-131 -571h160q74 0 115 14.5t73 48.5q30 30 58 82.5t40 88.5h75l-128 -555h-74q0 11 1.5 26.5t1.5 33.5q0 37 -5 71t-14 50q-21 39 -60 51t-102 12h-160l-99 -433q-6 -24 -10 -52t-4 -44
q0 -55 39.5 -73t174.5 -18q168 0 228 12t89 35q57 46 133.5 147t102.5 147h72l-123 -418h-1178l15 66q31 2 82 8.5t69 13.5q35 13 53.5 39t25.5 61l238 1030q2 8 3.5 18t1.5 19q0 20 -8.5 36t-30.5 27q-24 13 -68 23t-69 12l15 66h1098zM1258 1783l-28 -123h-686l28 123h686
z" />
    <glyph glyph-name="emacron" unicode="&#x113;" horiz-adv-x="966" 
d="M926 801q0 -106 -66.5 -182t-193.5 -121q-93 -34 -188 -55t-210 -35q0 -158 58.5 -241.5t171.5 -83.5q100 0 176.5 50t150.5 149l57 -42q-80 -122 -200 -195t-249 -73q-177 0 -270.5 99t-93.5 281q0 126 39.5 240.5t115.5 209.5q74 93 181.5 150t237.5 57
q144 0 213.5 -58.5t69.5 -149.5zM742 826q0 39 -11 61.5t-28 33.5q-18 12 -38 15t-41 3q-120 0 -221.5 -132t-128.5 -329q70 10 158 28.5t146 48.5q83 43 123.5 110.5t40.5 160.5zM1037 1419l-28 -123h-686l28 123h686z" />
    <glyph glyph-name="Ebreve" unicode="&#x114;" horiz-adv-x="1338" 
d="M1388 1419l-79 -342h-75q-6 106 -44.5 178t-103.5 82q-30 4 -73 6t-97 2h-228l-131 -571h160q74 0 115 14.5t73 48.5q30 30 58 82.5t40 88.5h75l-128 -555h-74q0 11 1.5 26.5t1.5 33.5q0 37 -5 71t-14 50q-21 39 -60 51t-102 12h-160l-99 -433q-6 -24 -10 -52t-4 -44
q0 -55 39.5 -73t174.5 -18q168 0 228 12t89 35q57 46 133.5 147t102.5 147h72l-123 -418h-1178l15 66q31 2 82 8.5t69 13.5q35 13 53.5 39t25.5 61l238 1030q2 8 3.5 18t1.5 19q0 20 -8.5 36t-30.5 27q-24 13 -68 23t-69 12l15 66h1098zM1247 1851q-58 -161 -150.5 -241
t-227.5 -80q-128 0 -193 75t-65 221v12.5v12.5l56 16q15 -101 67 -146t162 -45q121 0 185.5 52t111.5 139z" />
    <glyph glyph-name="ebreve" unicode="&#x115;" horiz-adv-x="966" 
d="M926 801q0 -106 -66.5 -182t-193.5 -121q-93 -34 -188 -55t-210 -35q0 -158 58.5 -241.5t171.5 -83.5q100 0 176.5 50t150.5 149l57 -42q-80 -122 -200 -195t-249 -73q-177 0 -270.5 99t-93.5 281q0 126 39.5 240.5t115.5 209.5q74 93 181.5 150t237.5 57
q144 0 213.5 -58.5t69.5 -149.5zM742 826q0 39 -11 61.5t-28 33.5q-18 12 -38 15t-41 3q-120 0 -221.5 -132t-128.5 -329q70 10 158 28.5t146 48.5q83 43 123.5 110.5t40.5 160.5zM1006 1495q-60 -182 -151.5 -275t-226.5 -93q-127 0 -188 86t-61 250q0 7 0.5 15.5t0.5 16.5
l52 12q7 -52 17.5 -91t35.5 -72q24 -32 61 -49.5t104 -17.5q108 0 176 56.5t122 173.5z" />
    <glyph glyph-name="Edotaccent" unicode="&#x116;" horiz-adv-x="1338" 
d="M1388 1419l-79 -342h-75q-6 106 -44.5 178t-103.5 82q-30 4 -73 6t-97 2h-228l-131 -571h160q74 0 115 14.5t73 48.5q30 30 58 82.5t40 88.5h75l-128 -555h-74q0 11 1.5 26.5t1.5 33.5q0 37 -5 71t-14 50q-21 39 -60 51t-102 12h-160l-99 -433q-6 -24 -10 -52t-4 -44
q0 -55 39.5 -73t174.5 -18q168 0 228 12t89 35q57 46 133.5 147t102.5 147h72l-123 -418h-1178l15 66q31 2 82 8.5t69 13.5q35 13 53.5 39t25.5 61l238 1030q2 8 3.5 18t1.5 19q0 20 -8.5 36t-30.5 27q-24 13 -68 23t-69 12l15 66h1098zM1035 1738q0 -57 -37.5 -98.5
t-92.5 -41.5q-51 0 -88.5 39t-37.5 92q0 55 37.5 95t88.5 40q57 0 93.5 -37.5t36.5 -88.5z" />
    <glyph glyph-name="edotaccent" unicode="&#x117;" horiz-adv-x="966" 
d="M926 801q0 -106 -66.5 -182t-193.5 -121q-93 -34 -188 -55t-210 -35q0 -158 58.5 -241.5t171.5 -83.5q100 0 176.5 50t150.5 149l57 -42q-80 -122 -200 -195t-249 -73q-177 0 -270.5 99t-93.5 281q0 126 39.5 240.5t115.5 209.5q74 93 181.5 150t237.5 57
q144 0 213.5 -58.5t69.5 -149.5zM742 826q0 39 -11 61.5t-28 33.5q-18 12 -38 15t-41 3q-120 0 -221.5 -132t-128.5 -329q70 10 158 28.5t146 48.5q83 43 123.5 110.5t40.5 160.5zM799 1387q0 -57 -37.5 -98.5t-92.5 -41.5q-51 0 -88.5 39t-37.5 92q0 55 37.5 95t88.5 40
q57 0 93.5 -37.5t36.5 -88.5z" />
    <glyph glyph-name="Gcircumflex" unicode="&#x11c;" horiz-adv-x="1485" 
d="M667 -33q-120 0 -223 38t-180 112t-120.5 180t-43.5 243q0 193 67.5 358.5t184.5 289.5q115 123 272 193.5t331 70.5q138 0 236.5 -31.5t154.5 -69.5l56 68h80l-105 -496h-82q-2 83 -14 163t-50 144q-39 65 -107 103t-190 38q-123 0 -232.5 -63.5t-192.5 -178.5
q-81 -111 -127.5 -267t-46.5 -334q0 -222 105 -350t290 -128q88 0 153 26t103 58q14 41 26.5 86.5t27.5 111.5l19 86l4.5 26t2.5 28q0 25 -6.5 41t-31.5 27q-29 15 -84.5 22.5t-85.5 9.5l15 68h623l-15 -68q-26 -3 -67.5 -9.5t-69.5 -18.5q-36 -16 -53.5 -43t-26.5 -64
l-26 -115q-23 -95 -32 -142t-16 -89l-117.5 -47t-128.5 -39q-70 -18 -134.5 -28t-142.5 -10zM1259 1539l-49 -32l-234 212l-320 -212l-47 32l290 284q19 18 40.5 31.5t60.5 13.5q42 0 56.5 -13.5t22.5 -27.5z" />
    <glyph glyph-name="gcircumflex" unicode="&#x11d;" horiz-adv-x="1173" 
d="M709 135l-7 2l-56.5 -45t-76.5 -51q-46 -27 -93 -44t-104 -17q-145 0 -223.5 102.5t-78.5 282.5q0 124 45.5 241t124.5 208q76 88 182 141.5t222 53.5q72 0 136 -18.5t103 -43.5l183 47l12 -15l-168 -788q-38 -179 -97.5 -302.5t-137.5 -195.5q-80 -74 -176.5 -105.5
t-218.5 -31.5q-83 0 -135.5 13t-82.5 34t-40.5 47.5t-10.5 50.5q0 45 27 75.5t74 30.5q37 0 63 -21.5t42 -46.5q17 -26 33 -62l24 -54h30q55 0 118 25t115 81q53 58 99 155.5t73 250.5zM843 774q0 28 -8.5 57.5t-31.5 54.5q-22 24 -56 38t-87 14q-77 0 -145.5 -46.5
t-123.5 -127.5q-51 -76 -83 -184t-32 -217q0 -59 8.5 -108.5t29.5 -86.5t55.5 -57.5t89.5 -20.5q70 0 139 40.5t131 103.5zM1007 1150l-49 -32l-224 273l-330 -273l-47 32l303 347q19 23 38.5 34t58.5 11q38 0 53 -10.5t25 -30.5z" />
    <glyph glyph-name="Gdotaccent" unicode="&#x120;" horiz-adv-x="1485" 
d="M667 -33q-120 0 -223 38t-180 112t-120.5 180t-43.5 243q0 193 67.5 358.5t184.5 289.5q115 123 272 193.5t331 70.5q138 0 236.5 -31.5t154.5 -69.5l56 68h80l-105 -496h-82q-2 83 -14 163t-50 144q-39 65 -107 103t-190 38q-123 0 -232.5 -63.5t-192.5 -178.5
q-81 -111 -127.5 -267t-46.5 -334q0 -222 105 -350t290 -128q88 0 153 26t103 58q14 41 26.5 86.5t27.5 111.5l19 86l4.5 26t2.5 28q0 25 -6.5 41t-31.5 27q-29 15 -84.5 22.5t-85.5 9.5l15 68h623l-15 -68q-26 -3 -67.5 -9.5t-69.5 -18.5q-36 -16 -53.5 -43t-26.5 -64
l-26 -115q-23 -95 -32 -142t-16 -89l-117.5 -47t-128.5 -39q-70 -18 -134.5 -28t-142.5 -10zM1077 1738q0 -57 -37.5 -98.5t-92.5 -41.5q-51 0 -88.5 39t-37.5 92q0 55 37.5 95t88.5 40q57 0 93.5 -37.5t36.5 -88.5z" />
    <glyph glyph-name="gdotaccent" unicode="&#x121;" horiz-adv-x="1173" 
d="M709 135l-7 2l-56.5 -45t-76.5 -51q-46 -27 -93 -44t-104 -17q-145 0 -223.5 102.5t-78.5 282.5q0 124 45.5 241t124.5 208q76 88 182 141.5t222 53.5q72 0 136 -18.5t103 -43.5l183 47l12 -15l-168 -788q-38 -179 -97.5 -302.5t-137.5 -195.5q-80 -74 -176.5 -105.5
t-218.5 -31.5q-83 0 -135.5 13t-82.5 34t-40.5 47.5t-10.5 50.5q0 45 27 75.5t74 30.5q37 0 63 -21.5t42 -46.5q17 -26 33 -62l24 -54h30q55 0 118 25t115 81q53 58 99 155.5t73 250.5zM843 774q0 28 -8.5 57.5t-31.5 54.5q-22 24 -56 38t-87 14q-77 0 -145.5 -46.5
t-123.5 -127.5q-51 -76 -83 -184t-32 -217q0 -59 8.5 -108.5t29.5 -86.5t55.5 -57.5t89.5 -20.5q70 0 139 40.5t131 103.5zM834 1387q0 -57 -37.5 -98.5t-92.5 -41.5q-51 0 -88.5 39t-37.5 92q0 55 37.5 95t88.5 40q57 0 93.5 -37.5t36.5 -88.5z" />
    <glyph glyph-name="Gcommaaccent" unicode="&#x122;" horiz-adv-x="1485" 
d="M667 -33q-120 0 -223 38t-180 112t-120.5 180t-43.5 243q0 193 67.5 358.5t184.5 289.5q115 123 272 193.5t331 70.5q138 0 236.5 -31.5t154.5 -69.5l56 68h80l-105 -496h-82q-2 83 -14 163t-50 144q-39 65 -107 103t-190 38q-123 0 -232.5 -63.5t-192.5 -178.5
q-81 -111 -127.5 -267t-46.5 -334q0 -222 105 -350t290 -128q88 0 153 26t103 58q14 41 26.5 86.5t27.5 111.5l19 86l4.5 26t2.5 28q0 25 -6.5 41t-31.5 27q-29 15 -84.5 22.5t-85.5 9.5l15 68h623l-15 -68q-26 -3 -67.5 -9.5t-69.5 -18.5q-36 -16 -53.5 -43t-26.5 -64
l-26 -115q-23 -95 -32 -142t-16 -89l-117.5 -47t-128.5 -39q-70 -18 -134.5 -28t-142.5 -10zM503 -444l9 57q98 6 141.5 40.5t55.5 87.5h-54q-59 0 -84.5 22t-25.5 55q0 42 35.5 79t95.5 37q58 0 93 -35.5t35 -94.5q0 -120 -84.5 -184t-216.5 -64z" />
    <glyph glyph-name="gcommaaccent" unicode="&#x123;" horiz-adv-x="1173" 
d="M709 135l-7 2l-56.5 -45t-76.5 -51q-46 -27 -93 -44t-104 -17q-145 0 -223.5 102.5t-78.5 282.5q0 124 45.5 241t124.5 208q76 88 182 141.5t222 53.5q72 0 136 -18.5t103 -43.5l183 47l12 -15l-168 -788q-38 -179 -97.5 -302.5t-137.5 -195.5q-80 -74 -176.5 -105.5
t-218.5 -31.5q-83 0 -135.5 13t-82.5 34t-40.5 47.5t-10.5 50.5q0 45 27 75.5t74 30.5q37 0 63 -21.5t42 -46.5q17 -26 33 -62l24 -54h30q55 0 118 25t115 81q53 58 99 155.5t73 250.5zM843 774q0 28 -8.5 57.5t-31.5 54.5q-22 24 -56 38t-87 14q-77 0 -145.5 -46.5
t-123.5 -127.5q-51 -76 -83 -184t-32 -217q0 -59 8.5 -108.5t29.5 -86.5t55.5 -57.5t89.5 -20.5q70 0 139 40.5t131 103.5zM852 1538q-51 -24 -81.5 -40t-64.5 -42q-28 -21 -50 -51t-38 -73h45q57 0 85 -25t28 -69q0 -42 -38 -83t-101 -41q-68 0 -100 35.5t-32 92.5
q0 77 33.5 134t84.5 102q47 42 102.5 70.5t101.5 48.5z" />
    <glyph glyph-name="Hcircumflex" unicode="&#x124;" horiz-adv-x="1669" 
d="M1771 1419l-15 -66q-28 -1 -70 -9t-64 -15q-39 -13 -56 -41t-25 -60l-238 -1033q-2 -8 -3 -18t-1 -17q0 -21 9 -37t29 -29q15 -9 54.5 -18t67.5 -10l-15 -66h-589l15 66q25 2 71 6t65 12q35 13 54 38t27 62l118 512h-667l-115 -501q-2 -8 -3 -17t-1 -17q0 -20 9.5 -38
t28.5 -29q15 -9 54.5 -18t67.5 -10l-15 -66h-589l15 66q25 2 71 6t65 12q35 13 54 38t27 62l239 1034q2 8 3 16.5t1 17.5q0 22 -8.5 38t-30.5 28q-24 13 -60 23t-64 12l15 66h589l-15 -66q-28 -1 -70 -9t-64 -15q-39 -13 -56 -41t-25 -60l-102 -447h667l100 437q2 8 3 16.5
t1 16.5q0 22 -8.5 38.5t-30.5 28.5q-24 13 -60 23t-64 12l15 66h589zM1369 1539l-49 -32l-234 212l-320 -212l-47 32l290 284q19 18 40.5 31.5t60.5 13.5q42 0 56.5 -13.5t22.5 -27.5z" />
    <glyph glyph-name="hcircumflex" unicode="&#x125;" horiz-adv-x="1152" 
d="M1094 116l-15 -64q-90 -36 -140 -52.5t-101 -16.5q-80 0 -120 41.5t-40 102.5q0 22 4 48.5t13 62.5l98 373q11 43 17.5 78t6.5 56q0 67 -32 106t-95 39q-64 0 -138.5 -41t-141.5 -115l-169 -734h-186l267 1158q4 16 8 35.5t4 37.5q0 36 -12 55.5t-34 29.5q-19 9 -52 12
t-66 7l14 61l371 23l10 -15l-130 -563h4q103 83 184 125.5t184 42.5q96 0 150 -55.5t54 -145.5q0 -18 -5.5 -64t-17.5 -91l-84 -321q-8 -32 -17 -73.5t-9 -64.5q0 -57 25 -77.5t82 -20.5q19 0 54.5 6.5t54.5 13.5zM1054 1538l-49 -32l-234 212l-320 -212l-47 32l290 284
q19 18 40.5 31.5t60.5 13.5q42 0 56.5 -13.5t22.5 -27.5z" />
    <glyph glyph-name="Hbar" unicode="&#x126;" horiz-adv-x="1669" 
d="M1622 1329q-39 -13 -56 -40.5t-25 -60.5l-30 -130h187l-21 -85h-186l-188 -818q-2 -8 -3 -18t-1 -17q0 -21 9 -37t29 -29q15 -9 54.5 -18t67.5 -10l-15 -66h-589l15 66q25 2 71 6t65 12q35 13 54 38t27 62l118 512h-667l-115 -501q-2 -8 -3 -17t-1 -17q0 -20 9.5 -38
t28.5 -29q15 -9 54.5 -18t67.5 -10l-15 -66h-589l15 66q25 2 71 6t65 12q35 13 53.5 38t27.5 62l191 829h-186l21 85h185l28 120q2 8 3 16.5t1 17.5q0 22 -8.5 38t-30.5 28q-24 13 -60 23t-64 12l15 66h589l-15 -66q-28 -1 -70 -9t-64 -15q-39 -13 -56 -41t-25 -60l-30 -130
h667l28 120q2 8 3 16.5t1 16.5q0 22 -8.5 38.5t-30.5 28.5q-24 13 -60 23t-64 12l15 66h589l-15 -66q-28 -1 -70 -9t-64 -15zM612 1013l-53 -232h667l53 232h-667z" />
    <glyph glyph-name="hbar" unicode="&#x127;" horiz-adv-x="1152" 
d="M1094 116l-15 -64q-90 -36 -140 -52.5t-101 -16.5q-80 0 -120 41.5t-40 102.5q0 22 4 48.5t13 62.5l98 373q11 43 17.5 78t6.5 56q0 67 -32 106t-95 39q-64 0 -138.5 -41t-141.5 -115l-169 -734h-186l271 1172h-229l20 81h227l8 34l8.5 39t3.5 34q0 36 -12 55.5t-34 29.5
q-19 9 -52 12t-66 7l14 61l371 23l10 -15l-65 -280h352l-20 -81h-351l-76 -331h4q103 83 184 125.5t184 42.5q96 0 150 -55.5t54 -145.5q0 -18 -5.5 -64t-17.5 -91l-84 -321q-8 -32 -17 -73.5t-9 -64.5q0 -57 25 -77.5t82 -20.5q19 0 54.5 6.5t54.5 13.5z" />
    <glyph glyph-name="Itilde" unicode="&#x128;" horiz-adv-x="798" 
d="M922 1419l-15 -66q-31 -1 -81 -9t-74 -15q-42 -13 -60 -40t-26 -59l-240 -1037q-2 -7 -3 -16t-1 -16q0 -23 10 -39t36 -28q15 -7 66 -16.5t76 -11.5l-15 -66h-639l15 66l80 6t74 12q39 14 59 38.5t27 59.5l239 1038q2 9 3 18t1 18q0 20 -8.5 35t-35.5 27t-73.5 22.5
t-68.5 12.5l15 66h639zM1021 1840q-10 -38 -30 -78t-55 -79q-36 -39 -75.5 -62.5t-94.5 -23.5q-56 0 -98.5 16.5t-74.5 34.5q-35 20 -67.5 36t-69.5 16q-52 0 -80.5 -36.5t-60.5 -99.5l-58 25q10 32 34 77t52 79q30 36 73 61.5t90 25.5q53 0 95 -16.5t76 -35.5l65.5 -36
t62.5 -15q69 0 99.5 32.5t55.5 101.5z" />
    <glyph glyph-name="itilde" unicode="&#x129;" horiz-adv-x="609" 
d="M551 109l-15 -64q-92 -37 -147 -51.5t-94 -14.5q-80 0 -120 41.5t-40 102.5q0 23 4 48t13 63l106 425q8 35 15.5 75t7.5 68q0 56 -18.5 74.5t-75.5 18.5q-22 0 -58.5 -7t-55.5 -12l15 64q78 35 140 52t98 17q82 0 119 -39t37 -105q0 -18 -4 -49t-12 -62l-107 -425
q-10 -39 -17.5 -76.5t-7.5 -61.5q0 -57 25.5 -78t82.5 -21q19 0 54.5 5t54.5 12zM737 1464q-11 -32 -35 -74.5t-60 -79.5q-42 -44 -81.5 -63.5t-81.5 -19.5q-45 0 -77 16t-55 34t-48 34t-57 16q-28 0 -43 -7.5t-32 -26.5q-17 -17 -34 -45.5l-33 -53.5l-50 25q14 34 39 75.5
t57 77.5q30 33 73 58.5t84 25.5q40 0 70 -14t59 -36l47.5 -35.5t50.5 -14.5q33 0 58 9t39 25q18 21 30.5 44.5t26.5 52.5z" />
    <glyph glyph-name="Imacron" unicode="&#x12a;" horiz-adv-x="798" 
d="M922 1419l-15 -66q-31 -1 -81 -9t-74 -15q-42 -13 -60 -40t-26 -59l-240 -1037q-2 -7 -3 -16t-1 -16q0 -23 10 -39t36 -28q15 -7 66 -16.5t76 -11.5l-15 -66h-639l15 66l80 6t74 12q39 14 59 38.5t27 59.5l239 1038q2 9 3 18t1 18q0 20 -8.5 35t-35.5 27t-73.5 22.5
t-68.5 12.5l15 66h639zM994 1783l-28 -123h-645l28 123h645z" />
    <glyph glyph-name="imacron" unicode="&#x12b;" horiz-adv-x="609" 
d="M551 109l-15 -64q-92 -37 -147 -51.5t-94 -14.5q-80 0 -120 41.5t-40 102.5q0 23 4 48t13 63l106 425q8 35 15.5 75t7.5 68q0 56 -18.5 74.5t-75.5 18.5q-22 0 -58.5 -7t-55.5 -12l15 64q78 35 140 52t98 17q82 0 119 -39t37 -105q0 -18 -4 -49t-12 -62l-107 -425
q-10 -39 -17.5 -76.5t-7.5 -61.5q0 -57 25.5 -78t82.5 -21q19 0 54.5 5t54.5 12zM666 1291h-562l30 128h562z" />
    <glyph glyph-name="Ibreve" unicode="&#x12c;" horiz-adv-x="798" 
d="M922 1419l-15 -66q-31 -1 -81 -9t-74 -15q-42 -13 -60 -40t-26 -59l-240 -1037q-2 -7 -3 -16t-1 -16q0 -23 10 -39t36 -28q15 -7 66 -16.5t76 -11.5l-15 -66h-639l15 66l80 6t74 12q39 14 59 38.5t27 59.5l239 1038q2 9 3 18t1 18q0 20 -8.5 35t-35.5 27t-73.5 22.5
t-68.5 12.5l15 66h639zM978 1851q-58 -161 -150.5 -241t-227.5 -80q-128 0 -193 75t-65 221v12.5v12.5l56 16q15 -101 67 -146t162 -45q121 0 185.5 52t111.5 139z" />
    <glyph glyph-name="ibreve" unicode="&#x12d;" horiz-adv-x="609" 
d="M551 109l-15 -64q-92 -37 -147 -51.5t-94 -14.5q-80 0 -120 41.5t-40 102.5q0 23 4 48t13 63l106 425q8 35 15.5 75t7.5 68q0 56 -18.5 74.5t-75.5 18.5q-22 0 -58.5 -7t-55.5 -12l15 64q78 35 140 52t98 17q82 0 119 -39t37 -105q0 -18 -4 -49t-12 -62l-107 -425
q-10 -39 -17.5 -76.5t-7.5 -61.5q0 -57 25.5 -78t82.5 -21q19 0 54.5 5t54.5 12zM690 1495q-56 -185 -138 -275.5t-204 -90.5q-105 0 -156.5 68t-51.5 204q0 25 1.5 46t4.5 48l48 12q3 -40 12 -89t24 -75q18 -33 49.5 -50.5t93.5 -17.5q57 0 97.5 17.5t69.5 48.5
q26 28 49.5 69t48.5 97z" />
    <glyph glyph-name="Iogonek" unicode="&#x12e;" horiz-adv-x="798" 
d="M922 1419l-15 -66q-31 -1 -81 -9t-74 -15q-42 -13 -60 -40t-26 -59l-240 -1037q-2 -7 -3 -16t-1 -16q0 -23 10 -39t36 -28q15 -7 66 -16.5t76 -11.5l-15 -66h-173q-54 -44 -96.5 -112.5t-42.5 -144.5q0 -55 42 -85t161 -30l-13 -72h-115q-116 0 -176 42t-60 116
q0 72 53.5 143.5t167.5 142.5h-387l15 66l80 6t74 12q39 14 59 38.5t27 59.5l239 1038q2 9 3 18t1 18q0 20 -8.5 35t-35.5 27t-73.5 22.5t-68.5 12.5l15 66h639z" />
    <glyph glyph-name="iogonek" unicode="&#x12f;" horiz-adv-x="609" 
d="M126 -286q0 72 51.5 140t139.5 126l-22 -1q-80 0 -120 41.5t-40 102.5q0 23 4 48t13 63l106 425q8 35 15.5 75t7.5 68q0 56 -18.5 74.5t-75.5 18.5q-22 0 -58.5 -7t-55.5 -12l15 64q78 35 140 52t98 17q82 0 119 -39t37 -105q0 -18 -4 -49t-12 -62l-107 -425
q-10 -39 -17.5 -76.5t-7.5 -61.5q0 -57 25.5 -78t82.5 -21q19 0 54.5 5t54.5 12l-15 -64l-55 -21.5t-47 -16.5q-61 -48 -104 -118t-43 -146q0 -55 42 -85t161 -30l-13 -72h-115q-116 0 -176 42t-60 116zM622 1387q0 -57 -37 -99.5t-92 -42.5q-51 0 -88 40.5t-37 92.5
q0 55 37 96t88 41q57 0 93 -38.5t36 -89.5z" />
    <glyph glyph-name="Jcircumflex" unicode="&#x134;" horiz-adv-x="1060" 
d="M1209 1419l-15 -66q-29 -1 -72 -7.5t-74 -16.5q-39 -13 -55.5 -39t-25.5 -62l-190 -846q-15 -67 -56.5 -141.5t-106.5 -133.5q-69 -63 -155 -102t-201 -39q-140 0 -224 70t-84 194q0 99 49.5 173t129.5 74q60 0 85 -29t25 -68q0 -35 -17 -72t-44 -72q-24 -31 -53 -64.5
t-45 -56.5q15 -30 56 -54t122 -24q73 0 126.5 33.5t88.5 89.5t60.5 132t46.5 170l170 756q1 5 2.5 15t1.5 18q0 21 -9 38t-31 29q-26 16 -76 24.5t-74 10.5l15 66h630zM1222 1539l-49 -32l-234 212l-320 -212l-47 32l290 284q19 18 40.5 31.5t60.5 13.5q42 0 56.5 -13.5
t22.5 -27.5z" />
    <glyph glyph-name="jcircumflex" unicode="&#x135;" horiz-adv-x="596" 
d="M497 865q0 -20 -4.5 -52t-10.5 -59l-69.5 -341t-78.5 -353q-53 -222 -198.5 -363t-309.5 -141q-88 0 -129.5 33.5t-41.5 84.5q0 43 26 76t75 33q31 0 54.5 -14t41.5 -35q14 -17 31.5 -46l30.5 -50q71 4 127.5 99.5t98.5 284.5l71.5 322.5t64.5 314.5q8 41 14 77.5t6 65.5
q0 56 -18.5 74.5t-75.5 18.5q-26 0 -65.5 -8.5t-57.5 -13.5l15 64q78 35 143.5 53.5t103.5 18.5q82 0 119 -39t37 -105zM623 1150l-49 -32l-204 273l-310 -273l-47 32l283 347q19 24 38 34.5t59 10.5t55.5 -12t22.5 -29z" />
    <glyph glyph-name="Kcommaaccent" unicode="&#x136;" horiz-adv-x="1422" 
d="M1597 1419l-15 -66q-5 0 -38 -3.5t-65 -10.5q-40 -9 -77.5 -24.5t-70.5 -44.5l-282 -251.5t-283 -241.5l171.5 -275l159.5 -268q28 -48 62.5 -85t66.5 -55q22 -13 62 -20t65 -8l-17 -66h-361q-80 173 -176 341t-210 333h-55l-111 -479q-2 -8 -3 -16.5t-1 -17.5
q0 -24 7 -39t32 -28q13 -7 57.5 -17t67.5 -11l-15 -66h-589l15 66q25 2 69 6t64 12q36 14 54.5 39.5t25.5 60.5l239 1034q2 9 3 18t1 18q0 22 -9 38t-29 26q-18 10 -54.5 20.5t-66.5 14.5l15 66h589l-15 -66q-28 -1 -72 -9t-66 -15q-37 -12 -55 -40.5t-26 -60.5l-116 -505
h20q143 101 282 221t227 210q54 55 82.5 92.5t28.5 61.5q0 18 -34.5 30t-100.5 15l15 66h532zM523 -444l9 57q98 6 141.5 40.5t55.5 87.5h-54q-59 0 -84.5 22t-25.5 55q0 42 35.5 79t95.5 37q58 0 93 -35.5t35 -94.5q0 -120 -84.5 -184t-216.5 -64z" />
    <glyph glyph-name="kcommaaccent" unicode="&#x137;" horiz-adv-x="1081" 
d="M1071 895q0 -44 -34.5 -81.5t-85.5 -37.5q-33 0 -65 9t-70 27q-55 -31 -113.5 -76.5t-127.5 -110.5l96.5 -242.5t67.5 -154.5q36 -75 79.5 -106.5t95.5 -31.5q24 0 66 7.5t65 15.5l-15 -66q-93 -38 -146 -51t-107 -13q-64 0 -109.5 35.5t-87.5 128.5q-41 89 -73 175.5
l-63 163.5l-117 -100l-86 -386h-186l297 1287q7 31 9.5 43t2.5 30q0 36 -12 55.5t-34 29.5q-21 9 -53 12t-65 7l14 61l371 23l10 -15l-244 -1041h4q113 122 205.5 211.5l193.5 182.5q72 66 114 90.5t90 24.5q51 0 82 -28.5t31 -77.5zM304 -444l9 57q98 6 141.5 40.5
t55.5 87.5h-54q-59 0 -84.5 22t-25.5 55q0 42 35.5 79t95.5 37q58 0 93 -35.5t35 -94.5q0 -120 -84.5 -184t-216.5 -64z" />
    <glyph glyph-name="kgreenlandic" unicode="&#x138;" horiz-adv-x="1138" 
d="M1128 895q0 -44 -34.5 -81.5t-85.5 -37.5q-33 0 -65 9t-70 27q-55 -31 -113.5 -76.5t-127.5 -110.5l96.5 -242.5t67.5 -154.5q36 -75 79.5 -106.5t95.5 -31.5q24 0 66 7.5t65 15.5l-15 -66q-93 -38 -146 -51t-107 -13q-64 0 -109.5 35.5t-87.5 128.5q-41 89 -73 175.5
l-63 163.5l-118 -101l-88 -385h-185l150 648q8 35 15.5 73.5t7.5 69.5q0 56 -18.5 75t-75.5 19q-22 0 -56 -7.5t-53 -12.5l15 64q78 35 137.5 52t95.5 17q80 0 117 -37.5t37 -106.5q0 -17 -4.5 -50t-11.5 -61l-59 -252l5 1q113 122 205.5 211.5l193.5 182.5q72 66 114 90.5
t90 24.5q51 0 82 -28.5t31 -77.5z" />
    <glyph glyph-name="Lcommaaccent" unicode="&#x13b;" horiz-adv-x="1236" 
d="M1211 422l-127 -422h-1109l15 66q25 2 71 7t67 13q36 14 54.5 40.5t25.5 61.5l237 1026q2 9 3.5 18.5t1.5 18.5q0 20 -8.5 36.5t-30.5 28.5q-20 12 -58.5 23t-65.5 14l15 66h599l-15 -66q-23 -1 -66.5 -8.5t-76.5 -17.5q-39 -13 -57 -42t-26 -61l-222 -963
q-8 -35 -12.5 -61.5t-4.5 -43.5q0 -55 44.5 -69t162.5 -14q66 0 150.5 11.5t117.5 41.5q51 45 128.5 139.5t115.5 156.5h71zM456 -444l9 57q98 6 141.5 40.5t55.5 87.5h-54q-59 0 -84.5 22t-25.5 55q0 42 35.5 79t95.5 37q58 0 93 -35.5t35 -94.5q0 -120 -84.5 -184
t-216.5 -64z" />
    <glyph glyph-name="lcommaaccent" unicode="&#x13c;" horiz-adv-x="584" 
d="M600 1533l-279 -1204q-9 -38 -17 -76t-8 -62q0 -57 25.5 -78t82.5 -21q20 0 59.5 5t59.5 12l-15 -64q-90 -36 -138.5 -51t-109.5 -15q-80 0 -121.5 41.5t-41.5 102.5q0 23 4.5 48t12.5 63l243 1053q7 31 9.5 43t2.5 30q0 36 -12 55.5t-34 29.5q-21 9 -53 12t-65 7l14 61
l371 23zM93 -444l9 57q98 6 141.5 40.5t55.5 87.5h-54q-59 0 -84.5 22t-25.5 55q0 42 35.5 79t95.5 37q58 0 93 -35.5t35 -94.5q0 -120 -84.5 -184t-216.5 -64z" />
    <glyph glyph-name="Ncommaaccent" unicode="&#x145;" horiz-adv-x="1571" 
d="M1759 1419l-16 -66q-27 -1 -89 -16t-90 -31q-43 -25 -70.5 -95.5t-53.5 -180.5l-241 -1044h-90l-582 1198l-178 -774q-12 -52 -20 -105t-8 -86q0 -35 7 -56.5t19 -35.5q17 -21 85 -40t90 -21l-15 -66h-582l15 66q33 3 97 19.5t85 31.5q40 27 68 87.5t58 194.5l159 688
q7 33 10 56.5t3 43.5q0 24 -5.5 45.5t-25.5 45.5q-35 40 -85.5 55.5t-90.5 19.5l16 66h407l540 -1109l163 707q12 53 20 103.5t8 86.5q0 33 -6.5 55.5t-19.5 33.5q-24 21 -81 36.5t-94 20.5l16 66h577zM489 -444l9 57q98 6 141.5 40.5t55.5 87.5h-54q-59 0 -84.5 22
t-25.5 55q0 42 35.5 79t95.5 37q58 0 93 -35.5t35 -94.5q0 -120 -84.5 -184t-216.5 -64z" />
    <glyph glyph-name="ncommaaccent" unicode="&#x146;" horiz-adv-x="1208" 
d="M1149 116l-15 -64q-90 -36 -140 -52.5t-101 -16.5q-80 0 -120 41.5t-40 102.5q0 22 4 48.5t13 62.5l98 373q11 43 17.5 78t6.5 56q0 67 -32 106t-95 39q-61 0 -137 -40t-143 -116l-169 -734h-186l149 648l14.5 69.5t9.5 73.5q0 56 -19 75t-76 19q-22 0 -56 -7.5
t-53 -12.5l15 64q78 35 138 52t103 17q79 0 113 -43t36 -119h6q110 88 190 130.5t182 42.5q96 0 150 -55.5t54 -145.5q0 -18 -5.5 -64t-17.5 -91l-84 -321q-9 -32 -17.5 -73.5t-8.5 -64.5q0 -57 25 -77.5t82 -20.5q19 0 54.5 6.5t54.5 13.5zM379 -444l9 57q98 6 141.5 40.5
t55.5 87.5h-54q-59 0 -84.5 22t-25.5 55q0 42 35.5 79t95.5 37q58 0 93 -35.5t35 -94.5q0 -120 -84.5 -184t-216.5 -64z" />
    <glyph glyph-name="Eng" unicode="&#x14a;" horiz-adv-x="1571" 
d="M647 -192q36 0 58.5 -14t38.5 -34q15 -19 34 -48.5t39 -52.5q99 6 171.5 95t113.5 248l-575 1182l-178 -774q-12 -52 -20 -105t-8 -86q0 -35 7 -56.5t19 -35.5q17 -21 85 -40t90 -21l-15 -66h-582l15 66q33 3 97 19.5t85 31.5q40 27 68 87.5t58 194.5l159 688
q7 33 10 56.5t3 43.5q0 24 -5.5 45.5t-25.5 45.5q-35 40 -85.5 55.5t-90.5 19.5l16 66h407l540 -1109l163 707q12 53 20 103.5t8 86.5q0 33 -6.5 55.5t-19.5 33.5q-24 21 -81 36.5t-94 20.5l16 66h577l-16 -66q-27 -1 -89 -16t-90 -31q-43 -25 -70.5 -95t-53.5 -181
l-225 -974q-57 -244 -183 -372t-309 -128q-83 0 -134.5 39t-51.5 94q0 48 29.5 83.5t80.5 35.5z" />
    <glyph glyph-name="eng" unicode="&#x14b;" horiz-adv-x="1184" 
d="M402.5 -231q23.5 -14 41.5 -35q14 -17 31.5 -46l30.5 -50q68 4 123 94t103 290q45 187 71.5 313.5t62.5 323.5q5 28 6.5 50.5t1.5 37.5q0 68 -33 105.5t-96 37.5q-61 0 -137 -40t-143 -116l-169 -734h-186l149 648l14.5 69.5t9.5 73.5q0 56 -19 75t-76 19q-22 0 -56 -7.5
t-53 -12.5l15 64q78 35 138 52t103 17q79 0 113 -43t36 -119h6q110 88 190 130.5t182 42.5q96 0 151 -55.5t55 -145.5q0 -18 -3.5 -64t-12.5 -91l-56.5 -288.5t-70.5 -304.5q-56 -225 -202 -364.5t-305 -139.5q-88 0 -129.5 33.5t-41.5 84.5q0 43 26 76t75 33q31 0 54.5 -14
z" />
    <glyph glyph-name="Omacron" unicode="&#x14c;" horiz-adv-x="1496" 
d="M1477 873q0 -190 -70 -357.5t-183 -286.5q-116 -122 -264.5 -192.5t-307.5 -70.5q-248 0 -400 161t-152 413q0 194 70 360.5t182 287.5q113 123 263.5 194t309.5 71q244 0 398 -157.5t154 -422.5zM1095 339q71 124 109 280t38 312q0 200 -85 319t-250 119
q-128 0 -238 -76t-192 -223q-71 -129 -106.5 -284t-35.5 -292q0 -210 86.5 -327t247.5 -117q137 0 246 82t180 207zM1322 1783l-28 -123h-686l28 123h686z" />
    <glyph glyph-name="omacron" unicode="&#x14d;" horiz-adv-x="1100" 
d="M1033 616q0 -118 -40 -236t-116 -207q-77 -92 -185.5 -147.5t-251.5 -55.5q-166 0 -269.5 107t-103.5 288q0 133 44 248t118 202q75 87 185.5 140.5t239.5 53.5q178 0 278.5 -108.5t100.5 -284.5zM829 654q0 142 -50.5 213t-145.5 71q-83 0 -156.5 -51t-126.5 -166
q-41 -87 -60 -193.5t-19 -196.5q0 -143 49.5 -216.5t149.5 -73.5q89 0 158 56t112 142q43 84 66 192.5t23 222.5zM1063 1419l-28 -123h-686l28 123h686z" />
    <glyph glyph-name="Obreve" unicode="&#x14e;" horiz-adv-x="1496" 
d="M1477 873q0 -190 -70 -357.5t-183 -286.5q-116 -122 -264.5 -192.5t-307.5 -70.5q-248 0 -400 161t-152 413q0 194 70 360.5t182 287.5q113 123 263.5 194t309.5 71q244 0 398 -157.5t154 -422.5zM1095 339q71 124 109 280t38 312q0 200 -85 319t-250 119
q-128 0 -238 -76t-192 -223q-71 -129 -106.5 -284t-35.5 -292q0 -210 86.5 -327t247.5 -117q137 0 246 82t180 207zM1299 1851q-58 -161 -150.5 -241t-227.5 -80q-128 0 -193 75t-65 221v12.5v12.5l56 16q15 -101 67 -146t162 -45q121 0 185.5 52t111.5 139z" />
    <glyph glyph-name="obreve" unicode="&#x14f;" horiz-adv-x="1100" 
d="M1033 616q0 -118 -40 -236t-116 -207q-77 -92 -185.5 -147.5t-251.5 -55.5q-166 0 -269.5 107t-103.5 288q0 133 44 248t118 202q75 87 185.5 140.5t239.5 53.5q178 0 278.5 -108.5t100.5 -284.5zM829 654q0 142 -50.5 213t-145.5 71q-83 0 -156.5 -51t-126.5 -166
q-41 -87 -60 -193.5t-19 -196.5q0 -143 49.5 -216.5t149.5 -73.5q89 0 158 56t112 142q43 84 66 192.5t23 222.5zM1030 1495q-60 -182 -151.5 -275t-226.5 -93q-127 0 -188 86t-61 250q0 7 0.5 15.5t0.5 16.5l52 12q7 -52 17.5 -91t35.5 -72q24 -32 61 -49.5t104 -17.5
q108 0 176 56.5t122 173.5z" />
    <glyph glyph-name="Rcommaaccent" unicode="&#x156;" horiz-adv-x="1437" 
d="M1370 66l-16 -66h-359q-85 202 -160.5 345.5l-159.5 300.5h-148l-106 -458q-2 -8 -3.5 -19t-1.5 -16q0 -23 8.5 -40t30.5 -27q14 -6 59.5 -12.5t75.5 -7.5l-16 -66h-600l16 66q25 2 71 7t66 13q36 14 55 40.5t26 61.5l239 1036q2 10 3.5 20.5t1.5 20.5q0 21 -8 37t-30 25
q-21 8 -61 16t-66 10l15 66h638q86 0 157 -17t119 -47q53 -32 83.5 -84t30.5 -123q0 -94 -35 -171.5t-95 -132.5q-63 -57 -143 -94.5t-176 -59.5l127 -239l115 -217q34 -65 61 -93.5t57 -45.5q25 -14 65 -21t64 -8zM1084 1127q0 102 -62.5 159t-175.5 57h-159l-141 -616h142
q164 0 280 114.5t116 285.5zM533 -444l9 57q98 6 141.5 40.5t55.5 87.5h-54q-59 0 -84.5 22t-25.5 55q0 42 35.5 79t95.5 37q58 0 93 -35.5t35 -94.5q0 -120 -84.5 -184t-216.5 -64z" />
    <glyph glyph-name="rcommaaccent" unicode="&#x157;" horiz-adv-x="945" 
d="M954 846q0 -28 -8 -61.5t-23 -55.5q-18 -27 -39.5 -41.5t-61.5 -14.5q-54 0 -81 27t-27 60q0 31 15 69.5l31 76.5q-12 0 -39.5 -6.5t-66.5 -25.5t-88.5 -57t-105.5 -101l-161 -716h-186l146 648l14.5 72t9.5 71q0 56 -19 75t-76 19q-22 0 -56 -7.5t-53 -12.5l15 64
q78 35 138 52t103 17q80 0 114 -43.5t34 -130.5h6q119 103 180.5 144t128.5 41q32 0 62 -8t51 -27q22 -21 32.5 -48.5t10.5 -79.5zM69 -444l9 57q98 6 141.5 40.5t55.5 87.5h-54q-59 0 -84.5 22t-25.5 55q0 42 35.5 79t95.5 37q58 0 93 -35.5t35 -94.5q0 -120 -84.5 -184
t-216.5 -64z" />
    <glyph glyph-name="Scircumflex" unicode="&#x15c;" horiz-adv-x="1149" 
d="M493 -29q-123 0 -215.5 30.5t-149.5 70.5l-57 -73h-80l98 486h81q5 -87 23.5 -163t60.5 -137q42 -63 109 -97.5t166 -34.5q149 0 239 82.5t90 225.5q0 77 -38 137t-114 93q-72 31 -142.5 55.5t-138.5 57.5q-90 43 -145 123.5t-55 181.5q0 96 42.5 177t112.5 140
q68 57 164.5 91t191.5 34q89 0 168.5 -21t159.5 -79l55 68h80l-101 -471h-81q-3 77 -15.5 159t-42.5 136q-33 59 -92 92.5t-157 33.5q-118 0 -198 -81.5t-80 -193.5q0 -74 29.5 -125.5t91.5 -83.5q66 -34 138.5 -58.5t129.5 -51.5q115 -54 179.5 -130t64.5 -186
q0 -106 -46 -198t-123 -154q-81 -66 -181.5 -101t-221.5 -35zM1079 1539l-49 -32l-234 212l-320 -212l-47 32l290 284q19 18 40.5 31.5t60.5 13.5q42 0 56.5 -13.5t22.5 -27.5z" />
    <glyph glyph-name="scircumflex" unicode="&#x15d;" horiz-adv-x="883" 
d="M362 -29q-148 0 -246.5 52.5t-98.5 137.5q0 40 29 75t71 35q40 0 64.5 -18.5t38.5 -43.5q15 -26 26.5 -62l19.5 -59q15 -17 41.5 -31.5t76.5 -14.5q108 0 163.5 54t55.5 146q0 68 -52 108.5t-155 74.5q-37 12 -87 36.5t-80 52.5q-36 32 -58 76t-22 104q0 128 114.5 221.5
t281.5 93.5q39 0 84 -4t99 -22q47 -16 80 -47.5t33 -81.5q0 -41 -27.5 -74.5t-72.5 -33.5q-37 0 -61 16t-40 43t-26 58t-22 61q-19 8 -34 11t-40 3q-98 0 -148.5 -52.5t-50.5 -124.5q0 -70 45.5 -105.5t150.5 -73.5q136 -49 197.5 -112t61.5 -156q0 -152 -117 -247.5
t-295 -95.5zM871 1150l-49 -32l-224 273l-330 -273l-47 32l303 347q19 23 38.5 34t58.5 11q38 0 53 -10.5t25 -30.5z" />
    <glyph glyph-name="Tbar" unicode="&#x166;" horiz-adv-x="1267" 
d="M1455 1419l-89 -385h-69q-1 35 -9.5 89t-24.5 97q-17 46 -44.5 79t-65.5 39q-30 4 -76.5 6t-86.5 2h-63l-130 -564h311l-21 -87h-310l-114 -494q-2 -8 -3 -17.5t-1 -18.5q0 -24 9 -39.5t34 -27.5q20 -8 72.5 -19.5t85.5 -12.5l-16 -66h-670l16 66q30 2 87 8t83 15
q40 15 60 41t28 62l116 503h-312l21 87h311l130 564h-53q-30 0 -75 -1.5t-92 -6.5q-33 -4 -77 -39.5t-88 -83.5q-42 -47 -76 -95.5t-53 -85.5h-70l89 385h1236z" />
    <glyph glyph-name="tbar" unicode="&#x167;" horiz-adv-x="711" 
d="M303 -21q-95 0 -139 38.5t-44 110.5q0 23 3 43.5t8 46.5l62 267h-171l20 81h170l74 320h-178l21 91h182l70 293h180l-68 -293h279l-21 -91h-277l-74 -320h233l-20 -81h-232l-35 -150q-9 -38 -15 -73.5t-6 -60.5q0 -55 27.5 -80.5t99.5 -25.5q26 0 73 6.5t73 16.5l-17 -73
q-70 -27 -132 -46.5t-146 -19.5z" />
    <glyph glyph-name="Utilde" unicode="&#x168;" horiz-adv-x="1549" 
d="M659 -34q-210 0 -328.5 89t-118.5 237q0 21 2.5 39.5t7.5 42.5l195 844q2 8 3 17t1 17q0 20 -9 37.5t-29 30.5q-22 14 -59 22t-62 11l16 66h590l-16 -66q-28 -1 -72 -9t-66 -15q-39 -13 -56 -41t-25 -60l-182 -789q-6 -26 -10.5 -58t-4.5 -62q0 -52 11 -90.5t48 -77.5
q31 -34 86.5 -55.5t139.5 -21.5q114 0 195 35.5t135 88.5q51 51 83.5 113t45.5 119q36 144 67 280.5l66 298.5q17 80 23.5 130t6.5 82q0 29 -6 46.5t-21 30.5q-29 25 -87 38.5t-88 16.5l16 66h580l-16 -66q-27 -1 -85 -12.5t-94 -32.5q-41 -24 -72.5 -105.5t-51.5 -170.5
l-63.5 -288.5t-74.5 -315.5q-35 -139 -105.5 -229.5t-158.5 -141.5q-85 -49 -176 -70t-181 -21zM1414 1840q-10 -38 -30 -78t-55 -79q-36 -39 -75.5 -62.5t-94.5 -23.5q-56 0 -98.5 16.5t-74.5 34.5q-35 20 -67.5 36t-69.5 16q-52 0 -80.5 -36.5t-60.5 -99.5l-58 25
q10 32 34 77t52 79q30 36 73 61.5t90 25.5q53 0 95 -16.5t76 -35.5l65.5 -36t62.5 -15q69 0 99.5 32.5t55.5 101.5z" />
    <glyph glyph-name="utilde" unicode="&#x169;" horiz-adv-x="1178" 
d="M707 140h-6l-88 -68t-83 -52q-48 -24 -87 -34.5t-102 -10.5q-96 0 -149 55.5t-53 145.5q0 24 4 57t19 98l78 317q10 44 16.5 78t6.5 65q0 56 -18.5 74.5t-75.5 18.5q-22 0 -56 -8t-53 -13l15 64q78 35 137.5 53t95.5 18q80 0 117.5 -37.5t37.5 -106.5q0 -18 -4 -49
t-12 -62l-89 -370q-10 -42 -16.5 -78.5t-6.5 -55.5q0 -67 29 -106t92 -39q64 0 131.5 33.5t135.5 101.5l175 753l174 12l12 -15l-149 -644q-10 -41 -18 -82.5t-8 -58.5q0 -57 24.5 -77.5t81.5 -20.5q19 0 54 6t54 13l-15 -64q-83 -34 -138.5 -51t-102.5 -17q-81 0 -120.5 47
t-39.5 110zM1086 1472q-10 -38 -30 -78t-55 -79q-36 -39 -75.5 -62.5t-94.5 -23.5q-56 0 -98.5 16.5t-74.5 34.5q-35 20 -67.5 36t-69.5 16q-52 0 -80.5 -36.5t-60.5 -99.5l-58 25q10 32 34 77t52 79q30 36 73 61.5t90 25.5q53 0 95 -16.5t76 -35.5l65.5 -36t62.5 -15
q69 0 99.5 32.5t55.5 101.5z" />
    <glyph glyph-name="Umacron" unicode="&#x16a;" horiz-adv-x="1549" 
d="M659 -34q-210 0 -328.5 89t-118.5 237q0 21 2.5 39.5t7.5 42.5l195 844q2 8 3 17t1 17q0 20 -9 37.5t-29 30.5q-22 14 -59 22t-62 11l16 66h590l-16 -66q-28 -1 -72 -9t-66 -15q-39 -13 -56 -41t-25 -60l-182 -789q-6 -26 -10.5 -58t-4.5 -62q0 -52 11 -90.5t48 -77.5
q31 -34 86.5 -55.5t139.5 -21.5q114 0 195 35.5t135 88.5q51 51 83.5 113t45.5 119q36 144 67 280.5l66 298.5q17 80 23.5 130t6.5 82q0 29 -6 46.5t-21 30.5q-29 25 -87 38.5t-88 16.5l16 66h580l-16 -66q-27 -1 -85 -12.5t-94 -32.5q-41 -24 -72.5 -105.5t-51.5 -170.5
l-63.5 -288.5t-74.5 -315.5q-35 -139 -105.5 -229.5t-158.5 -141.5q-85 -49 -176 -70t-181 -21zM1404 1783l-28 -123h-686l28 123h686z" />
    <glyph glyph-name="umacron" unicode="&#x16b;" horiz-adv-x="1178" 
d="M707 140h-6l-88 -68t-83 -52q-48 -24 -87 -34.5t-102 -10.5q-96 0 -149 55.5t-53 145.5q0 24 4 57t19 98l78 317q10 44 16.5 78t6.5 65q0 56 -18.5 74.5t-75.5 18.5q-22 0 -56 -8t-53 -13l15 64q78 35 137.5 53t95.5 18q80 0 117.5 -37.5t37.5 -106.5q0 -18 -4 -49
t-12 -62l-89 -370q-10 -42 -16.5 -78.5t-6.5 -55.5q0 -67 29 -106t92 -39q64 0 131.5 33.5t135.5 101.5l175 753l174 12l12 -15l-149 -644q-10 -41 -18 -82.5t-8 -58.5q0 -57 24.5 -77.5t81.5 -20.5q19 0 54 6t54 13l-15 -64q-83 -34 -138.5 -51t-102.5 -17q-81 0 -120.5 47
t-39.5 110zM1065 1419l-28 -123h-686l28 123h686z" />
    </font>
</defs>
</svg>
